<mxfile host="app.diagrams.net" agent="Mozilla/5.0 (Windows NT 10.0; Win64; x64; rv:140.0) Gecko/20100101 Firefox/140.0" version="28.0.7">
  <diagram name="Page-1" id="ryHCC6JFivnPuvLo9FXj">
    <mxGraphModel dx="2066" dy="1104" grid="1" gridSize="10" guides="1" tooltips="1" connect="1" arrows="1" fold="1" page="1" pageScale="1" pageWidth="3300" pageHeight="4681" math="0" shadow="0">
      <root>
        <mxCell id="0" />
        <mxCell id="1" parent="0" />
        <mxCell id="I4KKubXRf7cSkb2UcYBp-66" value="" style="endArrow=none;html=1;rounded=0;strokeWidth=10;strokeColor=#24b064;" edge="1" parent="1">
          <mxGeometry width="50" height="50" relative="1" as="geometry">
            <mxPoint x="1467" y="270" as="sourcePoint" />
            <mxPoint x="1529" y="270" as="targetPoint" />
          </mxGeometry>
        </mxCell>
        <mxCell id="I4KKubXRf7cSkb2UcYBp-56" value="" style="endArrow=none;html=1;rounded=0;strokeWidth=10;strokeColor=#24b064;" edge="1" parent="1">
          <mxGeometry width="50" height="50" relative="1" as="geometry">
            <mxPoint x="1286" y="269.5" as="sourcePoint" />
            <mxPoint x="1351" y="269.5" as="targetPoint" />
          </mxGeometry>
        </mxCell>
        <mxCell id="I4KKubXRf7cSkb2UcYBp-46" value="" style="endArrow=none;html=1;rounded=0;strokeWidth=10;strokeColor=#24b064;" edge="1" parent="1">
          <mxGeometry width="50" height="50" relative="1" as="geometry">
            <mxPoint x="1201" y="269.5" as="sourcePoint" />
            <mxPoint x="1263" y="269.5" as="targetPoint" />
          </mxGeometry>
        </mxCell>
        <mxCell id="I4KKubXRf7cSkb2UcYBp-38" value="" style="endArrow=none;html=1;rounded=0;strokeWidth=10;strokeColor=#24b064;" edge="1" parent="1">
          <mxGeometry width="50" height="50" relative="1" as="geometry">
            <mxPoint x="930" y="269.5" as="sourcePoint" />
            <mxPoint x="1010" y="269.5" as="targetPoint" />
          </mxGeometry>
        </mxCell>
        <mxCell id="I4KKubXRf7cSkb2UcYBp-30" value="" style="endArrow=none;html=1;rounded=0;strokeWidth=10;strokeColor=#24b064;" edge="1" parent="1">
          <mxGeometry width="50" height="50" relative="1" as="geometry">
            <mxPoint x="750" y="269.5" as="sourcePoint" />
            <mxPoint x="815" y="269.5" as="targetPoint" />
          </mxGeometry>
        </mxCell>
        <mxCell id="I4KKubXRf7cSkb2UcYBp-24" value="" style="endArrow=none;html=1;rounded=0;strokeWidth=10;strokeColor=#24b064;" edge="1" parent="1">
          <mxGeometry width="50" height="50" relative="1" as="geometry">
            <mxPoint x="660" y="269.5" as="sourcePoint" />
            <mxPoint x="740" y="269.5" as="targetPoint" />
          </mxGeometry>
        </mxCell>
        <mxCell id="I4KKubXRf7cSkb2UcYBp-19" value="" style="endArrow=none;html=1;rounded=0;strokeWidth=10;strokeColor=#24b064;" edge="1" parent="1">
          <mxGeometry width="50" height="50" relative="1" as="geometry">
            <mxPoint x="460" y="269.5" as="sourcePoint" />
            <mxPoint x="540" y="269.5" as="targetPoint" />
          </mxGeometry>
        </mxCell>
        <mxCell id="I4KKubXRf7cSkb2UcYBp-12" value="" style="endArrow=none;html=1;rounded=0;strokeWidth=10;strokeColor=#24b064;" edge="1" parent="1">
          <mxGeometry width="50" height="50" relative="1" as="geometry">
            <mxPoint x="370" y="269.5" as="sourcePoint" />
            <mxPoint x="450" y="269.5" as="targetPoint" />
          </mxGeometry>
        </mxCell>
        <mxCell id="I4KKubXRf7cSkb2UcYBp-8" value="" style="endArrow=none;html=1;rounded=0;strokeWidth=10;strokeColor=#24b064;" edge="1" parent="1">
          <mxGeometry width="50" height="50" relative="1" as="geometry">
            <mxPoint x="207" y="269.5" as="sourcePoint" />
            <mxPoint x="287" y="269.5" as="targetPoint" />
          </mxGeometry>
        </mxCell>
        <mxCell id="I4KKubXRf7cSkb2UcYBp-5" value="" style="endArrow=none;html=1;rounded=0;strokeWidth=10;strokeColor=#24b064;" edge="1" parent="1">
          <mxGeometry width="50" height="50" relative="1" as="geometry">
            <mxPoint x="117" y="269.5" as="sourcePoint" />
            <mxPoint x="197" y="269.5" as="targetPoint" />
          </mxGeometry>
        </mxCell>
        <mxCell id="I4KKubXRf7cSkb2UcYBp-4" value="&lt;font style=&quot;font-size: 18px;&quot;&gt;&lt;b&gt;Sample Sheet&lt;/b&gt;&lt;/font&gt;" style="text;html=1;align=center;verticalAlign=middle;whiteSpace=wrap;rounded=0;" vertex="1" parent="1">
          <mxGeometry x="50" y="320" width="60" height="30" as="geometry" />
        </mxCell>
        <mxCell id="I4KKubXRf7cSkb2UcYBp-6" value="" style="shape=image;verticalLabelPosition=bottom;verticalAlign=top;imageAspect=0;aspect=fixed;image=data:image/svg+xml,PHN2ZyB4bWxucz0iaHR0cDovL3d3dy53My5vcmcvMjAwMC9zdmciIGlkPSJzdmc3MzYyIiB2ZXJzaW9uPSIxLjEiIHZpZXdCb3g9IjAgMCA3LjkzNzQ5NjcgNy45Mzc0OTYyIiBoZWlnaHQ9IjcuOTM3NDk2Mm1tIiB3aWR0aD0iNy45Mzc0OTY3bW0iPiYjeGE7ICAmI3hhOyAgICAmI3hhOyAgJiN4YTsgIDxkZWZzIGlkPSJkZWZzNzM1OSIvPiYjeGE7ICA8ZyB0cmFuc2Zvcm09InRyYW5zbGF0ZSgtMy45ODk0MzAzLC0zMy4wNzI5MjEpIiBpZD0ibGF5ZXI1Ij4mI3hhOyAgICA8ZyBpZD0ibGF5ZXI2Ij4mI3hhOyAgICAgIDxjaXJjbGUgcj0iMi42NDU4MzMzIiBjeT0iMzcuMDQxNjY4IiBjeD0iNy45NTgxNzg1IiBpZD0icGF0aDM0NDciIHN0eWxlPSJmaWxsOiNmZmZmZmY7c3Ryb2tlOiMwMDAwMDA7c3Ryb2tlLXdpZHRoOjIuNjQ1ODM7c3Ryb2tlLWxpbmVjYXA6cm91bmQ7c3Ryb2tlLW1pdGVybGltaXQ6NDtzdHJva2UtZGFzaGFycmF5Om5vbmU7cGFpbnQtb3JkZXI6c3Ryb2tlIG1hcmtlcnMgZmlsbDtzdG9wLWNvbG9yOiMwMDAwMDAiLz4mI3hhOyAgICA8L2c+JiN4YTsgIDwvZz4mI3hhOzwvc3ZnPg==" vertex="1" parent="1">
          <mxGeometry x="187" y="255" width="30" height="30" as="geometry" />
        </mxCell>
        <mxCell id="I4KKubXRf7cSkb2UcYBp-7" value="&lt;font style=&quot;font-size: 18px;&quot;&gt;&lt;b&gt;Download genomes&lt;/b&gt;&lt;/font&gt;" style="text;html=1;align=center;verticalAlign=middle;whiteSpace=wrap;rounded=0;" vertex="1" parent="1">
          <mxGeometry x="172" y="300" width="60" height="30" as="geometry" />
        </mxCell>
        <mxCell id="I4KKubXRf7cSkb2UcYBp-1" value="" style="group" vertex="1" connectable="0" parent="1">
          <mxGeometry x="40" y="220" width="80" height="90" as="geometry" />
        </mxCell>
        <mxCell id="I4KKubXRf7cSkb2UcYBp-2" value="" style="shape=image;aspect=fixed;image=data:image/svg+xml,PD94bWwgdmVyc2lvbj0iMS4wIiBlbmNvZGluZz0iVVRGLTgiIHN0YW5kYWxvbmU9Im5vIj8+CjwhLS0gQ3JlYXRlZCB3aXRoIElua3NjYXBlIChodHRwOi8vd3d3Lmlua3NjYXBlLm9yZy8pIC0tPgoKPHN2ZwogICB3aWR0aD0iMjEuMTY2NjdtbSIKICAgaGVpZ2h0PSIyMy44MTI1MDJtbSIKICAgdmlld0JveD0iMCAwIDIxLjE2NjY3IDIzLjgxMjUwMiIKICAgdmVyc2lvbj0iMS4xIgogICBpZD0ic3ZnNzM2MiIKICAgeG1sbnM9Imh0dHA6Ly93d3cudzMub3JnLzIwMDAvc3ZnIgogICB4bWxuczpzdmc9Imh0dHA6Ly93d3cudzMub3JnLzIwMDAvc3ZnIj4KICA8ZGVmcwogICAgIGlkPSJkZWZzNzM1OSIgLz4KICA8ZwogICAgIGlkPSJsYXllcjEiCiAgICAgc3R5bGU9ImRpc3BsYXk6aW5saW5lIgogICAgIHRyYW5zZm9ybT0idHJhbnNsYXRlKDM3LjA0MTY3MywtMTQwLjIyOTE3KSI+CiAgICA8ZwogICAgICAgaWQ9ImcxODQ4OC0zLTIiCiAgICAgICB0cmFuc2Zvcm09InRyYW5zbGF0ZSgtMTY2LjY4NzQ5LDQ3LjYyNDk5NykiCiAgICAgICBzdHlsZT0iZGlzcGxheTppbmxpbmUiPgogICAgICA8cGF0aAogICAgICAgICBpZD0icGF0aDYyNzYtNC0wLTYiCiAgICAgICAgIHN0eWxlPSJmaWxsOiNmZmZmZmY7c3Ryb2tlLXdpZHRoOjAuMjMwNzAyIgogICAgICAgICBkPSJtIDEzMi4yOTE2Niw5My45MjcwNzIgdiAyMS4xNjY2NjggaCAxNS44NzUwMSBWIDk5LjIxODc0OCBsIC01LjI5MTY4LC01LjI5MTY3NiB6IiAvPgogICAgICA8cGF0aAogICAgICAgICBpZD0icGF0aDU4NjItMy03IgogICAgICAgICBkPSJtIDE0OS40ODk1OCw5Ny44OTU4MzIgYyAwLC0wLjI2NDU3NiAtMC4yNjQ1OCwtMC41MjkxNjQgLTAuNTI5MTcsLTAuNzkzNzUyIGwgLTQuNDk3OTEsLTMuOTY4NzQ4IGMgLTAuMjY0NTgsLTAuMjY0NTg4IC0wLjUyOTE3LC0wLjUyOTE2NCAtMC44Mjc4OCwtMC41MjkxNjQgaCAtMy40MDU0NSAtNy45Mzc1MSBjIC0wLjc5Mzc1LDAgLTEuMzIyOTIsMC41MjkxNjQgLTEuMzIyOTIsMS4zMjI5MTYgMCw3LjA1NTU1NiAwLDE0LjExMTEwNiAwLDIxLjE2NjY2NiAwLDAuNzkzNzUgMC41MjkxNywxLjMyMjkyIDEuMzIyOTIsMS4zMjI5MiBoIDcuOTM3NTEgNy45Mzc1IGMgMC43OTM3NCwwIDEuMzIyOTEsLTAuNTI5MTcgMS4zMjI5MSwtMS4zMjI5MiB6IG0gLTEuMzIyOTEsMTcuMTk3OTE4IEggMTMyLjI5MTY2IFYgOTMuOTI3MDg0IGggMTAuNTgzMzMgdiA0Ljc2MjUgYyAwLDAuMzE3NTA4IDAuMjAzNTMsMC41MjkxNjQgMC41MjkxNywwLjUyOTE2NCBoIDQuNzYyNTEgeiIKICAgICAgICAgc3R5bGU9InN0cm9rZS13aWR0aDowLjIzMTY3IiAvPgogICAgICA8cGF0aAogICAgICAgICBpZD0icmVjdDE4MzQ3LTYtMSIKICAgICAgICAgc3R5bGU9ImZpbGwtcnVsZTpldmVub2RkO3N0cm9rZS13aWR0aDowLjEyMjAyNztwYWludC1vcmRlcjpmaWxsIG1hcmtlcnMgc3Ryb2tlIgogICAgICAgICBkPSJtIDEzMS4wMTc1MiwxMDEuODY0NiBjIDYuMTQxMDksMCAxMi4yODIxNywwIDE4LjQyMzI2LDAgMC43NTk5MywwIDEuMzcxNzEsMC40OTcwNiAxLjM3MTcxLDEuMTE0NSB2IDIuODU0MjIgMi44NTQyNSBjIDAsMC42MTc0NCAtMC42MTE3OCwxLjExNDUgLTEuMzcxNzEsMS4xMTQ1IC02LjE0MTA5LDAgLTEyLjI4MjE3LDAgLTE4LjQyMzI2LDAgLTAuNzU5OTIsMCAtMS4zNzE3LC0wLjQ5NzA2IC0xLjM3MTcsLTEuMTE0NSB2IC0yLjg1NDI1IC0yLjg1NDIyIGMgMCwtMC42MTc0NCAwLjYxMTc4LC0xLjExNDUgMS4zNzE3LC0xLjExNDUgeiIgLz4KICAgIDwvZz4KICA8L2c+Cjwvc3ZnPgo=;" vertex="1" parent="I4KKubXRf7cSkb2UcYBp-1">
          <mxGeometry width="80" height="90" as="geometry" />
        </mxCell>
        <mxCell id="I4KKubXRf7cSkb2UcYBp-3" value="&lt;font style=&quot;font-size: 20px;&quot; color=&quot;#ffffff&quot; data-font-src=&quot;https://fonts.googleapis.com/css?family=Maven+Pro&quot; face=&quot;Maven Pro&quot;&gt;&lt;b&gt;.csv&lt;/b&gt;&lt;/font&gt;" style="text;html=1;strokeColor=none;fillColor=none;align=center;verticalAlign=middle;whiteSpace=wrap;rounded=0;" vertex="1" parent="I4KKubXRf7cSkb2UcYBp-1">
          <mxGeometry x="10" y="35" width="60" height="30" as="geometry" />
        </mxCell>
        <mxCell id="I4KKubXRf7cSkb2UcYBp-9" value="" style="group" vertex="1" connectable="0" parent="1">
          <mxGeometry x="280" y="200.0000000000001" width="100" height="110" as="geometry" />
        </mxCell>
        <mxCell id="I4KKubXRf7cSkb2UcYBp-10" value="" style="shape=image;aspect=fixed;image=data:image/svg+xml,PD94bWwgdmVyc2lvbj0iMS4wIiBlbmNvZGluZz0iVVRGLTgiIHN0YW5kYWxvbmU9Im5vIj8+CjwhLS0gQ3JlYXRlZCB3aXRoIElua3NjYXBlIChodHRwOi8vd3d3Lmlua3NjYXBlLm9yZy8pIC0tPgoKPHN2ZwogICB3aWR0aD0iMjYuNDU4MzI2bW0iCiAgIGhlaWdodD0iMjkuMTA0Mm1tIgogICB2aWV3Qm94PSIwIDAgMjYuNDU4MzI2IDI5LjEwNDIiCiAgIHZlcnNpb249IjEuMSIKICAgaWQ9InN2ZzczNjIiCiAgIHhtbG5zPSJodHRwOi8vd3d3LnczLm9yZy8yMDAwL3N2ZyIKICAgeG1sbnM6c3ZnPSJodHRwOi8vd3d3LnczLm9yZy8yMDAwL3N2ZyI+CiAgPGRlZnMKICAgICBpZD0iZGVmczczNTkiIC8+CiAgPGcKICAgICBpZD0ibGF5ZXIxIgogICAgIHN0eWxlPSJkaXNwbGF5OmlubGluZSIKICAgICB0cmFuc2Zvcm09InRyYW5zbGF0ZSgzNC4zOTU4MzMsLTE5My4xNDU4NCkiPgogICAgPGcKICAgICAgIGlkPSJnMi0wLTQiCiAgICAgICB0cmFuc2Zvcm09InRyYW5zbGF0ZSgtMjE2Ljk1ODMzLDk3Ljg5NTg0MykiCiAgICAgICBzdHlsZT0iZGlzcGxheTppbmxpbmUiPgogICAgICA8ZwogICAgICAgICBpZD0iZzE4NDg4LTU0LTQtMS01IgogICAgICAgICB0cmFuc2Zvcm09InRyYW5zbGF0ZSg1OC4yMDgzMzQsMi42NDU4MzY5KSI+CiAgICAgICAgPHBhdGgKICAgICAgICAgICBpZD0icGF0aDYyNzYtNC00LTY1LTUtOSIKICAgICAgICAgICBzdHlsZT0iZmlsbDojZmZmZmZmO3N0cm9rZS13aWR0aDowLjIzMDcwMiIKICAgICAgICAgICBkPSJtIDEzMi4yOTE2Niw5My45MjcwNzIgdiAyMS4xNjY2NjggaCAxNS44NzUwMSBWIDk5LjIxODc0OCBsIC01LjI5MTY4LC01LjI5MTY3NiB6IiAvPgogICAgICAgIDxwYXRoCiAgICAgICAgICAgaWQ9InBhdGg1ODYyLTEtMy00LTYiCiAgICAgICAgICAgZD0ibSAxNDkuNDg5NTgsOTcuODk1ODMyIGMgMCwtMC4yNjQ1NzYgLTAuMjY0NTgsLTAuNTI5MTY0IC0wLjUyOTE3LC0wLjc5Mzc1MiBsIC00LjQ5NzkxLC0zLjk2ODc0OCBjIC0wLjI2NDU4LC0wLjI2NDU4OCAtMC41MjkxNywtMC41MjkxNjQgLTAuODI3ODgsLTAuNTI5MTY0IGwgLTYuMDUxMjksLTEuM2UtNSAtNS4yOTE2NywxLjNlLTUgYyAtMC43OTM3NSwyZS02IC0xLjMyMjkyLDAuNTI5MTY0IC0xLjMyMjkyLDEuMzIyOTE2IHYgMjEuMTY2NjY2IGMgMCwwLjc5Mzc1IDAuNTI5MTcsMS4zMjI5MiAxLjMyMjkyLDEuMzIyOTIgaCA3LjkzNzUxIDcuOTM3NSBjIDAuNzkzNzQsMCAxLjMyMjkxLC0wLjUyOTE3IDEuMzIyOTEsLTEuMzIyOTIgeiBtIC0xLjMyMjkxLDE3LjE5NzkxOCBIIDEzMi4yOTE2NiBWIDkzLjkyNzA4NCBoIDEwLjU4MzMzIHYgNC43NjI1IGMgMCwwLjMxNzUwOCAwLjIwMzUzLDAuNTI5MTY0IDAuNTI5MTcsMC41MjkxNjQgaCA0Ljc2MjUxIHoiCiAgICAgICAgICAgc3R5bGU9InN0cm9rZS13aWR0aDowLjIzMTY3IiAvPgogICAgICAgIDxwYXRoCiAgICAgICAgICAgaWQ9InJlY3QxODM0Ny0yLTYtNi0wIgogICAgICAgICAgIHN0eWxlPSJmaWxsLXJ1bGU6ZXZlbm9kZDtzdHJva2Utd2lkdGg6MC4xMjIwMjc7cGFpbnQtb3JkZXI6ZmlsbCBtYXJrZXJzIHN0cm9rZSIKICAgICAgICAgICBkPSJtIDEzMS4wMTc1MiwxMDEuODY0NiBoIDE4LjQyMzI2IGMgMC43NTk5MywwIDEuMzcxNzEsMC40OTcwNiAxLjM3MTcxLDEuMTE0NSB2IDQuMTc3MTQgMS41MzEzMyBjIDAsMC42MTc0NCAtMC42MTE3OCwxLjExNDUgLTEuMzcxNzEsMS4xMTQ1IGggLTE4LjQyMzI2IGMgLTAuNzU5OTIsMCAtMS4zNzE3LC0wLjQ5NzA2IC0xLjM3MTcsLTEuMTE0NSB2IC0yLjg1NDI1IC0yLjg1NDIyIGMgMCwtMC42MTc0NCAwLjYxMTc4LC0xLjExNDUgMS4zNzE3LC0xLjExNDUgeiIgLz4KICAgICAgICA8dGV4dAogICAgICAgICAgIHhtbDpzcGFjZT0icHJlc2VydmUiCiAgICAgICAgICAgc3R5bGU9ImZvbnQtd2VpZ2h0OmJvbGQ7Zm9udC1zaXplOjUuMjkxNjdweDtmb250LWZhbWlseTonTWF2ZW4gUHJvJzstaW5rc2NhcGUtZm9udC1zcGVjaWZpY2F0aW9uOidNYXZlbiBQcm8sIEJvbGQnO3RleHQtYWxpZ246Y2VudGVyO3RleHQtb3JpZW50YXRpb246dXByaWdodDt0ZXh0LWFuY2hvcjptaWRkbGU7ZmlsbDojZmZmZmZmO2ZpbGwtb3BhY2l0eToxO3N0cm9rZTpub25lO3N0cm9rZS13aWR0aDowLjIyNzk1MTtzdHJva2UtbGluZWNhcDpyb3VuZDtzdHJva2UtbGluZWpvaW46bWl0ZXI7c3Ryb2tlLW1pdGVybGltaXQ6MC42O3N0cm9rZS1kYXNoYXJyYXk6bm9uZTtzdHJva2UtZGFzaG9mZnNldDoyLjAwMDAxO3N0cm9rZS1vcGFjaXR5OjE7cGFpbnQtb3JkZXI6ZmlsbCBtYXJrZXJzIHN0cm9rZTtzdG9wLWNvbG9yOiMwMDAwMDAiCiAgICAgICAgICAgeD0iMTQwLjMzODk2IgogICAgICAgICAgIHk9IjEwNy4yMTE4IgogICAgICAgICAgIGlkPSJ0ZXh0MTg1NjktNi00MS0zLTIiPjx0c3BhbgogICAgICAgICAgICAgaWQ9InRzcGFuMTg1NjctNDItNS0xLTYiCiAgICAgICAgICAgICBzdHlsZT0iZmlsbDojZmZmZmZmO2ZpbGwtb3BhY2l0eToxO3N0cm9rZTpub25lO3N0cm9rZS13aWR0aDowLjIyNzk1MSIKICAgICAgICAgICAgIHg9IjE0MC4zMzg5NiIKICAgICAgICAgICAgIHk9IjEwNy4yMTE4Ij5mYXN0cTwvdHNwYW4+PC90ZXh0PgogICAgICA8L2c+CiAgICAgIDxnCiAgICAgICAgIGlkPSJnMTg0ODgtNTQtOC0wLTMtNiIKICAgICAgICAgdHJhbnNmb3JtPSJ0cmFuc2xhdGUoNTUuNTYyNTA0LDUuMjkxNjYyNCkiPgogICAgICAgIDxwYXRoCiAgICAgICAgICAgaWQ9InBhdGg2Mjc2LTQtNC02LTktMDYtMSIKICAgICAgICAgICBzdHlsZT0iZmlsbDojZmZmZmZmO3N0cm9rZS13aWR0aDowLjIzMDcwMiIKICAgICAgICAgICBkPSJtIDEzMi4yOTE2Niw5My45MjcwNzIgdiAyMS4xNjY2NjggaCAxNS44NzUwMSBWIDk5LjIxODc0OCBsIC01LjI5MTY4LC01LjI5MTY3NiB6IiAvPgogICAgICAgIDxwYXRoCiAgICAgICAgICAgaWQ9InBhdGg1ODYyLTEtMS0zLTgtMCIKICAgICAgICAgICBkPSJtIDE0OS40ODk1OCw5Ny44OTU4MzIgYyAwLC0wLjI2NDU3NiAtMC4yNjQ1OCwtMC41MjkxNjQgLTAuNTI5MTcsLTAuNzkzNzUyIGwgLTQuNDk3OTEsLTMuOTY4NzQ4IGMgLTAuMjY0NTgsLTAuMjY0NTg4IC0wLjUyOTE3LC0wLjUyOTE2NCAtMC44Mjc4OCwtMC41MjkxNjQgaCAtMy40MDU0NSAtNy45Mzc1MSBjIC0wLjc5Mzc1LDAgLTEuMzIyOTIsMC41MjkxNjQgLTEuMzIyOTIsMS4zMjI5MTYgMCw3LjA1NTU1NiAwLDE0LjExMTEwNiAwLDIxLjE2NjY2NiAwLDAuNzkzNzUgMC41MjkxNywxLjMyMjkyIDEuMzIyOTIsMS4zMjI5MiBoIDcuOTM3NTEgNy45Mzc1IGMgMC43OTM3NCwwIDEuMzIyOTEsLTAuNTI5MTcgMS4zMjI5MSwtMS4zMjI5MiB6IG0gLTEuMzIyOTEsMTcuMTk3OTE4IEggMTMyLjI5MTY2IFYgOTMuOTI3MDg0IGggMTAuNTgzMzMgdiA0Ljc2MjUgYyAwLDAuMzE3NTA4IDAuMjAzNTMsMC41MjkxNjQgMC41MjkxNywwLjUyOTE2NCBoIDQuNzYyNTEgeiIKICAgICAgICAgICBzdHlsZT0ic3Ryb2tlLXdpZHRoOjAuMjMxNjciIC8+CiAgICAgICAgPHBhdGgKICAgICAgICAgICBpZD0icmVjdDE4MzQ3LTItNS0xLTAtNiIKICAgICAgICAgICBzdHlsZT0iZmlsbC1ydWxlOmV2ZW5vZGQ7c3Ryb2tlLXdpZHRoOjAuMTIyMDI3O3BhaW50LW9yZGVyOmZpbGwgbWFya2VycyBzdHJva2UiCiAgICAgICAgICAgZD0ibSAxMzEuMDE3NTIsMTAxLjg2NDYgYyA2LjE0MTA5LDAgMTIuMjgyMTcsMCAxOC40MjMyNiwwIDAuNzU5OTMsMCAxLjM3MTcxLDAuNDk3MDYgMS4zNzE3MSwxLjExNDUgdiAyLjg1NDIyIDIuODU0MjUgYyAwLDAuNjE3NDQgLTAuNjExNzgsMS4xMTQ1IC0xLjM3MTcxLDEuMTE0NSAtNi4xNDEwOSwwIC0xMi4yODIxNywwIC0xOC40MjMyNiwwIC0wLjc1OTkyLDAgLTEuMzcxNywtMC40OTcwNiAtMS4zNzE3LC0xLjExNDUgdiAtMi44NTQyNSAtMi44NTQyMiBjIDAsLTAuNjE3NDQgMC42MTE3OCwtMS4xMTQ1IDEuMzcxNywtMS4xMTQ1IHoiIC8+CiAgICAgICAgPHRleHQKICAgICAgICAgICB4bWw6c3BhY2U9InByZXNlcnZlIgogICAgICAgICAgIHN0eWxlPSJmb250LXdlaWdodDpib2xkO2ZvbnQtc2l6ZTo1LjI5MTY3cHg7Zm9udC1mYW1pbHk6J01hdmVuIFBybyc7LWlua3NjYXBlLWZvbnQtc3BlY2lmaWNhdGlvbjonTWF2ZW4gUHJvLCBCb2xkJzt0ZXh0LWFsaWduOmNlbnRlcjt0ZXh0LW9yaWVudGF0aW9uOnVwcmlnaHQ7dGV4dC1hbmNob3I6bWlkZGxlO2ZpbGw6I2ZmZmZmZjtmaWxsLW9wYWNpdHk6MTtzdHJva2U6bm9uZTtzdHJva2Utd2lkdGg6MC4yMjc5NTE7c3Ryb2tlLWxpbmVjYXA6cm91bmQ7c3Ryb2tlLWxpbmVqb2luOm1pdGVyO3N0cm9rZS1taXRlcmxpbWl0OjAuNjtzdHJva2UtZGFzaGFycmF5Om5vbmU7c3Ryb2tlLWRhc2hvZmZzZXQ6Mi4wMDAwMTtzdHJva2Utb3BhY2l0eToxO3BhaW50LW9yZGVyOmZpbGwgbWFya2VycyBzdHJva2U7c3RvcC1jb2xvcjojMDAwMDAwIgogICAgICAgICAgIHg9IjE0MC4zMzg5NiIKICAgICAgICAgICB5PSIxMDcuMjExOCIKICAgICAgICAgICBpZD0idGV4dDE4NTY5LTYtNC03LTItNyI+PHRzcGFuCiAgICAgICAgICAgICBpZD0idHNwYW4xODU2Ny00Mi0xLTUtNzEtMCIKICAgICAgICAgICAgIHN0eWxlPSJmaWxsOiNmZmZmZmY7ZmlsbC1vcGFjaXR5OjE7c3Ryb2tlOm5vbmU7c3Ryb2tlLXdpZHRoOjAuMjI3OTUxIgogICAgICAgICAgICAgeD0iMTQwLjMzODk2IgogICAgICAgICAgICAgeT0iMTA3LjIxMTgiPmZhc3RxPC90c3Bhbj48L3RleHQ+CiAgICAgIDwvZz4KICAgICAgPGcKICAgICAgICAgaWQ9ImcxODQ4OC01NC04LTAtOC02LTQiCiAgICAgICAgIHRyYW5zZm9ybT0idHJhbnNsYXRlKDUyLjkxNjY3NSw3LjkzNzUxNjIpIj4KICAgICAgICA8cGF0aAogICAgICAgICAgIGlkPSJwYXRoNjI3Ni00LTQtNi05LTAtMi0zIgogICAgICAgICAgIHN0eWxlPSJmaWxsOiNmZmZmZmY7c3Ryb2tlLXdpZHRoOjAuMjMwNzAyIgogICAgICAgICAgIGQ9Im0gMTMyLjI5MTY2LDkzLjkyNzA3MiB2IDIxLjE2NjY2OCBoIDE1Ljg3NTAxIFYgOTkuMjE4NzQ4IGwgLTUuMjkxNjgsLTUuMjkxNjc2IHoiIC8+CiAgICAgICAgPHBhdGgKICAgICAgICAgICBpZD0icGF0aDU4NjItMS0xLTMtOS04LTAiCiAgICAgICAgICAgZD0ibSAxNDkuNDg5NTgsOTcuODk1ODMyIGMgMCwtMC4yNjQ1NzYgLTAuMjY0NTgsLTAuNTI5MTY0IC0wLjUyOTE3LC0wLjc5Mzc1MiBsIC00LjQ5NzkxLC0zLjk2ODc0OCBjIC0wLjI2NDU4LC0wLjI2NDU4OCAtMC41MjkxNywtMC41MjkxNjQgLTAuODI3ODgsLTAuNTI5MTY0IGggLTMuNDA1NDUgLTcuOTM3NTEgYyAtMC43OTM3NSwwIC0xLjMyMjkyLDAuNTI5MTY0IC0xLjMyMjkyLDEuMzIyOTE2IHYgNy45Mzc0NzYgMTMuMjI5MTkgYyAwLDAuNzkzNzUgMC41MjkxNywxLjMyMjkyIDEuMzIyOTIsMS4zMjI5MiBsIDEwLjU4MzMzLC0zZS01IDUuMjkxNjgsM2UtNSBjIDAuNzkzNzQsMCAxLjMyMjkxLC0wLjUyOTE3IDEuMzIyOTEsLTEuMzIyOTIgeiBtIC0xLjMyMjkxLDE3LjE5NzkxOCBIIDEzMi4yOTE2NiBWIDkzLjkyNzA4NCBoIDEwLjU4MzMzIHYgNC43NjI1IGMgMCwwLjMxNzUwOCAwLjIwMzUzLDAuNTI5MTY0IDAuNTI5MTcsMC41MjkxNjQgaCA0Ljc2MjUxIHoiCiAgICAgICAgICAgc3R5bGU9InN0cm9rZS13aWR0aDowLjIzMTY3IiAvPgogICAgICAgIDxwYXRoCiAgICAgICAgICAgaWQ9InJlY3QxODM0Ny0yLTUtMS02LTItMCIKICAgICAgICAgICBzdHlsZT0iZmlsbC1ydWxlOmV2ZW5vZGQ7c3Ryb2tlLXdpZHRoOjAuMTIyMDI3O3BhaW50LW9yZGVyOmZpbGwgbWFya2VycyBzdHJva2UiCiAgICAgICAgICAgZD0ibSAxMzEuMDE3NTIsMTAxLjg2NDYgYyA2LjE0MTA5LDAgMTIuMjgyMTcsMCAxOC40MjMyNiwwIDAuNzU5OTMsMCAxLjM3MTcxLDAuNDk3MDYgMS4zNzE3MSwxLjExNDUgdiAyLjg1NDIyIDIuODU0MjUgYyAwLDAuNjE3NDQgLTAuNjExNzgsMS4xMTQ1IC0xLjM3MTcxLDEuMTE0NSAtNi4xNDEwOSwwIC0xMi4yODIxNywwIC0xOC40MjMyNiwwIC0wLjc1OTkyLDAgLTEuMzcxNywtMC40OTcwNiAtMS4zNzE3LC0xLjExNDUgdiAtMi44NTQyNSAtMi44NTQyMiBjIDAsLTAuNjE3NDQgMC42MTE3OCwtMS4xMTQ1IDEuMzcxNywtMS4xMTQ1IHoiIC8+CiAgICAgIDwvZz4KICAgIDwvZz4KICA8L2c+Cjwvc3ZnPgo=;" vertex="1" parent="I4KKubXRf7cSkb2UcYBp-9">
          <mxGeometry width="100" height="110" as="geometry" />
        </mxCell>
        <mxCell id="I4KKubXRf7cSkb2UcYBp-11" value="&lt;font style=&quot;font-size: 20px;&quot; color=&quot;#ffffff&quot; data-font-src=&quot;https://fonts.googleapis.com/css?family=Maven+Pro&quot; face=&quot;Maven Pro&quot;&gt;&lt;b&gt;fasta&lt;/b&gt;&lt;/font&gt;" style="text;html=1;strokeColor=none;fillColor=none;align=center;verticalAlign=middle;whiteSpace=wrap;rounded=0;" vertex="1" parent="I4KKubXRf7cSkb2UcYBp-9">
          <mxGeometry x="10" y="55" width="60" height="30" as="geometry" />
        </mxCell>
        <mxCell id="I4KKubXRf7cSkb2UcYBp-13" value="" style="shape=image;verticalLabelPosition=bottom;verticalAlign=top;imageAspect=0;aspect=fixed;image=data:image/svg+xml,PHN2ZyB4bWxucz0iaHR0cDovL3d3dy53My5vcmcvMjAwMC9zdmciIGlkPSJzdmc3MzYyIiB2ZXJzaW9uPSIxLjEiIHZpZXdCb3g9IjAgMCA3LjkzNzQ5NjcgNy45Mzc0OTYyIiBoZWlnaHQ9IjcuOTM3NDk2Mm1tIiB3aWR0aD0iNy45Mzc0OTY3bW0iPiYjeGE7ICAmI3hhOyAgICAmI3hhOyAgJiN4YTsgIDxkZWZzIGlkPSJkZWZzNzM1OSIvPiYjeGE7ICA8ZyB0cmFuc2Zvcm09InRyYW5zbGF0ZSgtMy45ODk0MzAzLC0zMy4wNzI5MjEpIiBpZD0ibGF5ZXI1Ij4mI3hhOyAgICA8ZyBpZD0ibGF5ZXI2Ij4mI3hhOyAgICAgIDxjaXJjbGUgcj0iMi42NDU4MzMzIiBjeT0iMzcuMDQxNjY4IiBjeD0iNy45NTgxNzg1IiBpZD0icGF0aDM0NDciIHN0eWxlPSJmaWxsOiNmZmZmZmY7c3Ryb2tlOiMwMDAwMDA7c3Ryb2tlLXdpZHRoOjIuNjQ1ODM7c3Ryb2tlLWxpbmVjYXA6cm91bmQ7c3Ryb2tlLW1pdGVybGltaXQ6NDtzdHJva2UtZGFzaGFycmF5Om5vbmU7cGFpbnQtb3JkZXI6c3Ryb2tlIG1hcmtlcnMgZmlsbDtzdG9wLWNvbG9yOiMwMDAwMDAiLz4mI3hhOyAgICA8L2c+JiN4YTsgIDwvZz4mI3hhOzwvc3ZnPg==" vertex="1" parent="1">
          <mxGeometry x="440" y="255" width="30" height="30" as="geometry" />
        </mxCell>
        <mxCell id="I4KKubXRf7cSkb2UcYBp-14" value="&lt;font style=&quot;font-size: 18px;&quot;&gt;&lt;b&gt;Predict orthology&lt;/b&gt;&lt;/font&gt;" style="text;html=1;align=center;verticalAlign=middle;whiteSpace=wrap;rounded=0;" vertex="1" parent="1">
          <mxGeometry x="425" y="300" width="60" height="30" as="geometry" />
        </mxCell>
        <mxCell id="I4KKubXRf7cSkb2UcYBp-15" value="" style="group" vertex="1" connectable="0" parent="1">
          <mxGeometry x="540" y="200.0000000000001" width="130" height="139.9999999999999" as="geometry" />
        </mxCell>
        <mxCell id="I4KKubXRf7cSkb2UcYBp-16" value="" style="shape=image;aspect=fixed;image=data:image/svg+xml,PD94bWwgdmVyc2lvbj0iMS4wIiBlbmNvZGluZz0iVVRGLTgiIHN0YW5kYWxvbmU9Im5vIj8+CjwhLS0gQ3JlYXRlZCB3aXRoIElua3NjYXBlIChodHRwOi8vd3d3Lmlua3NjYXBlLm9yZy8pIC0tPgoKPHN2ZwogICB3aWR0aD0iMjYuNDU4MzI2bW0iCiAgIGhlaWdodD0iMjkuMTA0Mm1tIgogICB2aWV3Qm94PSIwIDAgMjYuNDU4MzI2IDI5LjEwNDIiCiAgIHZlcnNpb249IjEuMSIKICAgaWQ9InN2ZzczNjIiCiAgIHhtbG5zPSJodHRwOi8vd3d3LnczLm9yZy8yMDAwL3N2ZyIKICAgeG1sbnM6c3ZnPSJodHRwOi8vd3d3LnczLm9yZy8yMDAwL3N2ZyI+CiAgPGRlZnMKICAgICBpZD0iZGVmczczNTkiIC8+CiAgPGcKICAgICBpZD0ibGF5ZXIxIgogICAgIHN0eWxlPSJkaXNwbGF5OmlubGluZSIKICAgICB0cmFuc2Zvcm09InRyYW5zbGF0ZSgzNC4zOTU4MzMsLTE5My4xNDU4NCkiPgogICAgPGcKICAgICAgIGlkPSJnMi0wLTQiCiAgICAgICB0cmFuc2Zvcm09InRyYW5zbGF0ZSgtMjE2Ljk1ODMzLDk3Ljg5NTg0MykiCiAgICAgICBzdHlsZT0iZGlzcGxheTppbmxpbmUiPgogICAgICA8ZwogICAgICAgICBpZD0iZzE4NDg4LTU0LTQtMS01IgogICAgICAgICB0cmFuc2Zvcm09InRyYW5zbGF0ZSg1OC4yMDgzMzQsMi42NDU4MzY5KSI+CiAgICAgICAgPHBhdGgKICAgICAgICAgICBpZD0icGF0aDYyNzYtNC00LTY1LTUtOSIKICAgICAgICAgICBzdHlsZT0iZmlsbDojZmZmZmZmO3N0cm9rZS13aWR0aDowLjIzMDcwMiIKICAgICAgICAgICBkPSJtIDEzMi4yOTE2Niw5My45MjcwNzIgdiAyMS4xNjY2NjggaCAxNS44NzUwMSBWIDk5LjIxODc0OCBsIC01LjI5MTY4LC01LjI5MTY3NiB6IiAvPgogICAgICAgIDxwYXRoCiAgICAgICAgICAgaWQ9InBhdGg1ODYyLTEtMy00LTYiCiAgICAgICAgICAgZD0ibSAxNDkuNDg5NTgsOTcuODk1ODMyIGMgMCwtMC4yNjQ1NzYgLTAuMjY0NTgsLTAuNTI5MTY0IC0wLjUyOTE3LC0wLjc5Mzc1MiBsIC00LjQ5NzkxLC0zLjk2ODc0OCBjIC0wLjI2NDU4LC0wLjI2NDU4OCAtMC41MjkxNywtMC41MjkxNjQgLTAuODI3ODgsLTAuNTI5MTY0IGwgLTYuMDUxMjksLTEuM2UtNSAtNS4yOTE2NywxLjNlLTUgYyAtMC43OTM3NSwyZS02IC0xLjMyMjkyLDAuNTI5MTY0IC0xLjMyMjkyLDEuMzIyOTE2IHYgMjEuMTY2NjY2IGMgMCwwLjc5Mzc1IDAuNTI5MTcsMS4zMjI5MiAxLjMyMjkyLDEuMzIyOTIgaCA3LjkzNzUxIDcuOTM3NSBjIDAuNzkzNzQsMCAxLjMyMjkxLC0wLjUyOTE3IDEuMzIyOTEsLTEuMzIyOTIgeiBtIC0xLjMyMjkxLDE3LjE5NzkxOCBIIDEzMi4yOTE2NiBWIDkzLjkyNzA4NCBoIDEwLjU4MzMzIHYgNC43NjI1IGMgMCwwLjMxNzUwOCAwLjIwMzUzLDAuNTI5MTY0IDAuNTI5MTcsMC41MjkxNjQgaCA0Ljc2MjUxIHoiCiAgICAgICAgICAgc3R5bGU9InN0cm9rZS13aWR0aDowLjIzMTY3IiAvPgogICAgICAgIDxwYXRoCiAgICAgICAgICAgaWQ9InJlY3QxODM0Ny0yLTYtNi0wIgogICAgICAgICAgIHN0eWxlPSJmaWxsLXJ1bGU6ZXZlbm9kZDtzdHJva2Utd2lkdGg6MC4xMjIwMjc7cGFpbnQtb3JkZXI6ZmlsbCBtYXJrZXJzIHN0cm9rZSIKICAgICAgICAgICBkPSJtIDEzMS4wMTc1MiwxMDEuODY0NiBoIDE4LjQyMzI2IGMgMC43NTk5MywwIDEuMzcxNzEsMC40OTcwNiAxLjM3MTcxLDEuMTE0NSB2IDQuMTc3MTQgMS41MzEzMyBjIDAsMC42MTc0NCAtMC42MTE3OCwxLjExNDUgLTEuMzcxNzEsMS4xMTQ1IGggLTE4LjQyMzI2IGMgLTAuNzU5OTIsMCAtMS4zNzE3LC0wLjQ5NzA2IC0xLjM3MTcsLTEuMTE0NSB2IC0yLjg1NDI1IC0yLjg1NDIyIGMgMCwtMC42MTc0NCAwLjYxMTc4LC0xLjExNDUgMS4zNzE3LC0xLjExNDUgeiIgLz4KICAgICAgICA8dGV4dAogICAgICAgICAgIHhtbDpzcGFjZT0icHJlc2VydmUiCiAgICAgICAgICAgc3R5bGU9ImZvbnQtd2VpZ2h0OmJvbGQ7Zm9udC1zaXplOjUuMjkxNjdweDtmb250LWZhbWlseTonTWF2ZW4gUHJvJzstaW5rc2NhcGUtZm9udC1zcGVjaWZpY2F0aW9uOidNYXZlbiBQcm8sIEJvbGQnO3RleHQtYWxpZ246Y2VudGVyO3RleHQtb3JpZW50YXRpb246dXByaWdodDt0ZXh0LWFuY2hvcjptaWRkbGU7ZmlsbDojZmZmZmZmO2ZpbGwtb3BhY2l0eToxO3N0cm9rZTpub25lO3N0cm9rZS13aWR0aDowLjIyNzk1MTtzdHJva2UtbGluZWNhcDpyb3VuZDtzdHJva2UtbGluZWpvaW46bWl0ZXI7c3Ryb2tlLW1pdGVybGltaXQ6MC42O3N0cm9rZS1kYXNoYXJyYXk6bm9uZTtzdHJva2UtZGFzaG9mZnNldDoyLjAwMDAxO3N0cm9rZS1vcGFjaXR5OjE7cGFpbnQtb3JkZXI6ZmlsbCBtYXJrZXJzIHN0cm9rZTtzdG9wLWNvbG9yOiMwMDAwMDAiCiAgICAgICAgICAgeD0iMTQwLjMzODk2IgogICAgICAgICAgIHk9IjEwNy4yMTE4IgogICAgICAgICAgIGlkPSJ0ZXh0MTg1NjktNi00MS0zLTIiPjx0c3BhbgogICAgICAgICAgICAgaWQ9InRzcGFuMTg1NjctNDItNS0xLTYiCiAgICAgICAgICAgICBzdHlsZT0iZmlsbDojZmZmZmZmO2ZpbGwtb3BhY2l0eToxO3N0cm9rZTpub25lO3N0cm9rZS13aWR0aDowLjIyNzk1MSIKICAgICAgICAgICAgIHg9IjE0MC4zMzg5NiIKICAgICAgICAgICAgIHk9IjEwNy4yMTE4Ij5mYXN0cTwvdHNwYW4+PC90ZXh0PgogICAgICA8L2c+CiAgICAgIDxnCiAgICAgICAgIGlkPSJnMTg0ODgtNTQtOC0wLTMtNiIKICAgICAgICAgdHJhbnNmb3JtPSJ0cmFuc2xhdGUoNTUuNTYyNTA0LDUuMjkxNjYyNCkiPgogICAgICAgIDxwYXRoCiAgICAgICAgICAgaWQ9InBhdGg2Mjc2LTQtNC02LTktMDYtMSIKICAgICAgICAgICBzdHlsZT0iZmlsbDojZmZmZmZmO3N0cm9rZS13aWR0aDowLjIzMDcwMiIKICAgICAgICAgICBkPSJtIDEzMi4yOTE2Niw5My45MjcwNzIgdiAyMS4xNjY2NjggaCAxNS44NzUwMSBWIDk5LjIxODc0OCBsIC01LjI5MTY4LC01LjI5MTY3NiB6IiAvPgogICAgICAgIDxwYXRoCiAgICAgICAgICAgaWQ9InBhdGg1ODYyLTEtMS0zLTgtMCIKICAgICAgICAgICBkPSJtIDE0OS40ODk1OCw5Ny44OTU4MzIgYyAwLC0wLjI2NDU3NiAtMC4yNjQ1OCwtMC41MjkxNjQgLTAuNTI5MTcsLTAuNzkzNzUyIGwgLTQuNDk3OTEsLTMuOTY4NzQ4IGMgLTAuMjY0NTgsLTAuMjY0NTg4IC0wLjUyOTE3LC0wLjUyOTE2NCAtMC44Mjc4OCwtMC41MjkxNjQgaCAtMy40MDU0NSAtNy45Mzc1MSBjIC0wLjc5Mzc1LDAgLTEuMzIyOTIsMC41MjkxNjQgLTEuMzIyOTIsMS4zMjI5MTYgMCw3LjA1NTU1NiAwLDE0LjExMTEwNiAwLDIxLjE2NjY2NiAwLDAuNzkzNzUgMC41MjkxNywxLjMyMjkyIDEuMzIyOTIsMS4zMjI5MiBoIDcuOTM3NTEgNy45Mzc1IGMgMC43OTM3NCwwIDEuMzIyOTEsLTAuNTI5MTcgMS4zMjI5MSwtMS4zMjI5MiB6IG0gLTEuMzIyOTEsMTcuMTk3OTE4IEggMTMyLjI5MTY2IFYgOTMuOTI3MDg0IGggMTAuNTgzMzMgdiA0Ljc2MjUgYyAwLDAuMzE3NTA4IDAuMjAzNTMsMC41MjkxNjQgMC41MjkxNywwLjUyOTE2NCBoIDQuNzYyNTEgeiIKICAgICAgICAgICBzdHlsZT0ic3Ryb2tlLXdpZHRoOjAuMjMxNjciIC8+CiAgICAgICAgPHBhdGgKICAgICAgICAgICBpZD0icmVjdDE4MzQ3LTItNS0xLTAtNiIKICAgICAgICAgICBzdHlsZT0iZmlsbC1ydWxlOmV2ZW5vZGQ7c3Ryb2tlLXdpZHRoOjAuMTIyMDI3O3BhaW50LW9yZGVyOmZpbGwgbWFya2VycyBzdHJva2UiCiAgICAgICAgICAgZD0ibSAxMzEuMDE3NTIsMTAxLjg2NDYgYyA2LjE0MTA5LDAgMTIuMjgyMTcsMCAxOC40MjMyNiwwIDAuNzU5OTMsMCAxLjM3MTcxLDAuNDk3MDYgMS4zNzE3MSwxLjExNDUgdiAyLjg1NDIyIDIuODU0MjUgYyAwLDAuNjE3NDQgLTAuNjExNzgsMS4xMTQ1IC0xLjM3MTcxLDEuMTE0NSAtNi4xNDEwOSwwIC0xMi4yODIxNywwIC0xOC40MjMyNiwwIC0wLjc1OTkyLDAgLTEuMzcxNywtMC40OTcwNiAtMS4zNzE3LC0xLjExNDUgdiAtMi44NTQyNSAtMi44NTQyMiBjIDAsLTAuNjE3NDQgMC42MTE3OCwtMS4xMTQ1IDEuMzcxNywtMS4xMTQ1IHoiIC8+CiAgICAgICAgPHRleHQKICAgICAgICAgICB4bWw6c3BhY2U9InByZXNlcnZlIgogICAgICAgICAgIHN0eWxlPSJmb250LXdlaWdodDpib2xkO2ZvbnQtc2l6ZTo1LjI5MTY3cHg7Zm9udC1mYW1pbHk6J01hdmVuIFBybyc7LWlua3NjYXBlLWZvbnQtc3BlY2lmaWNhdGlvbjonTWF2ZW4gUHJvLCBCb2xkJzt0ZXh0LWFsaWduOmNlbnRlcjt0ZXh0LW9yaWVudGF0aW9uOnVwcmlnaHQ7dGV4dC1hbmNob3I6bWlkZGxlO2ZpbGw6I2ZmZmZmZjtmaWxsLW9wYWNpdHk6MTtzdHJva2U6bm9uZTtzdHJva2Utd2lkdGg6MC4yMjc5NTE7c3Ryb2tlLWxpbmVjYXA6cm91bmQ7c3Ryb2tlLWxpbmVqb2luOm1pdGVyO3N0cm9rZS1taXRlcmxpbWl0OjAuNjtzdHJva2UtZGFzaGFycmF5Om5vbmU7c3Ryb2tlLWRhc2hvZmZzZXQ6Mi4wMDAwMTtzdHJva2Utb3BhY2l0eToxO3BhaW50LW9yZGVyOmZpbGwgbWFya2VycyBzdHJva2U7c3RvcC1jb2xvcjojMDAwMDAwIgogICAgICAgICAgIHg9IjE0MC4zMzg5NiIKICAgICAgICAgICB5PSIxMDcuMjExOCIKICAgICAgICAgICBpZD0idGV4dDE4NTY5LTYtNC03LTItNyI+PHRzcGFuCiAgICAgICAgICAgICBpZD0idHNwYW4xODU2Ny00Mi0xLTUtNzEtMCIKICAgICAgICAgICAgIHN0eWxlPSJmaWxsOiNmZmZmZmY7ZmlsbC1vcGFjaXR5OjE7c3Ryb2tlOm5vbmU7c3Ryb2tlLXdpZHRoOjAuMjI3OTUxIgogICAgICAgICAgICAgeD0iMTQwLjMzODk2IgogICAgICAgICAgICAgeT0iMTA3LjIxMTgiPmZhc3RxPC90c3Bhbj48L3RleHQ+CiAgICAgIDwvZz4KICAgICAgPGcKICAgICAgICAgaWQ9ImcxODQ4OC01NC04LTAtOC02LTQiCiAgICAgICAgIHRyYW5zZm9ybT0idHJhbnNsYXRlKDUyLjkxNjY3NSw3LjkzNzUxNjIpIj4KICAgICAgICA8cGF0aAogICAgICAgICAgIGlkPSJwYXRoNjI3Ni00LTQtNi05LTAtMi0zIgogICAgICAgICAgIHN0eWxlPSJmaWxsOiNmZmZmZmY7c3Ryb2tlLXdpZHRoOjAuMjMwNzAyIgogICAgICAgICAgIGQ9Im0gMTMyLjI5MTY2LDkzLjkyNzA3MiB2IDIxLjE2NjY2OCBoIDE1Ljg3NTAxIFYgOTkuMjE4NzQ4IGwgLTUuMjkxNjgsLTUuMjkxNjc2IHoiIC8+CiAgICAgICAgPHBhdGgKICAgICAgICAgICBpZD0icGF0aDU4NjItMS0xLTMtOS04LTAiCiAgICAgICAgICAgZD0ibSAxNDkuNDg5NTgsOTcuODk1ODMyIGMgMCwtMC4yNjQ1NzYgLTAuMjY0NTgsLTAuNTI5MTY0IC0wLjUyOTE3LC0wLjc5Mzc1MiBsIC00LjQ5NzkxLC0zLjk2ODc0OCBjIC0wLjI2NDU4LC0wLjI2NDU4OCAtMC41MjkxNywtMC41MjkxNjQgLTAuODI3ODgsLTAuNTI5MTY0IGggLTMuNDA1NDUgLTcuOTM3NTEgYyAtMC43OTM3NSwwIC0xLjMyMjkyLDAuNTI5MTY0IC0xLjMyMjkyLDEuMzIyOTE2IHYgNy45Mzc0NzYgMTMuMjI5MTkgYyAwLDAuNzkzNzUgMC41MjkxNywxLjMyMjkyIDEuMzIyOTIsMS4zMjI5MiBsIDEwLjU4MzMzLC0zZS01IDUuMjkxNjgsM2UtNSBjIDAuNzkzNzQsMCAxLjMyMjkxLC0wLjUyOTE3IDEuMzIyOTEsLTEuMzIyOTIgeiBtIC0xLjMyMjkxLDE3LjE5NzkxOCBIIDEzMi4yOTE2NiBWIDkzLjkyNzA4NCBoIDEwLjU4MzMzIHYgNC43NjI1IGMgMCwwLjMxNzUwOCAwLjIwMzUzLDAuNTI5MTY0IDAuNTI5MTcsMC41MjkxNjQgaCA0Ljc2MjUxIHoiCiAgICAgICAgICAgc3R5bGU9InN0cm9rZS13aWR0aDowLjIzMTY3IiAvPgogICAgICAgIDxwYXRoCiAgICAgICAgICAgaWQ9InJlY3QxODM0Ny0yLTUtMS02LTItMCIKICAgICAgICAgICBzdHlsZT0iZmlsbC1ydWxlOmV2ZW5vZGQ7c3Ryb2tlLXdpZHRoOjAuMTIyMDI3O3BhaW50LW9yZGVyOmZpbGwgbWFya2VycyBzdHJva2UiCiAgICAgICAgICAgZD0ibSAxMzEuMDE3NTIsMTAxLjg2NDYgYyA2LjE0MTA5LDAgMTIuMjgyMTcsMCAxOC40MjMyNiwwIDAuNzU5OTMsMCAxLjM3MTcxLDAuNDk3MDYgMS4zNzE3MSwxLjExNDUgdiAyLjg1NDIyIDIuODU0MjUgYyAwLDAuNjE3NDQgLTAuNjExNzgsMS4xMTQ1IC0xLjM3MTcxLDEuMTE0NSAtNi4xNDEwOSwwIC0xMi4yODIxNywwIC0xOC40MjMyNiwwIC0wLjc1OTkyLDAgLTEuMzcxNywtMC40OTcwNiAtMS4zNzE3LC0xLjExNDUgdiAtMi44NTQyNSAtMi44NTQyMiBjIDAsLTAuNjE3NDQgMC42MTE3OCwtMS4xMTQ1IDEuMzcxNywtMS4xMTQ1IHoiIC8+CiAgICAgIDwvZz4KICAgIDwvZz4KICA8L2c+Cjwvc3ZnPgo=;" vertex="1" parent="I4KKubXRf7cSkb2UcYBp-15">
          <mxGeometry width="100" height="110" as="geometry" />
        </mxCell>
        <mxCell id="I4KKubXRf7cSkb2UcYBp-21" value="" style="shape=image;aspect=fixed;image=data:image/svg+xml,PD94bWwgdmVyc2lvbj0iMS4wIiBlbmNvZGluZz0iVVRGLTgiIHN0YW5kYWxvbmU9Im5vIj8+CjwhLS0gQ3JlYXRlZCB3aXRoIElua3NjYXBlIChodHRwOi8vd3d3Lmlua3NjYXBlLm9yZy8pIC0tPgoKPHN2ZwogICB3aWR0aD0iMjYuNDU4MzI2bW0iCiAgIGhlaWdodD0iMjkuMTA0Mm1tIgogICB2aWV3Qm94PSIwIDAgMjYuNDU4MzI2IDI5LjEwNDIiCiAgIHZlcnNpb249IjEuMSIKICAgaWQ9InN2ZzczNjIiCiAgIHhtbG5zPSJodHRwOi8vd3d3LnczLm9yZy8yMDAwL3N2ZyIKICAgeG1sbnM6c3ZnPSJodHRwOi8vd3d3LnczLm9yZy8yMDAwL3N2ZyI+CiAgPGRlZnMKICAgICBpZD0iZGVmczczNTkiIC8+CiAgPGcKICAgICBpZD0ibGF5ZXIxIgogICAgIHN0eWxlPSJkaXNwbGF5OmlubGluZSIKICAgICB0cmFuc2Zvcm09InRyYW5zbGF0ZSgzNC4zOTU4MzMsLTE5My4xNDU4NCkiPgogICAgPGcKICAgICAgIGlkPSJnMi0wLTQiCiAgICAgICB0cmFuc2Zvcm09InRyYW5zbGF0ZSgtMjE2Ljk1ODMzLDk3Ljg5NTg0MykiCiAgICAgICBzdHlsZT0iZGlzcGxheTppbmxpbmUiPgogICAgICA8ZwogICAgICAgICBpZD0iZzE4NDg4LTU0LTQtMS01IgogICAgICAgICB0cmFuc2Zvcm09InRyYW5zbGF0ZSg1OC4yMDgzMzQsMi42NDU4MzY5KSI+CiAgICAgICAgPHBhdGgKICAgICAgICAgICBpZD0icGF0aDYyNzYtNC00LTY1LTUtOSIKICAgICAgICAgICBzdHlsZT0iZmlsbDojZmZmZmZmO3N0cm9rZS13aWR0aDowLjIzMDcwMiIKICAgICAgICAgICBkPSJtIDEzMi4yOTE2Niw5My45MjcwNzIgdiAyMS4xNjY2NjggaCAxNS44NzUwMSBWIDk5LjIxODc0OCBsIC01LjI5MTY4LC01LjI5MTY3NiB6IiAvPgogICAgICAgIDxwYXRoCiAgICAgICAgICAgaWQ9InBhdGg1ODYyLTEtMy00LTYiCiAgICAgICAgICAgZD0ibSAxNDkuNDg5NTgsOTcuODk1ODMyIGMgMCwtMC4yNjQ1NzYgLTAuMjY0NTgsLTAuNTI5MTY0IC0wLjUyOTE3LC0wLjc5Mzc1MiBsIC00LjQ5NzkxLC0zLjk2ODc0OCBjIC0wLjI2NDU4LC0wLjI2NDU4OCAtMC41MjkxNywtMC41MjkxNjQgLTAuODI3ODgsLTAuNTI5MTY0IGwgLTYuMDUxMjksLTEuM2UtNSAtNS4yOTE2NywxLjNlLTUgYyAtMC43OTM3NSwyZS02IC0xLjMyMjkyLDAuNTI5MTY0IC0xLjMyMjkyLDEuMzIyOTE2IHYgMjEuMTY2NjY2IGMgMCwwLjc5Mzc1IDAuNTI5MTcsMS4zMjI5MiAxLjMyMjkyLDEuMzIyOTIgaCA3LjkzNzUxIDcuOTM3NSBjIDAuNzkzNzQsMCAxLjMyMjkxLC0wLjUyOTE3IDEuMzIyOTEsLTEuMzIyOTIgeiBtIC0xLjMyMjkxLDE3LjE5NzkxOCBIIDEzMi4yOTE2NiBWIDkzLjkyNzA4NCBoIDEwLjU4MzMzIHYgNC43NjI1IGMgMCwwLjMxNzUwOCAwLjIwMzUzLDAuNTI5MTY0IDAuNTI5MTcsMC41MjkxNjQgaCA0Ljc2MjUxIHoiCiAgICAgICAgICAgc3R5bGU9InN0cm9rZS13aWR0aDowLjIzMTY3IiAvPgogICAgICAgIDxwYXRoCiAgICAgICAgICAgaWQ9InJlY3QxODM0Ny0yLTYtNi0wIgogICAgICAgICAgIHN0eWxlPSJmaWxsLXJ1bGU6ZXZlbm9kZDtzdHJva2Utd2lkdGg6MC4xMjIwMjc7cGFpbnQtb3JkZXI6ZmlsbCBtYXJrZXJzIHN0cm9rZSIKICAgICAgICAgICBkPSJtIDEzMS4wMTc1MiwxMDEuODY0NiBoIDE4LjQyMzI2IGMgMC43NTk5MywwIDEuMzcxNzEsMC40OTcwNiAxLjM3MTcxLDEuMTE0NSB2IDQuMTc3MTQgMS41MzEzMyBjIDAsMC42MTc0NCAtMC42MTE3OCwxLjExNDUgLTEuMzcxNzEsMS4xMTQ1IGggLTE4LjQyMzI2IGMgLTAuNzU5OTIsMCAtMS4zNzE3LC0wLjQ5NzA2IC0xLjM3MTcsLTEuMTE0NSB2IC0yLjg1NDI1IC0yLjg1NDIyIGMgMCwtMC42MTc0NCAwLjYxMTc4LC0xLjExNDUgMS4zNzE3LC0xLjExNDUgeiIgLz4KICAgICAgICA8dGV4dAogICAgICAgICAgIHhtbDpzcGFjZT0icHJlc2VydmUiCiAgICAgICAgICAgc3R5bGU9ImZvbnQtd2VpZ2h0OmJvbGQ7Zm9udC1zaXplOjUuMjkxNjdweDtmb250LWZhbWlseTonTWF2ZW4gUHJvJzstaW5rc2NhcGUtZm9udC1zcGVjaWZpY2F0aW9uOidNYXZlbiBQcm8sIEJvbGQnO3RleHQtYWxpZ246Y2VudGVyO3RleHQtb3JpZW50YXRpb246dXByaWdodDt0ZXh0LWFuY2hvcjptaWRkbGU7ZmlsbDojZmZmZmZmO2ZpbGwtb3BhY2l0eToxO3N0cm9rZTpub25lO3N0cm9rZS13aWR0aDowLjIyNzk1MTtzdHJva2UtbGluZWNhcDpyb3VuZDtzdHJva2UtbGluZWpvaW46bWl0ZXI7c3Ryb2tlLW1pdGVybGltaXQ6MC42O3N0cm9rZS1kYXNoYXJyYXk6bm9uZTtzdHJva2UtZGFzaG9mZnNldDoyLjAwMDAxO3N0cm9rZS1vcGFjaXR5OjE7cGFpbnQtb3JkZXI6ZmlsbCBtYXJrZXJzIHN0cm9rZTtzdG9wLWNvbG9yOiMwMDAwMDAiCiAgICAgICAgICAgeD0iMTQwLjMzODk2IgogICAgICAgICAgIHk9IjEwNy4yMTE4IgogICAgICAgICAgIGlkPSJ0ZXh0MTg1NjktNi00MS0zLTIiPjx0c3BhbgogICAgICAgICAgICAgaWQ9InRzcGFuMTg1NjctNDItNS0xLTYiCiAgICAgICAgICAgICBzdHlsZT0iZmlsbDojZmZmZmZmO2ZpbGwtb3BhY2l0eToxO3N0cm9rZTpub25lO3N0cm9rZS13aWR0aDowLjIyNzk1MSIKICAgICAgICAgICAgIHg9IjE0MC4zMzg5NiIKICAgICAgICAgICAgIHk9IjEwNy4yMTE4Ij5mYXN0cTwvdHNwYW4+PC90ZXh0PgogICAgICA8L2c+CiAgICAgIDxnCiAgICAgICAgIGlkPSJnMTg0ODgtNTQtOC0wLTMtNiIKICAgICAgICAgdHJhbnNmb3JtPSJ0cmFuc2xhdGUoNTUuNTYyNTA0LDUuMjkxNjYyNCkiPgogICAgICAgIDxwYXRoCiAgICAgICAgICAgaWQ9InBhdGg2Mjc2LTQtNC02LTktMDYtMSIKICAgICAgICAgICBzdHlsZT0iZmlsbDojZmZmZmZmO3N0cm9rZS13aWR0aDowLjIzMDcwMiIKICAgICAgICAgICBkPSJtIDEzMi4yOTE2Niw5My45MjcwNzIgdiAyMS4xNjY2NjggaCAxNS44NzUwMSBWIDk5LjIxODc0OCBsIC01LjI5MTY4LC01LjI5MTY3NiB6IiAvPgogICAgICAgIDxwYXRoCiAgICAgICAgICAgaWQ9InBhdGg1ODYyLTEtMS0zLTgtMCIKICAgICAgICAgICBkPSJtIDE0OS40ODk1OCw5Ny44OTU4MzIgYyAwLC0wLjI2NDU3NiAtMC4yNjQ1OCwtMC41MjkxNjQgLTAuNTI5MTcsLTAuNzkzNzUyIGwgLTQuNDk3OTEsLTMuOTY4NzQ4IGMgLTAuMjY0NTgsLTAuMjY0NTg4IC0wLjUyOTE3LC0wLjUyOTE2NCAtMC44Mjc4OCwtMC41MjkxNjQgaCAtMy40MDU0NSAtNy45Mzc1MSBjIC0wLjc5Mzc1LDAgLTEuMzIyOTIsMC41MjkxNjQgLTEuMzIyOTIsMS4zMjI5MTYgMCw3LjA1NTU1NiAwLDE0LjExMTEwNiAwLDIxLjE2NjY2NiAwLDAuNzkzNzUgMC41MjkxNywxLjMyMjkyIDEuMzIyOTIsMS4zMjI5MiBoIDcuOTM3NTEgNy45Mzc1IGMgMC43OTM3NCwwIDEuMzIyOTEsLTAuNTI5MTcgMS4zMjI5MSwtMS4zMjI5MiB6IG0gLTEuMzIyOTEsMTcuMTk3OTE4IEggMTMyLjI5MTY2IFYgOTMuOTI3MDg0IGggMTAuNTgzMzMgdiA0Ljc2MjUgYyAwLDAuMzE3NTA4IDAuMjAzNTMsMC41MjkxNjQgMC41MjkxNywwLjUyOTE2NCBoIDQuNzYyNTEgeiIKICAgICAgICAgICBzdHlsZT0ic3Ryb2tlLXdpZHRoOjAuMjMxNjciIC8+CiAgICAgICAgPHBhdGgKICAgICAgICAgICBpZD0icmVjdDE4MzQ3LTItNS0xLTAtNiIKICAgICAgICAgICBzdHlsZT0iZmlsbC1ydWxlOmV2ZW5vZGQ7c3Ryb2tlLXdpZHRoOjAuMTIyMDI3O3BhaW50LW9yZGVyOmZpbGwgbWFya2VycyBzdHJva2UiCiAgICAgICAgICAgZD0ibSAxMzEuMDE3NTIsMTAxLjg2NDYgYyA2LjE0MTA5LDAgMTIuMjgyMTcsMCAxOC40MjMyNiwwIDAuNzU5OTMsMCAxLjM3MTcxLDAuNDk3MDYgMS4zNzE3MSwxLjExNDUgdiAyLjg1NDIyIDIuODU0MjUgYyAwLDAuNjE3NDQgLTAuNjExNzgsMS4xMTQ1IC0xLjM3MTcxLDEuMTE0NSAtNi4xNDEwOSwwIC0xMi4yODIxNywwIC0xOC40MjMyNiwwIC0wLjc1OTkyLDAgLTEuMzcxNywtMC40OTcwNiAtMS4zNzE3LC0xLjExNDUgdiAtMi44NTQyNSAtMi44NTQyMiBjIDAsLTAuNjE3NDQgMC42MTE3OCwtMS4xMTQ1IDEuMzcxNywtMS4xMTQ1IHoiIC8+CiAgICAgICAgPHRleHQKICAgICAgICAgICB4bWw6c3BhY2U9InByZXNlcnZlIgogICAgICAgICAgIHN0eWxlPSJmb250LXdlaWdodDpib2xkO2ZvbnQtc2l6ZTo1LjI5MTY3cHg7Zm9udC1mYW1pbHk6J01hdmVuIFBybyc7LWlua3NjYXBlLWZvbnQtc3BlY2lmaWNhdGlvbjonTWF2ZW4gUHJvLCBCb2xkJzt0ZXh0LWFsaWduOmNlbnRlcjt0ZXh0LW9yaWVudGF0aW9uOnVwcmlnaHQ7dGV4dC1hbmNob3I6bWlkZGxlO2ZpbGw6I2ZmZmZmZjtmaWxsLW9wYWNpdHk6MTtzdHJva2U6bm9uZTtzdHJva2Utd2lkdGg6MC4yMjc5NTE7c3Ryb2tlLWxpbmVjYXA6cm91bmQ7c3Ryb2tlLWxpbmVqb2luOm1pdGVyO3N0cm9rZS1taXRlcmxpbWl0OjAuNjtzdHJva2UtZGFzaGFycmF5Om5vbmU7c3Ryb2tlLWRhc2hvZmZzZXQ6Mi4wMDAwMTtzdHJva2Utb3BhY2l0eToxO3BhaW50LW9yZGVyOmZpbGwgbWFya2VycyBzdHJva2U7c3RvcC1jb2xvcjojMDAwMDAwIgogICAgICAgICAgIHg9IjE0MC4zMzg5NiIKICAgICAgICAgICB5PSIxMDcuMjExOCIKICAgICAgICAgICBpZD0idGV4dDE4NTY5LTYtNC03LTItNyI+PHRzcGFuCiAgICAgICAgICAgICBpZD0idHNwYW4xODU2Ny00Mi0xLTUtNzEtMCIKICAgICAgICAgICAgIHN0eWxlPSJmaWxsOiNmZmZmZmY7ZmlsbC1vcGFjaXR5OjE7c3Ryb2tlOm5vbmU7c3Ryb2tlLXdpZHRoOjAuMjI3OTUxIgogICAgICAgICAgICAgeD0iMTQwLjMzODk2IgogICAgICAgICAgICAgeT0iMTA3LjIxMTgiPmZhc3RxPC90c3Bhbj48L3RleHQ+CiAgICAgIDwvZz4KICAgICAgPGcKICAgICAgICAgaWQ9ImcxODQ4OC01NC04LTAtOC02LTQiCiAgICAgICAgIHRyYW5zZm9ybT0idHJhbnNsYXRlKDUyLjkxNjY3NSw3LjkzNzUxNjIpIj4KICAgICAgICA8cGF0aAogICAgICAgICAgIGlkPSJwYXRoNjI3Ni00LTQtNi05LTAtMi0zIgogICAgICAgICAgIHN0eWxlPSJmaWxsOiNmZmZmZmY7c3Ryb2tlLXdpZHRoOjAuMjMwNzAyIgogICAgICAgICAgIGQ9Im0gMTMyLjI5MTY2LDkzLjkyNzA3MiB2IDIxLjE2NjY2OCBoIDE1Ljg3NTAxIFYgOTkuMjE4NzQ4IGwgLTUuMjkxNjgsLTUuMjkxNjc2IHoiIC8+CiAgICAgICAgPHBhdGgKICAgICAgICAgICBpZD0icGF0aDU4NjItMS0xLTMtOS04LTAiCiAgICAgICAgICAgZD0ibSAxNDkuNDg5NTgsOTcuODk1ODMyIGMgMCwtMC4yNjQ1NzYgLTAuMjY0NTgsLTAuNTI5MTY0IC0wLjUyOTE3LC0wLjc5Mzc1MiBsIC00LjQ5NzkxLC0zLjk2ODc0OCBjIC0wLjI2NDU4LC0wLjI2NDU4OCAtMC41MjkxNywtMC41MjkxNjQgLTAuODI3ODgsLTAuNTI5MTY0IGggLTMuNDA1NDUgLTcuOTM3NTEgYyAtMC43OTM3NSwwIC0xLjMyMjkyLDAuNTI5MTY0IC0xLjMyMjkyLDEuMzIyOTE2IHYgNy45Mzc0NzYgMTMuMjI5MTkgYyAwLDAuNzkzNzUgMC41MjkxNywxLjMyMjkyIDEuMzIyOTIsMS4zMjI5MiBsIDEwLjU4MzMzLC0zZS01IDUuMjkxNjgsM2UtNSBjIDAuNzkzNzQsMCAxLjMyMjkxLC0wLjUyOTE3IDEuMzIyOTEsLTEuMzIyOTIgeiBtIC0xLjMyMjkxLDE3LjE5NzkxOCBIIDEzMi4yOTE2NiBWIDkzLjkyNzA4NCBoIDEwLjU4MzMzIHYgNC43NjI1IGMgMCwwLjMxNzUwOCAwLjIwMzUzLDAuNTI5MTY0IDAuNTI5MTcsMC41MjkxNjQgaCA0Ljc2MjUxIHoiCiAgICAgICAgICAgc3R5bGU9InN0cm9rZS13aWR0aDowLjIzMTY3IiAvPgogICAgICAgIDxwYXRoCiAgICAgICAgICAgaWQ9InJlY3QxODM0Ny0yLTUtMS02LTItMCIKICAgICAgICAgICBzdHlsZT0iZmlsbC1ydWxlOmV2ZW5vZGQ7c3Ryb2tlLXdpZHRoOjAuMTIyMDI3O3BhaW50LW9yZGVyOmZpbGwgbWFya2VycyBzdHJva2UiCiAgICAgICAgICAgZD0ibSAxMzEuMDE3NTIsMTAxLjg2NDYgYyA2LjE0MTA5LDAgMTIuMjgyMTcsMCAxOC40MjMyNiwwIDAuNzU5OTMsMCAxLjM3MTcxLDAuNDk3MDYgMS4zNzE3MSwxLjExNDUgdiAyLjg1NDIyIDIuODU0MjUgYyAwLDAuNjE3NDQgLTAuNjExNzgsMS4xMTQ1IC0xLjM3MTcxLDEuMTE0NSAtNi4xNDEwOSwwIC0xMi4yODIxNywwIC0xOC40MjMyNiwwIC0wLjc1OTkyLDAgLTEuMzcxNywtMC40OTcwNiAtMS4zNzE3LC0xLjExNDUgdiAtMi44NTQyNSAtMi44NTQyMiBjIDAsLTAuNjE3NDQgMC42MTE3OCwtMS4xMTQ1IDEuMzcxNywtMS4xMTQ1IHoiIC8+CiAgICAgIDwvZz4KICAgIDwvZz4KICA8L2c+Cjwvc3ZnPgo=;" vertex="1" parent="I4KKubXRf7cSkb2UcYBp-15">
          <mxGeometry x="27" y="29.999999999999886" width="100" height="110" as="geometry" />
        </mxCell>
        <mxCell id="I4KKubXRf7cSkb2UcYBp-22" value="&lt;font style=&quot;font-size: 20px;&quot; color=&quot;#ffffff&quot; data-font-src=&quot;https://fonts.googleapis.com/css?family=Maven+Pro&quot; face=&quot;Maven Pro&quot;&gt;&lt;b&gt;fasta&lt;/b&gt;&lt;/font&gt;" style="text;html=1;strokeColor=none;fillColor=none;align=center;verticalAlign=middle;whiteSpace=wrap;rounded=0;" vertex="1" parent="I4KKubXRf7cSkb2UcYBp-15">
          <mxGeometry x="37" y="84.99999999999989" width="60" height="30" as="geometry" />
        </mxCell>
        <mxCell id="I4KKubXRf7cSkb2UcYBp-23" value="&lt;font style=&quot;font-size: 18px;&quot;&gt;&lt;b&gt;Gene sequences&lt;/b&gt;&lt;/font&gt;" style="text;html=1;align=center;verticalAlign=middle;whiteSpace=wrap;rounded=0;" vertex="1" parent="1">
          <mxGeometry x="577" y="350" width="60" height="30" as="geometry" />
        </mxCell>
        <mxCell id="I4KKubXRf7cSkb2UcYBp-26" value="" style="shape=image;verticalLabelPosition=bottom;verticalAlign=top;imageAspect=0;aspect=fixed;image=data:image/svg+xml,PHN2ZyB4bWxucz0iaHR0cDovL3d3dy53My5vcmcvMjAwMC9zdmciIGlkPSJzdmc3MzYyIiB2ZXJzaW9uPSIxLjEiIHZpZXdCb3g9IjAgMCA3LjkzNzQ5NjcgNy45Mzc0OTYyIiBoZWlnaHQ9IjcuOTM3NDk2Mm1tIiB3aWR0aD0iNy45Mzc0OTY3bW0iPiYjeGE7ICAmI3hhOyAgICAmI3hhOyAgJiN4YTsgIDxkZWZzIGlkPSJkZWZzNzM1OSIvPiYjeGE7ICA8ZyB0cmFuc2Zvcm09InRyYW5zbGF0ZSgtMy45ODk0MzAzLC0zMy4wNzI5MjEpIiBpZD0ibGF5ZXI1Ij4mI3hhOyAgICA8ZyBpZD0ibGF5ZXI2Ij4mI3hhOyAgICAgIDxjaXJjbGUgcj0iMi42NDU4MzMzIiBjeT0iMzcuMDQxNjY4IiBjeD0iNy45NTgxNzg1IiBpZD0icGF0aDM0NDciIHN0eWxlPSJmaWxsOiNmZmZmZmY7c3Ryb2tlOiMwMDAwMDA7c3Ryb2tlLXdpZHRoOjIuNjQ1ODM7c3Ryb2tlLWxpbmVjYXA6cm91bmQ7c3Ryb2tlLW1pdGVybGltaXQ6NDtzdHJva2UtZGFzaGFycmF5Om5vbmU7cGFpbnQtb3JkZXI6c3Ryb2tlIG1hcmtlcnMgZmlsbDtzdG9wLWNvbG9yOiMwMDAwMDAiLz4mI3hhOyAgICA8L2c+JiN4YTsgIDwvZz4mI3hhOzwvc3ZnPg==" vertex="1" parent="1">
          <mxGeometry x="730" y="255" width="30" height="30" as="geometry" />
        </mxCell>
        <mxCell id="I4KKubXRf7cSkb2UcYBp-29" value="&lt;font style=&quot;font-size: 18px;&quot;&gt;&lt;b&gt;Align&lt;/b&gt;&lt;/font&gt;" style="text;html=1;align=center;verticalAlign=middle;whiteSpace=wrap;rounded=0;" vertex="1" parent="1">
          <mxGeometry x="715" y="290" width="60" height="40" as="geometry" />
        </mxCell>
        <mxCell id="I4KKubXRf7cSkb2UcYBp-32" value="" style="group" vertex="1" connectable="0" parent="1">
          <mxGeometry x="810" y="200" width="130" height="139.9999999999999" as="geometry" />
        </mxCell>
        <mxCell id="I4KKubXRf7cSkb2UcYBp-33" value="" style="shape=image;aspect=fixed;image=data:image/svg+xml,PD94bWwgdmVyc2lvbj0iMS4wIiBlbmNvZGluZz0iVVRGLTgiIHN0YW5kYWxvbmU9Im5vIj8+CjwhLS0gQ3JlYXRlZCB3aXRoIElua3NjYXBlIChodHRwOi8vd3d3Lmlua3NjYXBlLm9yZy8pIC0tPgoKPHN2ZwogICB3aWR0aD0iMjYuNDU4MzI2bW0iCiAgIGhlaWdodD0iMjkuMTA0Mm1tIgogICB2aWV3Qm94PSIwIDAgMjYuNDU4MzI2IDI5LjEwNDIiCiAgIHZlcnNpb249IjEuMSIKICAgaWQ9InN2ZzczNjIiCiAgIHhtbG5zPSJodHRwOi8vd3d3LnczLm9yZy8yMDAwL3N2ZyIKICAgeG1sbnM6c3ZnPSJodHRwOi8vd3d3LnczLm9yZy8yMDAwL3N2ZyI+CiAgPGRlZnMKICAgICBpZD0iZGVmczczNTkiIC8+CiAgPGcKICAgICBpZD0ibGF5ZXIxIgogICAgIHN0eWxlPSJkaXNwbGF5OmlubGluZSIKICAgICB0cmFuc2Zvcm09InRyYW5zbGF0ZSgzNC4zOTU4MzMsLTE5My4xNDU4NCkiPgogICAgPGcKICAgICAgIGlkPSJnMi0wLTQiCiAgICAgICB0cmFuc2Zvcm09InRyYW5zbGF0ZSgtMjE2Ljk1ODMzLDk3Ljg5NTg0MykiCiAgICAgICBzdHlsZT0iZGlzcGxheTppbmxpbmUiPgogICAgICA8ZwogICAgICAgICBpZD0iZzE4NDg4LTU0LTQtMS01IgogICAgICAgICB0cmFuc2Zvcm09InRyYW5zbGF0ZSg1OC4yMDgzMzQsMi42NDU4MzY5KSI+CiAgICAgICAgPHBhdGgKICAgICAgICAgICBpZD0icGF0aDYyNzYtNC00LTY1LTUtOSIKICAgICAgICAgICBzdHlsZT0iZmlsbDojZmZmZmZmO3N0cm9rZS13aWR0aDowLjIzMDcwMiIKICAgICAgICAgICBkPSJtIDEzMi4yOTE2Niw5My45MjcwNzIgdiAyMS4xNjY2NjggaCAxNS44NzUwMSBWIDk5LjIxODc0OCBsIC01LjI5MTY4LC01LjI5MTY3NiB6IiAvPgogICAgICAgIDxwYXRoCiAgICAgICAgICAgaWQ9InBhdGg1ODYyLTEtMy00LTYiCiAgICAgICAgICAgZD0ibSAxNDkuNDg5NTgsOTcuODk1ODMyIGMgMCwtMC4yNjQ1NzYgLTAuMjY0NTgsLTAuNTI5MTY0IC0wLjUyOTE3LC0wLjc5Mzc1MiBsIC00LjQ5NzkxLC0zLjk2ODc0OCBjIC0wLjI2NDU4LC0wLjI2NDU4OCAtMC41MjkxNywtMC41MjkxNjQgLTAuODI3ODgsLTAuNTI5MTY0IGwgLTYuMDUxMjksLTEuM2UtNSAtNS4yOTE2NywxLjNlLTUgYyAtMC43OTM3NSwyZS02IC0xLjMyMjkyLDAuNTI5MTY0IC0xLjMyMjkyLDEuMzIyOTE2IHYgMjEuMTY2NjY2IGMgMCwwLjc5Mzc1IDAuNTI5MTcsMS4zMjI5MiAxLjMyMjkyLDEuMzIyOTIgaCA3LjkzNzUxIDcuOTM3NSBjIDAuNzkzNzQsMCAxLjMyMjkxLC0wLjUyOTE3IDEuMzIyOTEsLTEuMzIyOTIgeiBtIC0xLjMyMjkxLDE3LjE5NzkxOCBIIDEzMi4yOTE2NiBWIDkzLjkyNzA4NCBoIDEwLjU4MzMzIHYgNC43NjI1IGMgMCwwLjMxNzUwOCAwLjIwMzUzLDAuNTI5MTY0IDAuNTI5MTcsMC41MjkxNjQgaCA0Ljc2MjUxIHoiCiAgICAgICAgICAgc3R5bGU9InN0cm9rZS13aWR0aDowLjIzMTY3IiAvPgogICAgICAgIDxwYXRoCiAgICAgICAgICAgaWQ9InJlY3QxODM0Ny0yLTYtNi0wIgogICAgICAgICAgIHN0eWxlPSJmaWxsLXJ1bGU6ZXZlbm9kZDtzdHJva2Utd2lkdGg6MC4xMjIwMjc7cGFpbnQtb3JkZXI6ZmlsbCBtYXJrZXJzIHN0cm9rZSIKICAgICAgICAgICBkPSJtIDEzMS4wMTc1MiwxMDEuODY0NiBoIDE4LjQyMzI2IGMgMC43NTk5MywwIDEuMzcxNzEsMC40OTcwNiAxLjM3MTcxLDEuMTE0NSB2IDQuMTc3MTQgMS41MzEzMyBjIDAsMC42MTc0NCAtMC42MTE3OCwxLjExNDUgLTEuMzcxNzEsMS4xMTQ1IGggLTE4LjQyMzI2IGMgLTAuNzU5OTIsMCAtMS4zNzE3LC0wLjQ5NzA2IC0xLjM3MTcsLTEuMTE0NSB2IC0yLjg1NDI1IC0yLjg1NDIyIGMgMCwtMC42MTc0NCAwLjYxMTc4LC0xLjExNDUgMS4zNzE3LC0xLjExNDUgeiIgLz4KICAgICAgICA8dGV4dAogICAgICAgICAgIHhtbDpzcGFjZT0icHJlc2VydmUiCiAgICAgICAgICAgc3R5bGU9ImZvbnQtd2VpZ2h0OmJvbGQ7Zm9udC1zaXplOjUuMjkxNjdweDtmb250LWZhbWlseTonTWF2ZW4gUHJvJzstaW5rc2NhcGUtZm9udC1zcGVjaWZpY2F0aW9uOidNYXZlbiBQcm8sIEJvbGQnO3RleHQtYWxpZ246Y2VudGVyO3RleHQtb3JpZW50YXRpb246dXByaWdodDt0ZXh0LWFuY2hvcjptaWRkbGU7ZmlsbDojZmZmZmZmO2ZpbGwtb3BhY2l0eToxO3N0cm9rZTpub25lO3N0cm9rZS13aWR0aDowLjIyNzk1MTtzdHJva2UtbGluZWNhcDpyb3VuZDtzdHJva2UtbGluZWpvaW46bWl0ZXI7c3Ryb2tlLW1pdGVybGltaXQ6MC42O3N0cm9rZS1kYXNoYXJyYXk6bm9uZTtzdHJva2UtZGFzaG9mZnNldDoyLjAwMDAxO3N0cm9rZS1vcGFjaXR5OjE7cGFpbnQtb3JkZXI6ZmlsbCBtYXJrZXJzIHN0cm9rZTtzdG9wLWNvbG9yOiMwMDAwMDAiCiAgICAgICAgICAgeD0iMTQwLjMzODk2IgogICAgICAgICAgIHk9IjEwNy4yMTE4IgogICAgICAgICAgIGlkPSJ0ZXh0MTg1NjktNi00MS0zLTIiPjx0c3BhbgogICAgICAgICAgICAgaWQ9InRzcGFuMTg1NjctNDItNS0xLTYiCiAgICAgICAgICAgICBzdHlsZT0iZmlsbDojZmZmZmZmO2ZpbGwtb3BhY2l0eToxO3N0cm9rZTpub25lO3N0cm9rZS13aWR0aDowLjIyNzk1MSIKICAgICAgICAgICAgIHg9IjE0MC4zMzg5NiIKICAgICAgICAgICAgIHk9IjEwNy4yMTE4Ij5mYXN0cTwvdHNwYW4+PC90ZXh0PgogICAgICA8L2c+CiAgICAgIDxnCiAgICAgICAgIGlkPSJnMTg0ODgtNTQtOC0wLTMtNiIKICAgICAgICAgdHJhbnNmb3JtPSJ0cmFuc2xhdGUoNTUuNTYyNTA0LDUuMjkxNjYyNCkiPgogICAgICAgIDxwYXRoCiAgICAgICAgICAgaWQ9InBhdGg2Mjc2LTQtNC02LTktMDYtMSIKICAgICAgICAgICBzdHlsZT0iZmlsbDojZmZmZmZmO3N0cm9rZS13aWR0aDowLjIzMDcwMiIKICAgICAgICAgICBkPSJtIDEzMi4yOTE2Niw5My45MjcwNzIgdiAyMS4xNjY2NjggaCAxNS44NzUwMSBWIDk5LjIxODc0OCBsIC01LjI5MTY4LC01LjI5MTY3NiB6IiAvPgogICAgICAgIDxwYXRoCiAgICAgICAgICAgaWQ9InBhdGg1ODYyLTEtMS0zLTgtMCIKICAgICAgICAgICBkPSJtIDE0OS40ODk1OCw5Ny44OTU4MzIgYyAwLC0wLjI2NDU3NiAtMC4yNjQ1OCwtMC41MjkxNjQgLTAuNTI5MTcsLTAuNzkzNzUyIGwgLTQuNDk3OTEsLTMuOTY4NzQ4IGMgLTAuMjY0NTgsLTAuMjY0NTg4IC0wLjUyOTE3LC0wLjUyOTE2NCAtMC44Mjc4OCwtMC41MjkxNjQgaCAtMy40MDU0NSAtNy45Mzc1MSBjIC0wLjc5Mzc1LDAgLTEuMzIyOTIsMC41MjkxNjQgLTEuMzIyOTIsMS4zMjI5MTYgMCw3LjA1NTU1NiAwLDE0LjExMTEwNiAwLDIxLjE2NjY2NiAwLDAuNzkzNzUgMC41MjkxNywxLjMyMjkyIDEuMzIyOTIsMS4zMjI5MiBoIDcuOTM3NTEgNy45Mzc1IGMgMC43OTM3NCwwIDEuMzIyOTEsLTAuNTI5MTcgMS4zMjI5MSwtMS4zMjI5MiB6IG0gLTEuMzIyOTEsMTcuMTk3OTE4IEggMTMyLjI5MTY2IFYgOTMuOTI3MDg0IGggMTAuNTgzMzMgdiA0Ljc2MjUgYyAwLDAuMzE3NTA4IDAuMjAzNTMsMC41MjkxNjQgMC41MjkxNywwLjUyOTE2NCBoIDQuNzYyNTEgeiIKICAgICAgICAgICBzdHlsZT0ic3Ryb2tlLXdpZHRoOjAuMjMxNjciIC8+CiAgICAgICAgPHBhdGgKICAgICAgICAgICBpZD0icmVjdDE4MzQ3LTItNS0xLTAtNiIKICAgICAgICAgICBzdHlsZT0iZmlsbC1ydWxlOmV2ZW5vZGQ7c3Ryb2tlLXdpZHRoOjAuMTIyMDI3O3BhaW50LW9yZGVyOmZpbGwgbWFya2VycyBzdHJva2UiCiAgICAgICAgICAgZD0ibSAxMzEuMDE3NTIsMTAxLjg2NDYgYyA2LjE0MTA5LDAgMTIuMjgyMTcsMCAxOC40MjMyNiwwIDAuNzU5OTMsMCAxLjM3MTcxLDAuNDk3MDYgMS4zNzE3MSwxLjExNDUgdiAyLjg1NDIyIDIuODU0MjUgYyAwLDAuNjE3NDQgLTAuNjExNzgsMS4xMTQ1IC0xLjM3MTcxLDEuMTE0NSAtNi4xNDEwOSwwIC0xMi4yODIxNywwIC0xOC40MjMyNiwwIC0wLjc1OTkyLDAgLTEuMzcxNywtMC40OTcwNiAtMS4zNzE3LC0xLjExNDUgdiAtMi44NTQyNSAtMi44NTQyMiBjIDAsLTAuNjE3NDQgMC42MTE3OCwtMS4xMTQ1IDEuMzcxNywtMS4xMTQ1IHoiIC8+CiAgICAgICAgPHRleHQKICAgICAgICAgICB4bWw6c3BhY2U9InByZXNlcnZlIgogICAgICAgICAgIHN0eWxlPSJmb250LXdlaWdodDpib2xkO2ZvbnQtc2l6ZTo1LjI5MTY3cHg7Zm9udC1mYW1pbHk6J01hdmVuIFBybyc7LWlua3NjYXBlLWZvbnQtc3BlY2lmaWNhdGlvbjonTWF2ZW4gUHJvLCBCb2xkJzt0ZXh0LWFsaWduOmNlbnRlcjt0ZXh0LW9yaWVudGF0aW9uOnVwcmlnaHQ7dGV4dC1hbmNob3I6bWlkZGxlO2ZpbGw6I2ZmZmZmZjtmaWxsLW9wYWNpdHk6MTtzdHJva2U6bm9uZTtzdHJva2Utd2lkdGg6MC4yMjc5NTE7c3Ryb2tlLWxpbmVjYXA6cm91bmQ7c3Ryb2tlLWxpbmVqb2luOm1pdGVyO3N0cm9rZS1taXRlcmxpbWl0OjAuNjtzdHJva2UtZGFzaGFycmF5Om5vbmU7c3Ryb2tlLWRhc2hvZmZzZXQ6Mi4wMDAwMTtzdHJva2Utb3BhY2l0eToxO3BhaW50LW9yZGVyOmZpbGwgbWFya2VycyBzdHJva2U7c3RvcC1jb2xvcjojMDAwMDAwIgogICAgICAgICAgIHg9IjE0MC4zMzg5NiIKICAgICAgICAgICB5PSIxMDcuMjExOCIKICAgICAgICAgICBpZD0idGV4dDE4NTY5LTYtNC03LTItNyI+PHRzcGFuCiAgICAgICAgICAgICBpZD0idHNwYW4xODU2Ny00Mi0xLTUtNzEtMCIKICAgICAgICAgICAgIHN0eWxlPSJmaWxsOiNmZmZmZmY7ZmlsbC1vcGFjaXR5OjE7c3Ryb2tlOm5vbmU7c3Ryb2tlLXdpZHRoOjAuMjI3OTUxIgogICAgICAgICAgICAgeD0iMTQwLjMzODk2IgogICAgICAgICAgICAgeT0iMTA3LjIxMTgiPmZhc3RxPC90c3Bhbj48L3RleHQ+CiAgICAgIDwvZz4KICAgICAgPGcKICAgICAgICAgaWQ9ImcxODQ4OC01NC04LTAtOC02LTQiCiAgICAgICAgIHRyYW5zZm9ybT0idHJhbnNsYXRlKDUyLjkxNjY3NSw3LjkzNzUxNjIpIj4KICAgICAgICA8cGF0aAogICAgICAgICAgIGlkPSJwYXRoNjI3Ni00LTQtNi05LTAtMi0zIgogICAgICAgICAgIHN0eWxlPSJmaWxsOiNmZmZmZmY7c3Ryb2tlLXdpZHRoOjAuMjMwNzAyIgogICAgICAgICAgIGQ9Im0gMTMyLjI5MTY2LDkzLjkyNzA3MiB2IDIxLjE2NjY2OCBoIDE1Ljg3NTAxIFYgOTkuMjE4NzQ4IGwgLTUuMjkxNjgsLTUuMjkxNjc2IHoiIC8+CiAgICAgICAgPHBhdGgKICAgICAgICAgICBpZD0icGF0aDU4NjItMS0xLTMtOS04LTAiCiAgICAgICAgICAgZD0ibSAxNDkuNDg5NTgsOTcuODk1ODMyIGMgMCwtMC4yNjQ1NzYgLTAuMjY0NTgsLTAuNTI5MTY0IC0wLjUyOTE3LC0wLjc5Mzc1MiBsIC00LjQ5NzkxLC0zLjk2ODc0OCBjIC0wLjI2NDU4LC0wLjI2NDU4OCAtMC41MjkxNywtMC41MjkxNjQgLTAuODI3ODgsLTAuNTI5MTY0IGggLTMuNDA1NDUgLTcuOTM3NTEgYyAtMC43OTM3NSwwIC0xLjMyMjkyLDAuNTI5MTY0IC0xLjMyMjkyLDEuMzIyOTE2IHYgNy45Mzc0NzYgMTMuMjI5MTkgYyAwLDAuNzkzNzUgMC41MjkxNywxLjMyMjkyIDEuMzIyOTIsMS4zMjI5MiBsIDEwLjU4MzMzLC0zZS01IDUuMjkxNjgsM2UtNSBjIDAuNzkzNzQsMCAxLjMyMjkxLC0wLjUyOTE3IDEuMzIyOTEsLTEuMzIyOTIgeiBtIC0xLjMyMjkxLDE3LjE5NzkxOCBIIDEzMi4yOTE2NiBWIDkzLjkyNzA4NCBoIDEwLjU4MzMzIHYgNC43NjI1IGMgMCwwLjMxNzUwOCAwLjIwMzUzLDAuNTI5MTY0IDAuNTI5MTcsMC41MjkxNjQgaCA0Ljc2MjUxIHoiCiAgICAgICAgICAgc3R5bGU9InN0cm9rZS13aWR0aDowLjIzMTY3IiAvPgogICAgICAgIDxwYXRoCiAgICAgICAgICAgaWQ9InJlY3QxODM0Ny0yLTUtMS02LTItMCIKICAgICAgICAgICBzdHlsZT0iZmlsbC1ydWxlOmV2ZW5vZGQ7c3Ryb2tlLXdpZHRoOjAuMTIyMDI3O3BhaW50LW9yZGVyOmZpbGwgbWFya2VycyBzdHJva2UiCiAgICAgICAgICAgZD0ibSAxMzEuMDE3NTIsMTAxLjg2NDYgYyA2LjE0MTA5LDAgMTIuMjgyMTcsMCAxOC40MjMyNiwwIDAuNzU5OTMsMCAxLjM3MTcxLDAuNDk3MDYgMS4zNzE3MSwxLjExNDUgdiAyLjg1NDIyIDIuODU0MjUgYyAwLDAuNjE3NDQgLTAuNjExNzgsMS4xMTQ1IC0xLjM3MTcxLDEuMTE0NSAtNi4xNDEwOSwwIC0xMi4yODIxNywwIC0xOC40MjMyNiwwIC0wLjc1OTkyLDAgLTEuMzcxNywtMC40OTcwNiAtMS4zNzE3LC0xLjExNDUgdiAtMi44NTQyNSAtMi44NTQyMiBjIDAsLTAuNjE3NDQgMC42MTE3OCwtMS4xMTQ1IDEuMzcxNywtMS4xMTQ1IHoiIC8+CiAgICAgIDwvZz4KICAgIDwvZz4KICA8L2c+Cjwvc3ZnPgo=;" vertex="1" parent="I4KKubXRf7cSkb2UcYBp-32">
          <mxGeometry width="100" height="110" as="geometry" />
        </mxCell>
        <mxCell id="I4KKubXRf7cSkb2UcYBp-34" value="" style="shape=image;aspect=fixed;image=data:image/svg+xml,PD94bWwgdmVyc2lvbj0iMS4wIiBlbmNvZGluZz0iVVRGLTgiIHN0YW5kYWxvbmU9Im5vIj8+CjwhLS0gQ3JlYXRlZCB3aXRoIElua3NjYXBlIChodHRwOi8vd3d3Lmlua3NjYXBlLm9yZy8pIC0tPgoKPHN2ZwogICB3aWR0aD0iMjYuNDU4MzI2bW0iCiAgIGhlaWdodD0iMjkuMTA0Mm1tIgogICB2aWV3Qm94PSIwIDAgMjYuNDU4MzI2IDI5LjEwNDIiCiAgIHZlcnNpb249IjEuMSIKICAgaWQ9InN2ZzczNjIiCiAgIHhtbG5zPSJodHRwOi8vd3d3LnczLm9yZy8yMDAwL3N2ZyIKICAgeG1sbnM6c3ZnPSJodHRwOi8vd3d3LnczLm9yZy8yMDAwL3N2ZyI+CiAgPGRlZnMKICAgICBpZD0iZGVmczczNTkiIC8+CiAgPGcKICAgICBpZD0ibGF5ZXIxIgogICAgIHN0eWxlPSJkaXNwbGF5OmlubGluZSIKICAgICB0cmFuc2Zvcm09InRyYW5zbGF0ZSgzNC4zOTU4MzMsLTE5My4xNDU4NCkiPgogICAgPGcKICAgICAgIGlkPSJnMi0wLTQiCiAgICAgICB0cmFuc2Zvcm09InRyYW5zbGF0ZSgtMjE2Ljk1ODMzLDk3Ljg5NTg0MykiCiAgICAgICBzdHlsZT0iZGlzcGxheTppbmxpbmUiPgogICAgICA8ZwogICAgICAgICBpZD0iZzE4NDg4LTU0LTQtMS01IgogICAgICAgICB0cmFuc2Zvcm09InRyYW5zbGF0ZSg1OC4yMDgzMzQsMi42NDU4MzY5KSI+CiAgICAgICAgPHBhdGgKICAgICAgICAgICBpZD0icGF0aDYyNzYtNC00LTY1LTUtOSIKICAgICAgICAgICBzdHlsZT0iZmlsbDojZmZmZmZmO3N0cm9rZS13aWR0aDowLjIzMDcwMiIKICAgICAgICAgICBkPSJtIDEzMi4yOTE2Niw5My45MjcwNzIgdiAyMS4xNjY2NjggaCAxNS44NzUwMSBWIDk5LjIxODc0OCBsIC01LjI5MTY4LC01LjI5MTY3NiB6IiAvPgogICAgICAgIDxwYXRoCiAgICAgICAgICAgaWQ9InBhdGg1ODYyLTEtMy00LTYiCiAgICAgICAgICAgZD0ibSAxNDkuNDg5NTgsOTcuODk1ODMyIGMgMCwtMC4yNjQ1NzYgLTAuMjY0NTgsLTAuNTI5MTY0IC0wLjUyOTE3LC0wLjc5Mzc1MiBsIC00LjQ5NzkxLC0zLjk2ODc0OCBjIC0wLjI2NDU4LC0wLjI2NDU4OCAtMC41MjkxNywtMC41MjkxNjQgLTAuODI3ODgsLTAuNTI5MTY0IGwgLTYuMDUxMjksLTEuM2UtNSAtNS4yOTE2NywxLjNlLTUgYyAtMC43OTM3NSwyZS02IC0xLjMyMjkyLDAuNTI5MTY0IC0xLjMyMjkyLDEuMzIyOTE2IHYgMjEuMTY2NjY2IGMgMCwwLjc5Mzc1IDAuNTI5MTcsMS4zMjI5MiAxLjMyMjkyLDEuMzIyOTIgaCA3LjkzNzUxIDcuOTM3NSBjIDAuNzkzNzQsMCAxLjMyMjkxLC0wLjUyOTE3IDEuMzIyOTEsLTEuMzIyOTIgeiBtIC0xLjMyMjkxLDE3LjE5NzkxOCBIIDEzMi4yOTE2NiBWIDkzLjkyNzA4NCBoIDEwLjU4MzMzIHYgNC43NjI1IGMgMCwwLjMxNzUwOCAwLjIwMzUzLDAuNTI5MTY0IDAuNTI5MTcsMC41MjkxNjQgaCA0Ljc2MjUxIHoiCiAgICAgICAgICAgc3R5bGU9InN0cm9rZS13aWR0aDowLjIzMTY3IiAvPgogICAgICAgIDxwYXRoCiAgICAgICAgICAgaWQ9InJlY3QxODM0Ny0yLTYtNi0wIgogICAgICAgICAgIHN0eWxlPSJmaWxsLXJ1bGU6ZXZlbm9kZDtzdHJva2Utd2lkdGg6MC4xMjIwMjc7cGFpbnQtb3JkZXI6ZmlsbCBtYXJrZXJzIHN0cm9rZSIKICAgICAgICAgICBkPSJtIDEzMS4wMTc1MiwxMDEuODY0NiBoIDE4LjQyMzI2IGMgMC43NTk5MywwIDEuMzcxNzEsMC40OTcwNiAxLjM3MTcxLDEuMTE0NSB2IDQuMTc3MTQgMS41MzEzMyBjIDAsMC42MTc0NCAtMC42MTE3OCwxLjExNDUgLTEuMzcxNzEsMS4xMTQ1IGggLTE4LjQyMzI2IGMgLTAuNzU5OTIsMCAtMS4zNzE3LC0wLjQ5NzA2IC0xLjM3MTcsLTEuMTE0NSB2IC0yLjg1NDI1IC0yLjg1NDIyIGMgMCwtMC42MTc0NCAwLjYxMTc4LC0xLjExNDUgMS4zNzE3LC0xLjExNDUgeiIgLz4KICAgICAgICA8dGV4dAogICAgICAgICAgIHhtbDpzcGFjZT0icHJlc2VydmUiCiAgICAgICAgICAgc3R5bGU9ImZvbnQtd2VpZ2h0OmJvbGQ7Zm9udC1zaXplOjUuMjkxNjdweDtmb250LWZhbWlseTonTWF2ZW4gUHJvJzstaW5rc2NhcGUtZm9udC1zcGVjaWZpY2F0aW9uOidNYXZlbiBQcm8sIEJvbGQnO3RleHQtYWxpZ246Y2VudGVyO3RleHQtb3JpZW50YXRpb246dXByaWdodDt0ZXh0LWFuY2hvcjptaWRkbGU7ZmlsbDojZmZmZmZmO2ZpbGwtb3BhY2l0eToxO3N0cm9rZTpub25lO3N0cm9rZS13aWR0aDowLjIyNzk1MTtzdHJva2UtbGluZWNhcDpyb3VuZDtzdHJva2UtbGluZWpvaW46bWl0ZXI7c3Ryb2tlLW1pdGVybGltaXQ6MC42O3N0cm9rZS1kYXNoYXJyYXk6bm9uZTtzdHJva2UtZGFzaG9mZnNldDoyLjAwMDAxO3N0cm9rZS1vcGFjaXR5OjE7cGFpbnQtb3JkZXI6ZmlsbCBtYXJrZXJzIHN0cm9rZTtzdG9wLWNvbG9yOiMwMDAwMDAiCiAgICAgICAgICAgeD0iMTQwLjMzODk2IgogICAgICAgICAgIHk9IjEwNy4yMTE4IgogICAgICAgICAgIGlkPSJ0ZXh0MTg1NjktNi00MS0zLTIiPjx0c3BhbgogICAgICAgICAgICAgaWQ9InRzcGFuMTg1NjctNDItNS0xLTYiCiAgICAgICAgICAgICBzdHlsZT0iZmlsbDojZmZmZmZmO2ZpbGwtb3BhY2l0eToxO3N0cm9rZTpub25lO3N0cm9rZS13aWR0aDowLjIyNzk1MSIKICAgICAgICAgICAgIHg9IjE0MC4zMzg5NiIKICAgICAgICAgICAgIHk9IjEwNy4yMTE4Ij5mYXN0cTwvdHNwYW4+PC90ZXh0PgogICAgICA8L2c+CiAgICAgIDxnCiAgICAgICAgIGlkPSJnMTg0ODgtNTQtOC0wLTMtNiIKICAgICAgICAgdHJhbnNmb3JtPSJ0cmFuc2xhdGUoNTUuNTYyNTA0LDUuMjkxNjYyNCkiPgogICAgICAgIDxwYXRoCiAgICAgICAgICAgaWQ9InBhdGg2Mjc2LTQtNC02LTktMDYtMSIKICAgICAgICAgICBzdHlsZT0iZmlsbDojZmZmZmZmO3N0cm9rZS13aWR0aDowLjIzMDcwMiIKICAgICAgICAgICBkPSJtIDEzMi4yOTE2Niw5My45MjcwNzIgdiAyMS4xNjY2NjggaCAxNS44NzUwMSBWIDk5LjIxODc0OCBsIC01LjI5MTY4LC01LjI5MTY3NiB6IiAvPgogICAgICAgIDxwYXRoCiAgICAgICAgICAgaWQ9InBhdGg1ODYyLTEtMS0zLTgtMCIKICAgICAgICAgICBkPSJtIDE0OS40ODk1OCw5Ny44OTU4MzIgYyAwLC0wLjI2NDU3NiAtMC4yNjQ1OCwtMC41MjkxNjQgLTAuNTI5MTcsLTAuNzkzNzUyIGwgLTQuNDk3OTEsLTMuOTY4NzQ4IGMgLTAuMjY0NTgsLTAuMjY0NTg4IC0wLjUyOTE3LC0wLjUyOTE2NCAtMC44Mjc4OCwtMC41MjkxNjQgaCAtMy40MDU0NSAtNy45Mzc1MSBjIC0wLjc5Mzc1LDAgLTEuMzIyOTIsMC41MjkxNjQgLTEuMzIyOTIsMS4zMjI5MTYgMCw3LjA1NTU1NiAwLDE0LjExMTEwNiAwLDIxLjE2NjY2NiAwLDAuNzkzNzUgMC41MjkxNywxLjMyMjkyIDEuMzIyOTIsMS4zMjI5MiBoIDcuOTM3NTEgNy45Mzc1IGMgMC43OTM3NCwwIDEuMzIyOTEsLTAuNTI5MTcgMS4zMjI5MSwtMS4zMjI5MiB6IG0gLTEuMzIyOTEsMTcuMTk3OTE4IEggMTMyLjI5MTY2IFYgOTMuOTI3MDg0IGggMTAuNTgzMzMgdiA0Ljc2MjUgYyAwLDAuMzE3NTA4IDAuMjAzNTMsMC41MjkxNjQgMC41MjkxNywwLjUyOTE2NCBoIDQuNzYyNTEgeiIKICAgICAgICAgICBzdHlsZT0ic3Ryb2tlLXdpZHRoOjAuMjMxNjciIC8+CiAgICAgICAgPHBhdGgKICAgICAgICAgICBpZD0icmVjdDE4MzQ3LTItNS0xLTAtNiIKICAgICAgICAgICBzdHlsZT0iZmlsbC1ydWxlOmV2ZW5vZGQ7c3Ryb2tlLXdpZHRoOjAuMTIyMDI3O3BhaW50LW9yZGVyOmZpbGwgbWFya2VycyBzdHJva2UiCiAgICAgICAgICAgZD0ibSAxMzEuMDE3NTIsMTAxLjg2NDYgYyA2LjE0MTA5LDAgMTIuMjgyMTcsMCAxOC40MjMyNiwwIDAuNzU5OTMsMCAxLjM3MTcxLDAuNDk3MDYgMS4zNzE3MSwxLjExNDUgdiAyLjg1NDIyIDIuODU0MjUgYyAwLDAuNjE3NDQgLTAuNjExNzgsMS4xMTQ1IC0xLjM3MTcxLDEuMTE0NSAtNi4xNDEwOSwwIC0xMi4yODIxNywwIC0xOC40MjMyNiwwIC0wLjc1OTkyLDAgLTEuMzcxNywtMC40OTcwNiAtMS4zNzE3LC0xLjExNDUgdiAtMi44NTQyNSAtMi44NTQyMiBjIDAsLTAuNjE3NDQgMC42MTE3OCwtMS4xMTQ1IDEuMzcxNywtMS4xMTQ1IHoiIC8+CiAgICAgICAgPHRleHQKICAgICAgICAgICB4bWw6c3BhY2U9InByZXNlcnZlIgogICAgICAgICAgIHN0eWxlPSJmb250LXdlaWdodDpib2xkO2ZvbnQtc2l6ZTo1LjI5MTY3cHg7Zm9udC1mYW1pbHk6J01hdmVuIFBybyc7LWlua3NjYXBlLWZvbnQtc3BlY2lmaWNhdGlvbjonTWF2ZW4gUHJvLCBCb2xkJzt0ZXh0LWFsaWduOmNlbnRlcjt0ZXh0LW9yaWVudGF0aW9uOnVwcmlnaHQ7dGV4dC1hbmNob3I6bWlkZGxlO2ZpbGw6I2ZmZmZmZjtmaWxsLW9wYWNpdHk6MTtzdHJva2U6bm9uZTtzdHJva2Utd2lkdGg6MC4yMjc5NTE7c3Ryb2tlLWxpbmVjYXA6cm91bmQ7c3Ryb2tlLWxpbmVqb2luOm1pdGVyO3N0cm9rZS1taXRlcmxpbWl0OjAuNjtzdHJva2UtZGFzaGFycmF5Om5vbmU7c3Ryb2tlLWRhc2hvZmZzZXQ6Mi4wMDAwMTtzdHJva2Utb3BhY2l0eToxO3BhaW50LW9yZGVyOmZpbGwgbWFya2VycyBzdHJva2U7c3RvcC1jb2xvcjojMDAwMDAwIgogICAgICAgICAgIHg9IjE0MC4zMzg5NiIKICAgICAgICAgICB5PSIxMDcuMjExOCIKICAgICAgICAgICBpZD0idGV4dDE4NTY5LTYtNC03LTItNyI+PHRzcGFuCiAgICAgICAgICAgICBpZD0idHNwYW4xODU2Ny00Mi0xLTUtNzEtMCIKICAgICAgICAgICAgIHN0eWxlPSJmaWxsOiNmZmZmZmY7ZmlsbC1vcGFjaXR5OjE7c3Ryb2tlOm5vbmU7c3Ryb2tlLXdpZHRoOjAuMjI3OTUxIgogICAgICAgICAgICAgeD0iMTQwLjMzODk2IgogICAgICAgICAgICAgeT0iMTA3LjIxMTgiPmZhc3RxPC90c3Bhbj48L3RleHQ+CiAgICAgIDwvZz4KICAgICAgPGcKICAgICAgICAgaWQ9ImcxODQ4OC01NC04LTAtOC02LTQiCiAgICAgICAgIHRyYW5zZm9ybT0idHJhbnNsYXRlKDUyLjkxNjY3NSw3LjkzNzUxNjIpIj4KICAgICAgICA8cGF0aAogICAgICAgICAgIGlkPSJwYXRoNjI3Ni00LTQtNi05LTAtMi0zIgogICAgICAgICAgIHN0eWxlPSJmaWxsOiNmZmZmZmY7c3Ryb2tlLXdpZHRoOjAuMjMwNzAyIgogICAgICAgICAgIGQ9Im0gMTMyLjI5MTY2LDkzLjkyNzA3MiB2IDIxLjE2NjY2OCBoIDE1Ljg3NTAxIFYgOTkuMjE4NzQ4IGwgLTUuMjkxNjgsLTUuMjkxNjc2IHoiIC8+CiAgICAgICAgPHBhdGgKICAgICAgICAgICBpZD0icGF0aDU4NjItMS0xLTMtOS04LTAiCiAgICAgICAgICAgZD0ibSAxNDkuNDg5NTgsOTcuODk1ODMyIGMgMCwtMC4yNjQ1NzYgLTAuMjY0NTgsLTAuNTI5MTY0IC0wLjUyOTE3LC0wLjc5Mzc1MiBsIC00LjQ5NzkxLC0zLjk2ODc0OCBjIC0wLjI2NDU4LC0wLjI2NDU4OCAtMC41MjkxNywtMC41MjkxNjQgLTAuODI3ODgsLTAuNTI5MTY0IGggLTMuNDA1NDUgLTcuOTM3NTEgYyAtMC43OTM3NSwwIC0xLjMyMjkyLDAuNTI5MTY0IC0xLjMyMjkyLDEuMzIyOTE2IHYgNy45Mzc0NzYgMTMuMjI5MTkgYyAwLDAuNzkzNzUgMC41MjkxNywxLjMyMjkyIDEuMzIyOTIsMS4zMjI5MiBsIDEwLjU4MzMzLC0zZS01IDUuMjkxNjgsM2UtNSBjIDAuNzkzNzQsMCAxLjMyMjkxLC0wLjUyOTE3IDEuMzIyOTEsLTEuMzIyOTIgeiBtIC0xLjMyMjkxLDE3LjE5NzkxOCBIIDEzMi4yOTE2NiBWIDkzLjkyNzA4NCBoIDEwLjU4MzMzIHYgNC43NjI1IGMgMCwwLjMxNzUwOCAwLjIwMzUzLDAuNTI5MTY0IDAuNTI5MTcsMC41MjkxNjQgaCA0Ljc2MjUxIHoiCiAgICAgICAgICAgc3R5bGU9InN0cm9rZS13aWR0aDowLjIzMTY3IiAvPgogICAgICAgIDxwYXRoCiAgICAgICAgICAgaWQ9InJlY3QxODM0Ny0yLTUtMS02LTItMCIKICAgICAgICAgICBzdHlsZT0iZmlsbC1ydWxlOmV2ZW5vZGQ7c3Ryb2tlLXdpZHRoOjAuMTIyMDI3O3BhaW50LW9yZGVyOmZpbGwgbWFya2VycyBzdHJva2UiCiAgICAgICAgICAgZD0ibSAxMzEuMDE3NTIsMTAxLjg2NDYgYyA2LjE0MTA5LDAgMTIuMjgyMTcsMCAxOC40MjMyNiwwIDAuNzU5OTMsMCAxLjM3MTcxLDAuNDk3MDYgMS4zNzE3MSwxLjExNDUgdiAyLjg1NDIyIDIuODU0MjUgYyAwLDAuNjE3NDQgLTAuNjExNzgsMS4xMTQ1IC0xLjM3MTcxLDEuMTE0NSAtNi4xNDEwOSwwIC0xMi4yODIxNywwIC0xOC40MjMyNiwwIC0wLjc1OTkyLDAgLTEuMzcxNywtMC40OTcwNiAtMS4zNzE3LC0xLjExNDUgdiAtMi44NTQyNSAtMi44NTQyMiBjIDAsLTAuNjE3NDQgMC42MTE3OCwtMS4xMTQ1IDEuMzcxNywtMS4xMTQ1IHoiIC8+CiAgICAgIDwvZz4KICAgIDwvZz4KICA8L2c+Cjwvc3ZnPgo=;" vertex="1" parent="I4KKubXRf7cSkb2UcYBp-32">
          <mxGeometry x="27" y="29.999999999999886" width="100" height="110" as="geometry" />
        </mxCell>
        <mxCell id="I4KKubXRf7cSkb2UcYBp-35" value="&lt;font style=&quot;font-size: 20px;&quot; color=&quot;#ffffff&quot; data-font-src=&quot;https://fonts.googleapis.com/css?family=Maven+Pro&quot; face=&quot;Maven Pro&quot;&gt;&lt;b&gt;fasta&lt;/b&gt;&lt;/font&gt;" style="text;html=1;strokeColor=none;fillColor=none;align=center;verticalAlign=middle;whiteSpace=wrap;rounded=0;" vertex="1" parent="I4KKubXRf7cSkb2UcYBp-32">
          <mxGeometry x="37" y="84.99999999999989" width="60" height="30" as="geometry" />
        </mxCell>
        <mxCell id="I4KKubXRf7cSkb2UcYBp-36" value="&lt;div&gt;&lt;font style=&quot;font-size: 18px;&quot;&gt;&lt;b&gt;Gene alignments&lt;/b&gt;&lt;/font&gt;&lt;/div&gt;" style="text;html=1;align=center;verticalAlign=middle;whiteSpace=wrap;rounded=0;" vertex="1" parent="1">
          <mxGeometry x="847" y="349.9999999999999" width="60" height="30" as="geometry" />
        </mxCell>
        <mxCell id="I4KKubXRf7cSkb2UcYBp-37" value="" style="endArrow=none;html=1;rounded=0;strokeWidth=10;strokeColor=#24b064;" edge="1" parent="1">
          <mxGeometry width="50" height="50" relative="1" as="geometry">
            <mxPoint x="1020" y="269.5" as="sourcePoint" />
            <mxPoint x="1085" y="269.5" as="targetPoint" />
          </mxGeometry>
        </mxCell>
        <mxCell id="I4KKubXRf7cSkb2UcYBp-39" value="" style="shape=image;verticalLabelPosition=bottom;verticalAlign=top;imageAspect=0;aspect=fixed;image=data:image/svg+xml,PHN2ZyB4bWxucz0iaHR0cDovL3d3dy53My5vcmcvMjAwMC9zdmciIGlkPSJzdmc3MzYyIiB2ZXJzaW9uPSIxLjEiIHZpZXdCb3g9IjAgMCA3LjkzNzQ5NjcgNy45Mzc0OTYyIiBoZWlnaHQ9IjcuOTM3NDk2Mm1tIiB3aWR0aD0iNy45Mzc0OTY3bW0iPiYjeGE7ICAmI3hhOyAgICAmI3hhOyAgJiN4YTsgIDxkZWZzIGlkPSJkZWZzNzM1OSIvPiYjeGE7ICA8ZyB0cmFuc2Zvcm09InRyYW5zbGF0ZSgtMy45ODk0MzAzLC0zMy4wNzI5MjEpIiBpZD0ibGF5ZXI1Ij4mI3hhOyAgICA8ZyBpZD0ibGF5ZXI2Ij4mI3hhOyAgICAgIDxjaXJjbGUgcj0iMi42NDU4MzMzIiBjeT0iMzcuMDQxNjY4IiBjeD0iNy45NTgxNzg1IiBpZD0icGF0aDM0NDciIHN0eWxlPSJmaWxsOiNmZmZmZmY7c3Ryb2tlOiMwMDAwMDA7c3Ryb2tlLXdpZHRoOjIuNjQ1ODM7c3Ryb2tlLWxpbmVjYXA6cm91bmQ7c3Ryb2tlLW1pdGVybGltaXQ6NDtzdHJva2UtZGFzaGFycmF5Om5vbmU7cGFpbnQtb3JkZXI6c3Ryb2tlIG1hcmtlcnMgZmlsbDtzdG9wLWNvbG9yOiMwMDAwMDAiLz4mI3hhOyAgICA8L2c+JiN4YTsgIDwvZz4mI3hhOzwvc3ZnPg==" vertex="1" parent="1">
          <mxGeometry x="1000" y="255" width="30" height="30" as="geometry" />
        </mxCell>
        <mxCell id="I4KKubXRf7cSkb2UcYBp-40" value="" style="group" vertex="1" connectable="0" parent="1">
          <mxGeometry x="1080" y="200" width="130" height="139.9999999999999" as="geometry" />
        </mxCell>
        <mxCell id="I4KKubXRf7cSkb2UcYBp-41" value="" style="shape=image;aspect=fixed;image=data:image/svg+xml,PD94bWwgdmVyc2lvbj0iMS4wIiBlbmNvZGluZz0iVVRGLTgiIHN0YW5kYWxvbmU9Im5vIj8+CjwhLS0gQ3JlYXRlZCB3aXRoIElua3NjYXBlIChodHRwOi8vd3d3Lmlua3NjYXBlLm9yZy8pIC0tPgoKPHN2ZwogICB3aWR0aD0iMjYuNDU4MzI2bW0iCiAgIGhlaWdodD0iMjkuMTA0Mm1tIgogICB2aWV3Qm94PSIwIDAgMjYuNDU4MzI2IDI5LjEwNDIiCiAgIHZlcnNpb249IjEuMSIKICAgaWQ9InN2ZzczNjIiCiAgIHhtbG5zPSJodHRwOi8vd3d3LnczLm9yZy8yMDAwL3N2ZyIKICAgeG1sbnM6c3ZnPSJodHRwOi8vd3d3LnczLm9yZy8yMDAwL3N2ZyI+CiAgPGRlZnMKICAgICBpZD0iZGVmczczNTkiIC8+CiAgPGcKICAgICBpZD0ibGF5ZXIxIgogICAgIHN0eWxlPSJkaXNwbGF5OmlubGluZSIKICAgICB0cmFuc2Zvcm09InRyYW5zbGF0ZSgzNC4zOTU4MzMsLTE5My4xNDU4NCkiPgogICAgPGcKICAgICAgIGlkPSJnMi0wLTQiCiAgICAgICB0cmFuc2Zvcm09InRyYW5zbGF0ZSgtMjE2Ljk1ODMzLDk3Ljg5NTg0MykiCiAgICAgICBzdHlsZT0iZGlzcGxheTppbmxpbmUiPgogICAgICA8ZwogICAgICAgICBpZD0iZzE4NDg4LTU0LTQtMS01IgogICAgICAgICB0cmFuc2Zvcm09InRyYW5zbGF0ZSg1OC4yMDgzMzQsMi42NDU4MzY5KSI+CiAgICAgICAgPHBhdGgKICAgICAgICAgICBpZD0icGF0aDYyNzYtNC00LTY1LTUtOSIKICAgICAgICAgICBzdHlsZT0iZmlsbDojZmZmZmZmO3N0cm9rZS13aWR0aDowLjIzMDcwMiIKICAgICAgICAgICBkPSJtIDEzMi4yOTE2Niw5My45MjcwNzIgdiAyMS4xNjY2NjggaCAxNS44NzUwMSBWIDk5LjIxODc0OCBsIC01LjI5MTY4LC01LjI5MTY3NiB6IiAvPgogICAgICAgIDxwYXRoCiAgICAgICAgICAgaWQ9InBhdGg1ODYyLTEtMy00LTYiCiAgICAgICAgICAgZD0ibSAxNDkuNDg5NTgsOTcuODk1ODMyIGMgMCwtMC4yNjQ1NzYgLTAuMjY0NTgsLTAuNTI5MTY0IC0wLjUyOTE3LC0wLjc5Mzc1MiBsIC00LjQ5NzkxLC0zLjk2ODc0OCBjIC0wLjI2NDU4LC0wLjI2NDU4OCAtMC41MjkxNywtMC41MjkxNjQgLTAuODI3ODgsLTAuNTI5MTY0IGwgLTYuMDUxMjksLTEuM2UtNSAtNS4yOTE2NywxLjNlLTUgYyAtMC43OTM3NSwyZS02IC0xLjMyMjkyLDAuNTI5MTY0IC0xLjMyMjkyLDEuMzIyOTE2IHYgMjEuMTY2NjY2IGMgMCwwLjc5Mzc1IDAuNTI5MTcsMS4zMjI5MiAxLjMyMjkyLDEuMzIyOTIgaCA3LjkzNzUxIDcuOTM3NSBjIDAuNzkzNzQsMCAxLjMyMjkxLC0wLjUyOTE3IDEuMzIyOTEsLTEuMzIyOTIgeiBtIC0xLjMyMjkxLDE3LjE5NzkxOCBIIDEzMi4yOTE2NiBWIDkzLjkyNzA4NCBoIDEwLjU4MzMzIHYgNC43NjI1IGMgMCwwLjMxNzUwOCAwLjIwMzUzLDAuNTI5MTY0IDAuNTI5MTcsMC41MjkxNjQgaCA0Ljc2MjUxIHoiCiAgICAgICAgICAgc3R5bGU9InN0cm9rZS13aWR0aDowLjIzMTY3IiAvPgogICAgICAgIDxwYXRoCiAgICAgICAgICAgaWQ9InJlY3QxODM0Ny0yLTYtNi0wIgogICAgICAgICAgIHN0eWxlPSJmaWxsLXJ1bGU6ZXZlbm9kZDtzdHJva2Utd2lkdGg6MC4xMjIwMjc7cGFpbnQtb3JkZXI6ZmlsbCBtYXJrZXJzIHN0cm9rZSIKICAgICAgICAgICBkPSJtIDEzMS4wMTc1MiwxMDEuODY0NiBoIDE4LjQyMzI2IGMgMC43NTk5MywwIDEuMzcxNzEsMC40OTcwNiAxLjM3MTcxLDEuMTE0NSB2IDQuMTc3MTQgMS41MzEzMyBjIDAsMC42MTc0NCAtMC42MTE3OCwxLjExNDUgLTEuMzcxNzEsMS4xMTQ1IGggLTE4LjQyMzI2IGMgLTAuNzU5OTIsMCAtMS4zNzE3LC0wLjQ5NzA2IC0xLjM3MTcsLTEuMTE0NSB2IC0yLjg1NDI1IC0yLjg1NDIyIGMgMCwtMC42MTc0NCAwLjYxMTc4LC0xLjExNDUgMS4zNzE3LC0xLjExNDUgeiIgLz4KICAgICAgICA8dGV4dAogICAgICAgICAgIHhtbDpzcGFjZT0icHJlc2VydmUiCiAgICAgICAgICAgc3R5bGU9ImZvbnQtd2VpZ2h0OmJvbGQ7Zm9udC1zaXplOjUuMjkxNjdweDtmb250LWZhbWlseTonTWF2ZW4gUHJvJzstaW5rc2NhcGUtZm9udC1zcGVjaWZpY2F0aW9uOidNYXZlbiBQcm8sIEJvbGQnO3RleHQtYWxpZ246Y2VudGVyO3RleHQtb3JpZW50YXRpb246dXByaWdodDt0ZXh0LWFuY2hvcjptaWRkbGU7ZmlsbDojZmZmZmZmO2ZpbGwtb3BhY2l0eToxO3N0cm9rZTpub25lO3N0cm9rZS13aWR0aDowLjIyNzk1MTtzdHJva2UtbGluZWNhcDpyb3VuZDtzdHJva2UtbGluZWpvaW46bWl0ZXI7c3Ryb2tlLW1pdGVybGltaXQ6MC42O3N0cm9rZS1kYXNoYXJyYXk6bm9uZTtzdHJva2UtZGFzaG9mZnNldDoyLjAwMDAxO3N0cm9rZS1vcGFjaXR5OjE7cGFpbnQtb3JkZXI6ZmlsbCBtYXJrZXJzIHN0cm9rZTtzdG9wLWNvbG9yOiMwMDAwMDAiCiAgICAgICAgICAgeD0iMTQwLjMzODk2IgogICAgICAgICAgIHk9IjEwNy4yMTE4IgogICAgICAgICAgIGlkPSJ0ZXh0MTg1NjktNi00MS0zLTIiPjx0c3BhbgogICAgICAgICAgICAgaWQ9InRzcGFuMTg1NjctNDItNS0xLTYiCiAgICAgICAgICAgICBzdHlsZT0iZmlsbDojZmZmZmZmO2ZpbGwtb3BhY2l0eToxO3N0cm9rZTpub25lO3N0cm9rZS13aWR0aDowLjIyNzk1MSIKICAgICAgICAgICAgIHg9IjE0MC4zMzg5NiIKICAgICAgICAgICAgIHk9IjEwNy4yMTE4Ij5mYXN0cTwvdHNwYW4+PC90ZXh0PgogICAgICA8L2c+CiAgICAgIDxnCiAgICAgICAgIGlkPSJnMTg0ODgtNTQtOC0wLTMtNiIKICAgICAgICAgdHJhbnNmb3JtPSJ0cmFuc2xhdGUoNTUuNTYyNTA0LDUuMjkxNjYyNCkiPgogICAgICAgIDxwYXRoCiAgICAgICAgICAgaWQ9InBhdGg2Mjc2LTQtNC02LTktMDYtMSIKICAgICAgICAgICBzdHlsZT0iZmlsbDojZmZmZmZmO3N0cm9rZS13aWR0aDowLjIzMDcwMiIKICAgICAgICAgICBkPSJtIDEzMi4yOTE2Niw5My45MjcwNzIgdiAyMS4xNjY2NjggaCAxNS44NzUwMSBWIDk5LjIxODc0OCBsIC01LjI5MTY4LC01LjI5MTY3NiB6IiAvPgogICAgICAgIDxwYXRoCiAgICAgICAgICAgaWQ9InBhdGg1ODYyLTEtMS0zLTgtMCIKICAgICAgICAgICBkPSJtIDE0OS40ODk1OCw5Ny44OTU4MzIgYyAwLC0wLjI2NDU3NiAtMC4yNjQ1OCwtMC41MjkxNjQgLTAuNTI5MTcsLTAuNzkzNzUyIGwgLTQuNDk3OTEsLTMuOTY4NzQ4IGMgLTAuMjY0NTgsLTAuMjY0NTg4IC0wLjUyOTE3LC0wLjUyOTE2NCAtMC44Mjc4OCwtMC41MjkxNjQgaCAtMy40MDU0NSAtNy45Mzc1MSBjIC0wLjc5Mzc1LDAgLTEuMzIyOTIsMC41MjkxNjQgLTEuMzIyOTIsMS4zMjI5MTYgMCw3LjA1NTU1NiAwLDE0LjExMTEwNiAwLDIxLjE2NjY2NiAwLDAuNzkzNzUgMC41MjkxNywxLjMyMjkyIDEuMzIyOTIsMS4zMjI5MiBoIDcuOTM3NTEgNy45Mzc1IGMgMC43OTM3NCwwIDEuMzIyOTEsLTAuNTI5MTcgMS4zMjI5MSwtMS4zMjI5MiB6IG0gLTEuMzIyOTEsMTcuMTk3OTE4IEggMTMyLjI5MTY2IFYgOTMuOTI3MDg0IGggMTAuNTgzMzMgdiA0Ljc2MjUgYyAwLDAuMzE3NTA4IDAuMjAzNTMsMC41MjkxNjQgMC41MjkxNywwLjUyOTE2NCBoIDQuNzYyNTEgeiIKICAgICAgICAgICBzdHlsZT0ic3Ryb2tlLXdpZHRoOjAuMjMxNjciIC8+CiAgICAgICAgPHBhdGgKICAgICAgICAgICBpZD0icmVjdDE4MzQ3LTItNS0xLTAtNiIKICAgICAgICAgICBzdHlsZT0iZmlsbC1ydWxlOmV2ZW5vZGQ7c3Ryb2tlLXdpZHRoOjAuMTIyMDI3O3BhaW50LW9yZGVyOmZpbGwgbWFya2VycyBzdHJva2UiCiAgICAgICAgICAgZD0ibSAxMzEuMDE3NTIsMTAxLjg2NDYgYyA2LjE0MTA5LDAgMTIuMjgyMTcsMCAxOC40MjMyNiwwIDAuNzU5OTMsMCAxLjM3MTcxLDAuNDk3MDYgMS4zNzE3MSwxLjExNDUgdiAyLjg1NDIyIDIuODU0MjUgYyAwLDAuNjE3NDQgLTAuNjExNzgsMS4xMTQ1IC0xLjM3MTcxLDEuMTE0NSAtNi4xNDEwOSwwIC0xMi4yODIxNywwIC0xOC40MjMyNiwwIC0wLjc1OTkyLDAgLTEuMzcxNywtMC40OTcwNiAtMS4zNzE3LC0xLjExNDUgdiAtMi44NTQyNSAtMi44NTQyMiBjIDAsLTAuNjE3NDQgMC42MTE3OCwtMS4xMTQ1IDEuMzcxNywtMS4xMTQ1IHoiIC8+CiAgICAgICAgPHRleHQKICAgICAgICAgICB4bWw6c3BhY2U9InByZXNlcnZlIgogICAgICAgICAgIHN0eWxlPSJmb250LXdlaWdodDpib2xkO2ZvbnQtc2l6ZTo1LjI5MTY3cHg7Zm9udC1mYW1pbHk6J01hdmVuIFBybyc7LWlua3NjYXBlLWZvbnQtc3BlY2lmaWNhdGlvbjonTWF2ZW4gUHJvLCBCb2xkJzt0ZXh0LWFsaWduOmNlbnRlcjt0ZXh0LW9yaWVudGF0aW9uOnVwcmlnaHQ7dGV4dC1hbmNob3I6bWlkZGxlO2ZpbGw6I2ZmZmZmZjtmaWxsLW9wYWNpdHk6MTtzdHJva2U6bm9uZTtzdHJva2Utd2lkdGg6MC4yMjc5NTE7c3Ryb2tlLWxpbmVjYXA6cm91bmQ7c3Ryb2tlLWxpbmVqb2luOm1pdGVyO3N0cm9rZS1taXRlcmxpbWl0OjAuNjtzdHJva2UtZGFzaGFycmF5Om5vbmU7c3Ryb2tlLWRhc2hvZmZzZXQ6Mi4wMDAwMTtzdHJva2Utb3BhY2l0eToxO3BhaW50LW9yZGVyOmZpbGwgbWFya2VycyBzdHJva2U7c3RvcC1jb2xvcjojMDAwMDAwIgogICAgICAgICAgIHg9IjE0MC4zMzg5NiIKICAgICAgICAgICB5PSIxMDcuMjExOCIKICAgICAgICAgICBpZD0idGV4dDE4NTY5LTYtNC03LTItNyI+PHRzcGFuCiAgICAgICAgICAgICBpZD0idHNwYW4xODU2Ny00Mi0xLTUtNzEtMCIKICAgICAgICAgICAgIHN0eWxlPSJmaWxsOiNmZmZmZmY7ZmlsbC1vcGFjaXR5OjE7c3Ryb2tlOm5vbmU7c3Ryb2tlLXdpZHRoOjAuMjI3OTUxIgogICAgICAgICAgICAgeD0iMTQwLjMzODk2IgogICAgICAgICAgICAgeT0iMTA3LjIxMTgiPmZhc3RxPC90c3Bhbj48L3RleHQ+CiAgICAgIDwvZz4KICAgICAgPGcKICAgICAgICAgaWQ9ImcxODQ4OC01NC04LTAtOC02LTQiCiAgICAgICAgIHRyYW5zZm9ybT0idHJhbnNsYXRlKDUyLjkxNjY3NSw3LjkzNzUxNjIpIj4KICAgICAgICA8cGF0aAogICAgICAgICAgIGlkPSJwYXRoNjI3Ni00LTQtNi05LTAtMi0zIgogICAgICAgICAgIHN0eWxlPSJmaWxsOiNmZmZmZmY7c3Ryb2tlLXdpZHRoOjAuMjMwNzAyIgogICAgICAgICAgIGQ9Im0gMTMyLjI5MTY2LDkzLjkyNzA3MiB2IDIxLjE2NjY2OCBoIDE1Ljg3NTAxIFYgOTkuMjE4NzQ4IGwgLTUuMjkxNjgsLTUuMjkxNjc2IHoiIC8+CiAgICAgICAgPHBhdGgKICAgICAgICAgICBpZD0icGF0aDU4NjItMS0xLTMtOS04LTAiCiAgICAgICAgICAgZD0ibSAxNDkuNDg5NTgsOTcuODk1ODMyIGMgMCwtMC4yNjQ1NzYgLTAuMjY0NTgsLTAuNTI5MTY0IC0wLjUyOTE3LC0wLjc5Mzc1MiBsIC00LjQ5NzkxLC0zLjk2ODc0OCBjIC0wLjI2NDU4LC0wLjI2NDU4OCAtMC41MjkxNywtMC41MjkxNjQgLTAuODI3ODgsLTAuNTI5MTY0IGggLTMuNDA1NDUgLTcuOTM3NTEgYyAtMC43OTM3NSwwIC0xLjMyMjkyLDAuNTI5MTY0IC0xLjMyMjkyLDEuMzIyOTE2IHYgNy45Mzc0NzYgMTMuMjI5MTkgYyAwLDAuNzkzNzUgMC41MjkxNywxLjMyMjkyIDEuMzIyOTIsMS4zMjI5MiBsIDEwLjU4MzMzLC0zZS01IDUuMjkxNjgsM2UtNSBjIDAuNzkzNzQsMCAxLjMyMjkxLC0wLjUyOTE3IDEuMzIyOTEsLTEuMzIyOTIgeiBtIC0xLjMyMjkxLDE3LjE5NzkxOCBIIDEzMi4yOTE2NiBWIDkzLjkyNzA4NCBoIDEwLjU4MzMzIHYgNC43NjI1IGMgMCwwLjMxNzUwOCAwLjIwMzUzLDAuNTI5MTY0IDAuNTI5MTcsMC41MjkxNjQgaCA0Ljc2MjUxIHoiCiAgICAgICAgICAgc3R5bGU9InN0cm9rZS13aWR0aDowLjIzMTY3IiAvPgogICAgICAgIDxwYXRoCiAgICAgICAgICAgaWQ9InJlY3QxODM0Ny0yLTUtMS02LTItMCIKICAgICAgICAgICBzdHlsZT0iZmlsbC1ydWxlOmV2ZW5vZGQ7c3Ryb2tlLXdpZHRoOjAuMTIyMDI3O3BhaW50LW9yZGVyOmZpbGwgbWFya2VycyBzdHJva2UiCiAgICAgICAgICAgZD0ibSAxMzEuMDE3NTIsMTAxLjg2NDYgYyA2LjE0MTA5LDAgMTIuMjgyMTcsMCAxOC40MjMyNiwwIDAuNzU5OTMsMCAxLjM3MTcxLDAuNDk3MDYgMS4zNzE3MSwxLjExNDUgdiAyLjg1NDIyIDIuODU0MjUgYyAwLDAuNjE3NDQgLTAuNjExNzgsMS4xMTQ1IC0xLjM3MTcxLDEuMTE0NSAtNi4xNDEwOSwwIC0xMi4yODIxNywwIC0xOC40MjMyNiwwIC0wLjc1OTkyLDAgLTEuMzcxNywtMC40OTcwNiAtMS4zNzE3LC0xLjExNDUgdiAtMi44NTQyNSAtMi44NTQyMiBjIDAsLTAuNjE3NDQgMC42MTE3OCwtMS4xMTQ1IDEuMzcxNywtMS4xMTQ1IHoiIC8+CiAgICAgIDwvZz4KICAgIDwvZz4KICA8L2c+Cjwvc3ZnPgo=;" vertex="1" parent="I4KKubXRf7cSkb2UcYBp-40">
          <mxGeometry width="100" height="110" as="geometry" />
        </mxCell>
        <mxCell id="I4KKubXRf7cSkb2UcYBp-42" value="" style="shape=image;aspect=fixed;image=data:image/svg+xml,PD94bWwgdmVyc2lvbj0iMS4wIiBlbmNvZGluZz0iVVRGLTgiIHN0YW5kYWxvbmU9Im5vIj8+CjwhLS0gQ3JlYXRlZCB3aXRoIElua3NjYXBlIChodHRwOi8vd3d3Lmlua3NjYXBlLm9yZy8pIC0tPgoKPHN2ZwogICB3aWR0aD0iMjYuNDU4MzI2bW0iCiAgIGhlaWdodD0iMjkuMTA0Mm1tIgogICB2aWV3Qm94PSIwIDAgMjYuNDU4MzI2IDI5LjEwNDIiCiAgIHZlcnNpb249IjEuMSIKICAgaWQ9InN2ZzczNjIiCiAgIHhtbG5zPSJodHRwOi8vd3d3LnczLm9yZy8yMDAwL3N2ZyIKICAgeG1sbnM6c3ZnPSJodHRwOi8vd3d3LnczLm9yZy8yMDAwL3N2ZyI+CiAgPGRlZnMKICAgICBpZD0iZGVmczczNTkiIC8+CiAgPGcKICAgICBpZD0ibGF5ZXIxIgogICAgIHN0eWxlPSJkaXNwbGF5OmlubGluZSIKICAgICB0cmFuc2Zvcm09InRyYW5zbGF0ZSgzNC4zOTU4MzMsLTE5My4xNDU4NCkiPgogICAgPGcKICAgICAgIGlkPSJnMi0wLTQiCiAgICAgICB0cmFuc2Zvcm09InRyYW5zbGF0ZSgtMjE2Ljk1ODMzLDk3Ljg5NTg0MykiCiAgICAgICBzdHlsZT0iZGlzcGxheTppbmxpbmUiPgogICAgICA8ZwogICAgICAgICBpZD0iZzE4NDg4LTU0LTQtMS01IgogICAgICAgICB0cmFuc2Zvcm09InRyYW5zbGF0ZSg1OC4yMDgzMzQsMi42NDU4MzY5KSI+CiAgICAgICAgPHBhdGgKICAgICAgICAgICBpZD0icGF0aDYyNzYtNC00LTY1LTUtOSIKICAgICAgICAgICBzdHlsZT0iZmlsbDojZmZmZmZmO3N0cm9rZS13aWR0aDowLjIzMDcwMiIKICAgICAgICAgICBkPSJtIDEzMi4yOTE2Niw5My45MjcwNzIgdiAyMS4xNjY2NjggaCAxNS44NzUwMSBWIDk5LjIxODc0OCBsIC01LjI5MTY4LC01LjI5MTY3NiB6IiAvPgogICAgICAgIDxwYXRoCiAgICAgICAgICAgaWQ9InBhdGg1ODYyLTEtMy00LTYiCiAgICAgICAgICAgZD0ibSAxNDkuNDg5NTgsOTcuODk1ODMyIGMgMCwtMC4yNjQ1NzYgLTAuMjY0NTgsLTAuNTI5MTY0IC0wLjUyOTE3LC0wLjc5Mzc1MiBsIC00LjQ5NzkxLC0zLjk2ODc0OCBjIC0wLjI2NDU4LC0wLjI2NDU4OCAtMC41MjkxNywtMC41MjkxNjQgLTAuODI3ODgsLTAuNTI5MTY0IGwgLTYuMDUxMjksLTEuM2UtNSAtNS4yOTE2NywxLjNlLTUgYyAtMC43OTM3NSwyZS02IC0xLjMyMjkyLDAuNTI5MTY0IC0xLjMyMjkyLDEuMzIyOTE2IHYgMjEuMTY2NjY2IGMgMCwwLjc5Mzc1IDAuNTI5MTcsMS4zMjI5MiAxLjMyMjkyLDEuMzIyOTIgaCA3LjkzNzUxIDcuOTM3NSBjIDAuNzkzNzQsMCAxLjMyMjkxLC0wLjUyOTE3IDEuMzIyOTEsLTEuMzIyOTIgeiBtIC0xLjMyMjkxLDE3LjE5NzkxOCBIIDEzMi4yOTE2NiBWIDkzLjkyNzA4NCBoIDEwLjU4MzMzIHYgNC43NjI1IGMgMCwwLjMxNzUwOCAwLjIwMzUzLDAuNTI5MTY0IDAuNTI5MTcsMC41MjkxNjQgaCA0Ljc2MjUxIHoiCiAgICAgICAgICAgc3R5bGU9InN0cm9rZS13aWR0aDowLjIzMTY3IiAvPgogICAgICAgIDxwYXRoCiAgICAgICAgICAgaWQ9InJlY3QxODM0Ny0yLTYtNi0wIgogICAgICAgICAgIHN0eWxlPSJmaWxsLXJ1bGU6ZXZlbm9kZDtzdHJva2Utd2lkdGg6MC4xMjIwMjc7cGFpbnQtb3JkZXI6ZmlsbCBtYXJrZXJzIHN0cm9rZSIKICAgICAgICAgICBkPSJtIDEzMS4wMTc1MiwxMDEuODY0NiBoIDE4LjQyMzI2IGMgMC43NTk5MywwIDEuMzcxNzEsMC40OTcwNiAxLjM3MTcxLDEuMTE0NSB2IDQuMTc3MTQgMS41MzEzMyBjIDAsMC42MTc0NCAtMC42MTE3OCwxLjExNDUgLTEuMzcxNzEsMS4xMTQ1IGggLTE4LjQyMzI2IGMgLTAuNzU5OTIsMCAtMS4zNzE3LC0wLjQ5NzA2IC0xLjM3MTcsLTEuMTE0NSB2IC0yLjg1NDI1IC0yLjg1NDIyIGMgMCwtMC42MTc0NCAwLjYxMTc4LC0xLjExNDUgMS4zNzE3LC0xLjExNDUgeiIgLz4KICAgICAgICA8dGV4dAogICAgICAgICAgIHhtbDpzcGFjZT0icHJlc2VydmUiCiAgICAgICAgICAgc3R5bGU9ImZvbnQtd2VpZ2h0OmJvbGQ7Zm9udC1zaXplOjUuMjkxNjdweDtmb250LWZhbWlseTonTWF2ZW4gUHJvJzstaW5rc2NhcGUtZm9udC1zcGVjaWZpY2F0aW9uOidNYXZlbiBQcm8sIEJvbGQnO3RleHQtYWxpZ246Y2VudGVyO3RleHQtb3JpZW50YXRpb246dXByaWdodDt0ZXh0LWFuY2hvcjptaWRkbGU7ZmlsbDojZmZmZmZmO2ZpbGwtb3BhY2l0eToxO3N0cm9rZTpub25lO3N0cm9rZS13aWR0aDowLjIyNzk1MTtzdHJva2UtbGluZWNhcDpyb3VuZDtzdHJva2UtbGluZWpvaW46bWl0ZXI7c3Ryb2tlLW1pdGVybGltaXQ6MC42O3N0cm9rZS1kYXNoYXJyYXk6bm9uZTtzdHJva2UtZGFzaG9mZnNldDoyLjAwMDAxO3N0cm9rZS1vcGFjaXR5OjE7cGFpbnQtb3JkZXI6ZmlsbCBtYXJrZXJzIHN0cm9rZTtzdG9wLWNvbG9yOiMwMDAwMDAiCiAgICAgICAgICAgeD0iMTQwLjMzODk2IgogICAgICAgICAgIHk9IjEwNy4yMTE4IgogICAgICAgICAgIGlkPSJ0ZXh0MTg1NjktNi00MS0zLTIiPjx0c3BhbgogICAgICAgICAgICAgaWQ9InRzcGFuMTg1NjctNDItNS0xLTYiCiAgICAgICAgICAgICBzdHlsZT0iZmlsbDojZmZmZmZmO2ZpbGwtb3BhY2l0eToxO3N0cm9rZTpub25lO3N0cm9rZS13aWR0aDowLjIyNzk1MSIKICAgICAgICAgICAgIHg9IjE0MC4zMzg5NiIKICAgICAgICAgICAgIHk9IjEwNy4yMTE4Ij5mYXN0cTwvdHNwYW4+PC90ZXh0PgogICAgICA8L2c+CiAgICAgIDxnCiAgICAgICAgIGlkPSJnMTg0ODgtNTQtOC0wLTMtNiIKICAgICAgICAgdHJhbnNmb3JtPSJ0cmFuc2xhdGUoNTUuNTYyNTA0LDUuMjkxNjYyNCkiPgogICAgICAgIDxwYXRoCiAgICAgICAgICAgaWQ9InBhdGg2Mjc2LTQtNC02LTktMDYtMSIKICAgICAgICAgICBzdHlsZT0iZmlsbDojZmZmZmZmO3N0cm9rZS13aWR0aDowLjIzMDcwMiIKICAgICAgICAgICBkPSJtIDEzMi4yOTE2Niw5My45MjcwNzIgdiAyMS4xNjY2NjggaCAxNS44NzUwMSBWIDk5LjIxODc0OCBsIC01LjI5MTY4LC01LjI5MTY3NiB6IiAvPgogICAgICAgIDxwYXRoCiAgICAgICAgICAgaWQ9InBhdGg1ODYyLTEtMS0zLTgtMCIKICAgICAgICAgICBkPSJtIDE0OS40ODk1OCw5Ny44OTU4MzIgYyAwLC0wLjI2NDU3NiAtMC4yNjQ1OCwtMC41MjkxNjQgLTAuNTI5MTcsLTAuNzkzNzUyIGwgLTQuNDk3OTEsLTMuOTY4NzQ4IGMgLTAuMjY0NTgsLTAuMjY0NTg4IC0wLjUyOTE3LC0wLjUyOTE2NCAtMC44Mjc4OCwtMC41MjkxNjQgaCAtMy40MDU0NSAtNy45Mzc1MSBjIC0wLjc5Mzc1LDAgLTEuMzIyOTIsMC41MjkxNjQgLTEuMzIyOTIsMS4zMjI5MTYgMCw3LjA1NTU1NiAwLDE0LjExMTEwNiAwLDIxLjE2NjY2NiAwLDAuNzkzNzUgMC41MjkxNywxLjMyMjkyIDEuMzIyOTIsMS4zMjI5MiBoIDcuOTM3NTEgNy45Mzc1IGMgMC43OTM3NCwwIDEuMzIyOTEsLTAuNTI5MTcgMS4zMjI5MSwtMS4zMjI5MiB6IG0gLTEuMzIyOTEsMTcuMTk3OTE4IEggMTMyLjI5MTY2IFYgOTMuOTI3MDg0IGggMTAuNTgzMzMgdiA0Ljc2MjUgYyAwLDAuMzE3NTA4IDAuMjAzNTMsMC41MjkxNjQgMC41MjkxNywwLjUyOTE2NCBoIDQuNzYyNTEgeiIKICAgICAgICAgICBzdHlsZT0ic3Ryb2tlLXdpZHRoOjAuMjMxNjciIC8+CiAgICAgICAgPHBhdGgKICAgICAgICAgICBpZD0icmVjdDE4MzQ3LTItNS0xLTAtNiIKICAgICAgICAgICBzdHlsZT0iZmlsbC1ydWxlOmV2ZW5vZGQ7c3Ryb2tlLXdpZHRoOjAuMTIyMDI3O3BhaW50LW9yZGVyOmZpbGwgbWFya2VycyBzdHJva2UiCiAgICAgICAgICAgZD0ibSAxMzEuMDE3NTIsMTAxLjg2NDYgYyA2LjE0MTA5LDAgMTIuMjgyMTcsMCAxOC40MjMyNiwwIDAuNzU5OTMsMCAxLjM3MTcxLDAuNDk3MDYgMS4zNzE3MSwxLjExNDUgdiAyLjg1NDIyIDIuODU0MjUgYyAwLDAuNjE3NDQgLTAuNjExNzgsMS4xMTQ1IC0xLjM3MTcxLDEuMTE0NSAtNi4xNDEwOSwwIC0xMi4yODIxNywwIC0xOC40MjMyNiwwIC0wLjc1OTkyLDAgLTEuMzcxNywtMC40OTcwNiAtMS4zNzE3LC0xLjExNDUgdiAtMi44NTQyNSAtMi44NTQyMiBjIDAsLTAuNjE3NDQgMC42MTE3OCwtMS4xMTQ1IDEuMzcxNywtMS4xMTQ1IHoiIC8+CiAgICAgICAgPHRleHQKICAgICAgICAgICB4bWw6c3BhY2U9InByZXNlcnZlIgogICAgICAgICAgIHN0eWxlPSJmb250LXdlaWdodDpib2xkO2ZvbnQtc2l6ZTo1LjI5MTY3cHg7Zm9udC1mYW1pbHk6J01hdmVuIFBybyc7LWlua3NjYXBlLWZvbnQtc3BlY2lmaWNhdGlvbjonTWF2ZW4gUHJvLCBCb2xkJzt0ZXh0LWFsaWduOmNlbnRlcjt0ZXh0LW9yaWVudGF0aW9uOnVwcmlnaHQ7dGV4dC1hbmNob3I6bWlkZGxlO2ZpbGw6I2ZmZmZmZjtmaWxsLW9wYWNpdHk6MTtzdHJva2U6bm9uZTtzdHJva2Utd2lkdGg6MC4yMjc5NTE7c3Ryb2tlLWxpbmVjYXA6cm91bmQ7c3Ryb2tlLWxpbmVqb2luOm1pdGVyO3N0cm9rZS1taXRlcmxpbWl0OjAuNjtzdHJva2UtZGFzaGFycmF5Om5vbmU7c3Ryb2tlLWRhc2hvZmZzZXQ6Mi4wMDAwMTtzdHJva2Utb3BhY2l0eToxO3BhaW50LW9yZGVyOmZpbGwgbWFya2VycyBzdHJva2U7c3RvcC1jb2xvcjojMDAwMDAwIgogICAgICAgICAgIHg9IjE0MC4zMzg5NiIKICAgICAgICAgICB5PSIxMDcuMjExOCIKICAgICAgICAgICBpZD0idGV4dDE4NTY5LTYtNC03LTItNyI+PHRzcGFuCiAgICAgICAgICAgICBpZD0idHNwYW4xODU2Ny00Mi0xLTUtNzEtMCIKICAgICAgICAgICAgIHN0eWxlPSJmaWxsOiNmZmZmZmY7ZmlsbC1vcGFjaXR5OjE7c3Ryb2tlOm5vbmU7c3Ryb2tlLXdpZHRoOjAuMjI3OTUxIgogICAgICAgICAgICAgeD0iMTQwLjMzODk2IgogICAgICAgICAgICAgeT0iMTA3LjIxMTgiPmZhc3RxPC90c3Bhbj48L3RleHQ+CiAgICAgIDwvZz4KICAgICAgPGcKICAgICAgICAgaWQ9ImcxODQ4OC01NC04LTAtOC02LTQiCiAgICAgICAgIHRyYW5zZm9ybT0idHJhbnNsYXRlKDUyLjkxNjY3NSw3LjkzNzUxNjIpIj4KICAgICAgICA8cGF0aAogICAgICAgICAgIGlkPSJwYXRoNjI3Ni00LTQtNi05LTAtMi0zIgogICAgICAgICAgIHN0eWxlPSJmaWxsOiNmZmZmZmY7c3Ryb2tlLXdpZHRoOjAuMjMwNzAyIgogICAgICAgICAgIGQ9Im0gMTMyLjI5MTY2LDkzLjkyNzA3MiB2IDIxLjE2NjY2OCBoIDE1Ljg3NTAxIFYgOTkuMjE4NzQ4IGwgLTUuMjkxNjgsLTUuMjkxNjc2IHoiIC8+CiAgICAgICAgPHBhdGgKICAgICAgICAgICBpZD0icGF0aDU4NjItMS0xLTMtOS04LTAiCiAgICAgICAgICAgZD0ibSAxNDkuNDg5NTgsOTcuODk1ODMyIGMgMCwtMC4yNjQ1NzYgLTAuMjY0NTgsLTAuNTI5MTY0IC0wLjUyOTE3LC0wLjc5Mzc1MiBsIC00LjQ5NzkxLC0zLjk2ODc0OCBjIC0wLjI2NDU4LC0wLjI2NDU4OCAtMC41MjkxNywtMC41MjkxNjQgLTAuODI3ODgsLTAuNTI5MTY0IGggLTMuNDA1NDUgLTcuOTM3NTEgYyAtMC43OTM3NSwwIC0xLjMyMjkyLDAuNTI5MTY0IC0xLjMyMjkyLDEuMzIyOTE2IHYgNy45Mzc0NzYgMTMuMjI5MTkgYyAwLDAuNzkzNzUgMC41MjkxNywxLjMyMjkyIDEuMzIyOTIsMS4zMjI5MiBsIDEwLjU4MzMzLC0zZS01IDUuMjkxNjgsM2UtNSBjIDAuNzkzNzQsMCAxLjMyMjkxLC0wLjUyOTE3IDEuMzIyOTEsLTEuMzIyOTIgeiBtIC0xLjMyMjkxLDE3LjE5NzkxOCBIIDEzMi4yOTE2NiBWIDkzLjkyNzA4NCBoIDEwLjU4MzMzIHYgNC43NjI1IGMgMCwwLjMxNzUwOCAwLjIwMzUzLDAuNTI5MTY0IDAuNTI5MTcsMC41MjkxNjQgaCA0Ljc2MjUxIHoiCiAgICAgICAgICAgc3R5bGU9InN0cm9rZS13aWR0aDowLjIzMTY3IiAvPgogICAgICAgIDxwYXRoCiAgICAgICAgICAgaWQ9InJlY3QxODM0Ny0yLTUtMS02LTItMCIKICAgICAgICAgICBzdHlsZT0iZmlsbC1ydWxlOmV2ZW5vZGQ7c3Ryb2tlLXdpZHRoOjAuMTIyMDI3O3BhaW50LW9yZGVyOmZpbGwgbWFya2VycyBzdHJva2UiCiAgICAgICAgICAgZD0ibSAxMzEuMDE3NTIsMTAxLjg2NDYgYyA2LjE0MTA5LDAgMTIuMjgyMTcsMCAxOC40MjMyNiwwIDAuNzU5OTMsMCAxLjM3MTcxLDAuNDk3MDYgMS4zNzE3MSwxLjExNDUgdiAyLjg1NDIyIDIuODU0MjUgYyAwLDAuNjE3NDQgLTAuNjExNzgsMS4xMTQ1IC0xLjM3MTcxLDEuMTE0NSAtNi4xNDEwOSwwIC0xMi4yODIxNywwIC0xOC40MjMyNiwwIC0wLjc1OTkyLDAgLTEuMzcxNywtMC40OTcwNiAtMS4zNzE3LC0xLjExNDUgdiAtMi44NTQyNSAtMi44NTQyMiBjIDAsLTAuNjE3NDQgMC42MTE3OCwtMS4xMTQ1IDEuMzcxNywtMS4xMTQ1IHoiIC8+CiAgICAgIDwvZz4KICAgIDwvZz4KICA8L2c+Cjwvc3ZnPgo=;" vertex="1" parent="I4KKubXRf7cSkb2UcYBp-40">
          <mxGeometry x="27" y="29.999999999999886" width="100" height="110" as="geometry" />
        </mxCell>
        <mxCell id="I4KKubXRf7cSkb2UcYBp-43" value="&lt;div&gt;&lt;font style=&quot;font-size: 20px;&quot; color=&quot;#ffffff&quot; data-font-src=&quot;https://fonts.googleapis.com/css?family=Maven+Pro&quot; face=&quot;Maven Pro&quot;&gt;&lt;b&gt;.nwk&lt;/b&gt;&lt;/font&gt;&lt;/div&gt;" style="text;html=1;strokeColor=none;fillColor=none;align=center;verticalAlign=middle;whiteSpace=wrap;rounded=0;" vertex="1" parent="I4KKubXRf7cSkb2UcYBp-40">
          <mxGeometry x="37" y="84.99999999999989" width="60" height="30" as="geometry" />
        </mxCell>
        <mxCell id="I4KKubXRf7cSkb2UcYBp-45" value="&lt;div&gt;&lt;font style=&quot;font-size: 18px;&quot;&gt;&lt;b&gt;Gene trees&lt;/b&gt;&lt;/font&gt;&lt;/div&gt;" style="text;html=1;align=center;verticalAlign=middle;whiteSpace=wrap;rounded=0;" vertex="1" parent="1">
          <mxGeometry x="1115" y="350" width="60" height="30" as="geometry" />
        </mxCell>
        <mxCell id="I4KKubXRf7cSkb2UcYBp-47" value="" style="shape=image;verticalLabelPosition=bottom;verticalAlign=top;imageAspect=0;aspect=fixed;image=data:image/svg+xml,PHN2ZyB4bWxucz0iaHR0cDovL3d3dy53My5vcmcvMjAwMC9zdmciIGlkPSJzdmc3MzYyIiB2ZXJzaW9uPSIxLjEiIHZpZXdCb3g9IjAgMCA3LjkzNzQ5NjcgNy45Mzc0OTYyIiBoZWlnaHQ9IjcuOTM3NDk2Mm1tIiB3aWR0aD0iNy45Mzc0OTY3bW0iPiYjeGE7ICAmI3hhOyAgICAmI3hhOyAgJiN4YTsgIDxkZWZzIGlkPSJkZWZzNzM1OSIvPiYjeGE7ICA8ZyB0cmFuc2Zvcm09InRyYW5zbGF0ZSgtMy45ODk0MzAzLC0zMy4wNzI5MjEpIiBpZD0ibGF5ZXI1Ij4mI3hhOyAgICA8ZyBpZD0ibGF5ZXI2Ij4mI3hhOyAgICAgIDxjaXJjbGUgcj0iMi42NDU4MzMzIiBjeT0iMzcuMDQxNjY4IiBjeD0iNy45NTgxNzg1IiBpZD0icGF0aDM0NDciIHN0eWxlPSJmaWxsOiNmZmZmZmY7c3Ryb2tlOiMwMDAwMDA7c3Ryb2tlLXdpZHRoOjIuNjQ1ODM7c3Ryb2tlLWxpbmVjYXA6cm91bmQ7c3Ryb2tlLW1pdGVybGltaXQ6NDtzdHJva2UtZGFzaGFycmF5Om5vbmU7cGFpbnQtb3JkZXI6c3Ryb2tlIG1hcmtlcnMgZmlsbDtzdG9wLWNvbG9yOiMwMDAwMDAiLz4mI3hhOyAgICA8L2c+JiN4YTsgIDwvZz4mI3hhOzwvc3ZnPg==" vertex="1" parent="1">
          <mxGeometry x="1261" y="254.5" width="30" height="30" as="geometry" />
        </mxCell>
        <mxCell id="I4KKubXRf7cSkb2UcYBp-48" value="&lt;div&gt;&lt;font style=&quot;font-size: 18px;&quot;&gt;&lt;b&gt;Infer phylogenies&lt;/b&gt;&lt;/font&gt;&lt;/div&gt;" style="text;html=1;align=center;verticalAlign=middle;whiteSpace=wrap;rounded=0;" vertex="1" parent="1">
          <mxGeometry x="985" y="290" width="60" height="40" as="geometry" />
        </mxCell>
        <mxCell id="I4KKubXRf7cSkb2UcYBp-49" value="&lt;font style=&quot;font-size: 18px;&quot;&gt;&lt;b&gt;Rate estimation&lt;/b&gt;&lt;/font&gt;" style="text;html=1;align=center;verticalAlign=middle;whiteSpace=wrap;rounded=0;" vertex="1" parent="1">
          <mxGeometry x="1247" y="290" width="60" height="40" as="geometry" />
        </mxCell>
        <mxCell id="I4KKubXRf7cSkb2UcYBp-57" value="" style="group" vertex="1" connectable="0" parent="1">
          <mxGeometry x="1346" y="200" width="130" height="139.9999999999999" as="geometry" />
        </mxCell>
        <mxCell id="I4KKubXRf7cSkb2UcYBp-58" value="" style="shape=image;aspect=fixed;image=data:image/svg+xml,PD94bWwgdmVyc2lvbj0iMS4wIiBlbmNvZGluZz0iVVRGLTgiIHN0YW5kYWxvbmU9Im5vIj8+CjwhLS0gQ3JlYXRlZCB3aXRoIElua3NjYXBlIChodHRwOi8vd3d3Lmlua3NjYXBlLm9yZy8pIC0tPgoKPHN2ZwogICB3aWR0aD0iMjYuNDU4MzI2bW0iCiAgIGhlaWdodD0iMjkuMTA0Mm1tIgogICB2aWV3Qm94PSIwIDAgMjYuNDU4MzI2IDI5LjEwNDIiCiAgIHZlcnNpb249IjEuMSIKICAgaWQ9InN2ZzczNjIiCiAgIHhtbG5zPSJodHRwOi8vd3d3LnczLm9yZy8yMDAwL3N2ZyIKICAgeG1sbnM6c3ZnPSJodHRwOi8vd3d3LnczLm9yZy8yMDAwL3N2ZyI+CiAgPGRlZnMKICAgICBpZD0iZGVmczczNTkiIC8+CiAgPGcKICAgICBpZD0ibGF5ZXIxIgogICAgIHN0eWxlPSJkaXNwbGF5OmlubGluZSIKICAgICB0cmFuc2Zvcm09InRyYW5zbGF0ZSgzNC4zOTU4MzMsLTE5My4xNDU4NCkiPgogICAgPGcKICAgICAgIGlkPSJnMi0wLTQiCiAgICAgICB0cmFuc2Zvcm09InRyYW5zbGF0ZSgtMjE2Ljk1ODMzLDk3Ljg5NTg0MykiCiAgICAgICBzdHlsZT0iZGlzcGxheTppbmxpbmUiPgogICAgICA8ZwogICAgICAgICBpZD0iZzE4NDg4LTU0LTQtMS01IgogICAgICAgICB0cmFuc2Zvcm09InRyYW5zbGF0ZSg1OC4yMDgzMzQsMi42NDU4MzY5KSI+CiAgICAgICAgPHBhdGgKICAgICAgICAgICBpZD0icGF0aDYyNzYtNC00LTY1LTUtOSIKICAgICAgICAgICBzdHlsZT0iZmlsbDojZmZmZmZmO3N0cm9rZS13aWR0aDowLjIzMDcwMiIKICAgICAgICAgICBkPSJtIDEzMi4yOTE2Niw5My45MjcwNzIgdiAyMS4xNjY2NjggaCAxNS44NzUwMSBWIDk5LjIxODc0OCBsIC01LjI5MTY4LC01LjI5MTY3NiB6IiAvPgogICAgICAgIDxwYXRoCiAgICAgICAgICAgaWQ9InBhdGg1ODYyLTEtMy00LTYiCiAgICAgICAgICAgZD0ibSAxNDkuNDg5NTgsOTcuODk1ODMyIGMgMCwtMC4yNjQ1NzYgLTAuMjY0NTgsLTAuNTI5MTY0IC0wLjUyOTE3LC0wLjc5Mzc1MiBsIC00LjQ5NzkxLC0zLjk2ODc0OCBjIC0wLjI2NDU4LC0wLjI2NDU4OCAtMC41MjkxNywtMC41MjkxNjQgLTAuODI3ODgsLTAuNTI5MTY0IGwgLTYuMDUxMjksLTEuM2UtNSAtNS4yOTE2NywxLjNlLTUgYyAtMC43OTM3NSwyZS02IC0xLjMyMjkyLDAuNTI5MTY0IC0xLjMyMjkyLDEuMzIyOTE2IHYgMjEuMTY2NjY2IGMgMCwwLjc5Mzc1IDAuNTI5MTcsMS4zMjI5MiAxLjMyMjkyLDEuMzIyOTIgaCA3LjkzNzUxIDcuOTM3NSBjIDAuNzkzNzQsMCAxLjMyMjkxLC0wLjUyOTE3IDEuMzIyOTEsLTEuMzIyOTIgeiBtIC0xLjMyMjkxLDE3LjE5NzkxOCBIIDEzMi4yOTE2NiBWIDkzLjkyNzA4NCBoIDEwLjU4MzMzIHYgNC43NjI1IGMgMCwwLjMxNzUwOCAwLjIwMzUzLDAuNTI5MTY0IDAuNTI5MTcsMC41MjkxNjQgaCA0Ljc2MjUxIHoiCiAgICAgICAgICAgc3R5bGU9InN0cm9rZS13aWR0aDowLjIzMTY3IiAvPgogICAgICAgIDxwYXRoCiAgICAgICAgICAgaWQ9InJlY3QxODM0Ny0yLTYtNi0wIgogICAgICAgICAgIHN0eWxlPSJmaWxsLXJ1bGU6ZXZlbm9kZDtzdHJva2Utd2lkdGg6MC4xMjIwMjc7cGFpbnQtb3JkZXI6ZmlsbCBtYXJrZXJzIHN0cm9rZSIKICAgICAgICAgICBkPSJtIDEzMS4wMTc1MiwxMDEuODY0NiBoIDE4LjQyMzI2IGMgMC43NTk5MywwIDEuMzcxNzEsMC40OTcwNiAxLjM3MTcxLDEuMTE0NSB2IDQuMTc3MTQgMS41MzEzMyBjIDAsMC42MTc0NCAtMC42MTE3OCwxLjExNDUgLTEuMzcxNzEsMS4xMTQ1IGggLTE4LjQyMzI2IGMgLTAuNzU5OTIsMCAtMS4zNzE3LC0wLjQ5NzA2IC0xLjM3MTcsLTEuMTE0NSB2IC0yLjg1NDI1IC0yLjg1NDIyIGMgMCwtMC42MTc0NCAwLjYxMTc4LC0xLjExNDUgMS4zNzE3LC0xLjExNDUgeiIgLz4KICAgICAgICA8dGV4dAogICAgICAgICAgIHhtbDpzcGFjZT0icHJlc2VydmUiCiAgICAgICAgICAgc3R5bGU9ImZvbnQtd2VpZ2h0OmJvbGQ7Zm9udC1zaXplOjUuMjkxNjdweDtmb250LWZhbWlseTonTWF2ZW4gUHJvJzstaW5rc2NhcGUtZm9udC1zcGVjaWZpY2F0aW9uOidNYXZlbiBQcm8sIEJvbGQnO3RleHQtYWxpZ246Y2VudGVyO3RleHQtb3JpZW50YXRpb246dXByaWdodDt0ZXh0LWFuY2hvcjptaWRkbGU7ZmlsbDojZmZmZmZmO2ZpbGwtb3BhY2l0eToxO3N0cm9rZTpub25lO3N0cm9rZS13aWR0aDowLjIyNzk1MTtzdHJva2UtbGluZWNhcDpyb3VuZDtzdHJva2UtbGluZWpvaW46bWl0ZXI7c3Ryb2tlLW1pdGVybGltaXQ6MC42O3N0cm9rZS1kYXNoYXJyYXk6bm9uZTtzdHJva2UtZGFzaG9mZnNldDoyLjAwMDAxO3N0cm9rZS1vcGFjaXR5OjE7cGFpbnQtb3JkZXI6ZmlsbCBtYXJrZXJzIHN0cm9rZTtzdG9wLWNvbG9yOiMwMDAwMDAiCiAgICAgICAgICAgeD0iMTQwLjMzODk2IgogICAgICAgICAgIHk9IjEwNy4yMTE4IgogICAgICAgICAgIGlkPSJ0ZXh0MTg1NjktNi00MS0zLTIiPjx0c3BhbgogICAgICAgICAgICAgaWQ9InRzcGFuMTg1NjctNDItNS0xLTYiCiAgICAgICAgICAgICBzdHlsZT0iZmlsbDojZmZmZmZmO2ZpbGwtb3BhY2l0eToxO3N0cm9rZTpub25lO3N0cm9rZS13aWR0aDowLjIyNzk1MSIKICAgICAgICAgICAgIHg9IjE0MC4zMzg5NiIKICAgICAgICAgICAgIHk9IjEwNy4yMTE4Ij5mYXN0cTwvdHNwYW4+PC90ZXh0PgogICAgICA8L2c+CiAgICAgIDxnCiAgICAgICAgIGlkPSJnMTg0ODgtNTQtOC0wLTMtNiIKICAgICAgICAgdHJhbnNmb3JtPSJ0cmFuc2xhdGUoNTUuNTYyNTA0LDUuMjkxNjYyNCkiPgogICAgICAgIDxwYXRoCiAgICAgICAgICAgaWQ9InBhdGg2Mjc2LTQtNC02LTktMDYtMSIKICAgICAgICAgICBzdHlsZT0iZmlsbDojZmZmZmZmO3N0cm9rZS13aWR0aDowLjIzMDcwMiIKICAgICAgICAgICBkPSJtIDEzMi4yOTE2Niw5My45MjcwNzIgdiAyMS4xNjY2NjggaCAxNS44NzUwMSBWIDk5LjIxODc0OCBsIC01LjI5MTY4LC01LjI5MTY3NiB6IiAvPgogICAgICAgIDxwYXRoCiAgICAgICAgICAgaWQ9InBhdGg1ODYyLTEtMS0zLTgtMCIKICAgICAgICAgICBkPSJtIDE0OS40ODk1OCw5Ny44OTU4MzIgYyAwLC0wLjI2NDU3NiAtMC4yNjQ1OCwtMC41MjkxNjQgLTAuNTI5MTcsLTAuNzkzNzUyIGwgLTQuNDk3OTEsLTMuOTY4NzQ4IGMgLTAuMjY0NTgsLTAuMjY0NTg4IC0wLjUyOTE3LC0wLjUyOTE2NCAtMC44Mjc4OCwtMC41MjkxNjQgaCAtMy40MDU0NSAtNy45Mzc1MSBjIC0wLjc5Mzc1LDAgLTEuMzIyOTIsMC41MjkxNjQgLTEuMzIyOTIsMS4zMjI5MTYgMCw3LjA1NTU1NiAwLDE0LjExMTEwNiAwLDIxLjE2NjY2NiAwLDAuNzkzNzUgMC41MjkxNywxLjMyMjkyIDEuMzIyOTIsMS4zMjI5MiBoIDcuOTM3NTEgNy45Mzc1IGMgMC43OTM3NCwwIDEuMzIyOTEsLTAuNTI5MTcgMS4zMjI5MSwtMS4zMjI5MiB6IG0gLTEuMzIyOTEsMTcuMTk3OTE4IEggMTMyLjI5MTY2IFYgOTMuOTI3MDg0IGggMTAuNTgzMzMgdiA0Ljc2MjUgYyAwLDAuMzE3NTA4IDAuMjAzNTMsMC41MjkxNjQgMC41MjkxNywwLjUyOTE2NCBoIDQuNzYyNTEgeiIKICAgICAgICAgICBzdHlsZT0ic3Ryb2tlLXdpZHRoOjAuMjMxNjciIC8+CiAgICAgICAgPHBhdGgKICAgICAgICAgICBpZD0icmVjdDE4MzQ3LTItNS0xLTAtNiIKICAgICAgICAgICBzdHlsZT0iZmlsbC1ydWxlOmV2ZW5vZGQ7c3Ryb2tlLXdpZHRoOjAuMTIyMDI3O3BhaW50LW9yZGVyOmZpbGwgbWFya2VycyBzdHJva2UiCiAgICAgICAgICAgZD0ibSAxMzEuMDE3NTIsMTAxLjg2NDYgYyA2LjE0MTA5LDAgMTIuMjgyMTcsMCAxOC40MjMyNiwwIDAuNzU5OTMsMCAxLjM3MTcxLDAuNDk3MDYgMS4zNzE3MSwxLjExNDUgdiAyLjg1NDIyIDIuODU0MjUgYyAwLDAuNjE3NDQgLTAuNjExNzgsMS4xMTQ1IC0xLjM3MTcxLDEuMTE0NSAtNi4xNDEwOSwwIC0xMi4yODIxNywwIC0xOC40MjMyNiwwIC0wLjc1OTkyLDAgLTEuMzcxNywtMC40OTcwNiAtMS4zNzE3LC0xLjExNDUgdiAtMi44NTQyNSAtMi44NTQyMiBjIDAsLTAuNjE3NDQgMC42MTE3OCwtMS4xMTQ1IDEuMzcxNywtMS4xMTQ1IHoiIC8+CiAgICAgICAgPHRleHQKICAgICAgICAgICB4bWw6c3BhY2U9InByZXNlcnZlIgogICAgICAgICAgIHN0eWxlPSJmb250LXdlaWdodDpib2xkO2ZvbnQtc2l6ZTo1LjI5MTY3cHg7Zm9udC1mYW1pbHk6J01hdmVuIFBybyc7LWlua3NjYXBlLWZvbnQtc3BlY2lmaWNhdGlvbjonTWF2ZW4gUHJvLCBCb2xkJzt0ZXh0LWFsaWduOmNlbnRlcjt0ZXh0LW9yaWVudGF0aW9uOnVwcmlnaHQ7dGV4dC1hbmNob3I6bWlkZGxlO2ZpbGw6I2ZmZmZmZjtmaWxsLW9wYWNpdHk6MTtzdHJva2U6bm9uZTtzdHJva2Utd2lkdGg6MC4yMjc5NTE7c3Ryb2tlLWxpbmVjYXA6cm91bmQ7c3Ryb2tlLWxpbmVqb2luOm1pdGVyO3N0cm9rZS1taXRlcmxpbWl0OjAuNjtzdHJva2UtZGFzaGFycmF5Om5vbmU7c3Ryb2tlLWRhc2hvZmZzZXQ6Mi4wMDAwMTtzdHJva2Utb3BhY2l0eToxO3BhaW50LW9yZGVyOmZpbGwgbWFya2VycyBzdHJva2U7c3RvcC1jb2xvcjojMDAwMDAwIgogICAgICAgICAgIHg9IjE0MC4zMzg5NiIKICAgICAgICAgICB5PSIxMDcuMjExOCIKICAgICAgICAgICBpZD0idGV4dDE4NTY5LTYtNC03LTItNyI+PHRzcGFuCiAgICAgICAgICAgICBpZD0idHNwYW4xODU2Ny00Mi0xLTUtNzEtMCIKICAgICAgICAgICAgIHN0eWxlPSJmaWxsOiNmZmZmZmY7ZmlsbC1vcGFjaXR5OjE7c3Ryb2tlOm5vbmU7c3Ryb2tlLXdpZHRoOjAuMjI3OTUxIgogICAgICAgICAgICAgeD0iMTQwLjMzODk2IgogICAgICAgICAgICAgeT0iMTA3LjIxMTgiPmZhc3RxPC90c3Bhbj48L3RleHQ+CiAgICAgIDwvZz4KICAgICAgPGcKICAgICAgICAgaWQ9ImcxODQ4OC01NC04LTAtOC02LTQiCiAgICAgICAgIHRyYW5zZm9ybT0idHJhbnNsYXRlKDUyLjkxNjY3NSw3LjkzNzUxNjIpIj4KICAgICAgICA8cGF0aAogICAgICAgICAgIGlkPSJwYXRoNjI3Ni00LTQtNi05LTAtMi0zIgogICAgICAgICAgIHN0eWxlPSJmaWxsOiNmZmZmZmY7c3Ryb2tlLXdpZHRoOjAuMjMwNzAyIgogICAgICAgICAgIGQ9Im0gMTMyLjI5MTY2LDkzLjkyNzA3MiB2IDIxLjE2NjY2OCBoIDE1Ljg3NTAxIFYgOTkuMjE4NzQ4IGwgLTUuMjkxNjgsLTUuMjkxNjc2IHoiIC8+CiAgICAgICAgPHBhdGgKICAgICAgICAgICBpZD0icGF0aDU4NjItMS0xLTMtOS04LTAiCiAgICAgICAgICAgZD0ibSAxNDkuNDg5NTgsOTcuODk1ODMyIGMgMCwtMC4yNjQ1NzYgLTAuMjY0NTgsLTAuNTI5MTY0IC0wLjUyOTE3LC0wLjc5Mzc1MiBsIC00LjQ5NzkxLC0zLjk2ODc0OCBjIC0wLjI2NDU4LC0wLjI2NDU4OCAtMC41MjkxNywtMC41MjkxNjQgLTAuODI3ODgsLTAuNTI5MTY0IGggLTMuNDA1NDUgLTcuOTM3NTEgYyAtMC43OTM3NSwwIC0xLjMyMjkyLDAuNTI5MTY0IC0xLjMyMjkyLDEuMzIyOTE2IHYgNy45Mzc0NzYgMTMuMjI5MTkgYyAwLDAuNzkzNzUgMC41MjkxNywxLjMyMjkyIDEuMzIyOTIsMS4zMjI5MiBsIDEwLjU4MzMzLC0zZS01IDUuMjkxNjgsM2UtNSBjIDAuNzkzNzQsMCAxLjMyMjkxLC0wLjUyOTE3IDEuMzIyOTEsLTEuMzIyOTIgeiBtIC0xLjMyMjkxLDE3LjE5NzkxOCBIIDEzMi4yOTE2NiBWIDkzLjkyNzA4NCBoIDEwLjU4MzMzIHYgNC43NjI1IGMgMCwwLjMxNzUwOCAwLjIwMzUzLDAuNTI5MTY0IDAuNTI5MTcsMC41MjkxNjQgaCA0Ljc2MjUxIHoiCiAgICAgICAgICAgc3R5bGU9InN0cm9rZS13aWR0aDowLjIzMTY3IiAvPgogICAgICAgIDxwYXRoCiAgICAgICAgICAgaWQ9InJlY3QxODM0Ny0yLTUtMS02LTItMCIKICAgICAgICAgICBzdHlsZT0iZmlsbC1ydWxlOmV2ZW5vZGQ7c3Ryb2tlLXdpZHRoOjAuMTIyMDI3O3BhaW50LW9yZGVyOmZpbGwgbWFya2VycyBzdHJva2UiCiAgICAgICAgICAgZD0ibSAxMzEuMDE3NTIsMTAxLjg2NDYgYyA2LjE0MTA5LDAgMTIuMjgyMTcsMCAxOC40MjMyNiwwIDAuNzU5OTMsMCAxLjM3MTcxLDAuNDk3MDYgMS4zNzE3MSwxLjExNDUgdiAyLjg1NDIyIDIuODU0MjUgYyAwLDAuNjE3NDQgLTAuNjExNzgsMS4xMTQ1IC0xLjM3MTcxLDEuMTE0NSAtNi4xNDEwOSwwIC0xMi4yODIxNywwIC0xOC40MjMyNiwwIC0wLjc1OTkyLDAgLTEuMzcxNywtMC40OTcwNiAtMS4zNzE3LC0xLjExNDUgdiAtMi44NTQyNSAtMi44NTQyMiBjIDAsLTAuNjE3NDQgMC42MTE3OCwtMS4xMTQ1IDEuMzcxNywtMS4xMTQ1IHoiIC8+CiAgICAgIDwvZz4KICAgIDwvZz4KICA8L2c+Cjwvc3ZnPgo=;" vertex="1" parent="I4KKubXRf7cSkb2UcYBp-57">
          <mxGeometry width="100" height="110" as="geometry" />
        </mxCell>
        <mxCell id="I4KKubXRf7cSkb2UcYBp-59" value="" style="shape=image;aspect=fixed;image=data:image/svg+xml,PD94bWwgdmVyc2lvbj0iMS4wIiBlbmNvZGluZz0iVVRGLTgiIHN0YW5kYWxvbmU9Im5vIj8+CjwhLS0gQ3JlYXRlZCB3aXRoIElua3NjYXBlIChodHRwOi8vd3d3Lmlua3NjYXBlLm9yZy8pIC0tPgoKPHN2ZwogICB3aWR0aD0iMjYuNDU4MzI2bW0iCiAgIGhlaWdodD0iMjkuMTA0Mm1tIgogICB2aWV3Qm94PSIwIDAgMjYuNDU4MzI2IDI5LjEwNDIiCiAgIHZlcnNpb249IjEuMSIKICAgaWQ9InN2ZzczNjIiCiAgIHhtbG5zPSJodHRwOi8vd3d3LnczLm9yZy8yMDAwL3N2ZyIKICAgeG1sbnM6c3ZnPSJodHRwOi8vd3d3LnczLm9yZy8yMDAwL3N2ZyI+CiAgPGRlZnMKICAgICBpZD0iZGVmczczNTkiIC8+CiAgPGcKICAgICBpZD0ibGF5ZXIxIgogICAgIHN0eWxlPSJkaXNwbGF5OmlubGluZSIKICAgICB0cmFuc2Zvcm09InRyYW5zbGF0ZSgzNC4zOTU4MzMsLTE5My4xNDU4NCkiPgogICAgPGcKICAgICAgIGlkPSJnMi0wLTQiCiAgICAgICB0cmFuc2Zvcm09InRyYW5zbGF0ZSgtMjE2Ljk1ODMzLDk3Ljg5NTg0MykiCiAgICAgICBzdHlsZT0iZGlzcGxheTppbmxpbmUiPgogICAgICA8ZwogICAgICAgICBpZD0iZzE4NDg4LTU0LTQtMS01IgogICAgICAgICB0cmFuc2Zvcm09InRyYW5zbGF0ZSg1OC4yMDgzMzQsMi42NDU4MzY5KSI+CiAgICAgICAgPHBhdGgKICAgICAgICAgICBpZD0icGF0aDYyNzYtNC00LTY1LTUtOSIKICAgICAgICAgICBzdHlsZT0iZmlsbDojZmZmZmZmO3N0cm9rZS13aWR0aDowLjIzMDcwMiIKICAgICAgICAgICBkPSJtIDEzMi4yOTE2Niw5My45MjcwNzIgdiAyMS4xNjY2NjggaCAxNS44NzUwMSBWIDk5LjIxODc0OCBsIC01LjI5MTY4LC01LjI5MTY3NiB6IiAvPgogICAgICAgIDxwYXRoCiAgICAgICAgICAgaWQ9InBhdGg1ODYyLTEtMy00LTYiCiAgICAgICAgICAgZD0ibSAxNDkuNDg5NTgsOTcuODk1ODMyIGMgMCwtMC4yNjQ1NzYgLTAuMjY0NTgsLTAuNTI5MTY0IC0wLjUyOTE3LC0wLjc5Mzc1MiBsIC00LjQ5NzkxLC0zLjk2ODc0OCBjIC0wLjI2NDU4LC0wLjI2NDU4OCAtMC41MjkxNywtMC41MjkxNjQgLTAuODI3ODgsLTAuNTI5MTY0IGwgLTYuMDUxMjksLTEuM2UtNSAtNS4yOTE2NywxLjNlLTUgYyAtMC43OTM3NSwyZS02IC0xLjMyMjkyLDAuNTI5MTY0IC0xLjMyMjkyLDEuMzIyOTE2IHYgMjEuMTY2NjY2IGMgMCwwLjc5Mzc1IDAuNTI5MTcsMS4zMjI5MiAxLjMyMjkyLDEuMzIyOTIgaCA3LjkzNzUxIDcuOTM3NSBjIDAuNzkzNzQsMCAxLjMyMjkxLC0wLjUyOTE3IDEuMzIyOTEsLTEuMzIyOTIgeiBtIC0xLjMyMjkxLDE3LjE5NzkxOCBIIDEzMi4yOTE2NiBWIDkzLjkyNzA4NCBoIDEwLjU4MzMzIHYgNC43NjI1IGMgMCwwLjMxNzUwOCAwLjIwMzUzLDAuNTI5MTY0IDAuNTI5MTcsMC41MjkxNjQgaCA0Ljc2MjUxIHoiCiAgICAgICAgICAgc3R5bGU9InN0cm9rZS13aWR0aDowLjIzMTY3IiAvPgogICAgICAgIDxwYXRoCiAgICAgICAgICAgaWQ9InJlY3QxODM0Ny0yLTYtNi0wIgogICAgICAgICAgIHN0eWxlPSJmaWxsLXJ1bGU6ZXZlbm9kZDtzdHJva2Utd2lkdGg6MC4xMjIwMjc7cGFpbnQtb3JkZXI6ZmlsbCBtYXJrZXJzIHN0cm9rZSIKICAgICAgICAgICBkPSJtIDEzMS4wMTc1MiwxMDEuODY0NiBoIDE4LjQyMzI2IGMgMC43NTk5MywwIDEuMzcxNzEsMC40OTcwNiAxLjM3MTcxLDEuMTE0NSB2IDQuMTc3MTQgMS41MzEzMyBjIDAsMC42MTc0NCAtMC42MTE3OCwxLjExNDUgLTEuMzcxNzEsMS4xMTQ1IGggLTE4LjQyMzI2IGMgLTAuNzU5OTIsMCAtMS4zNzE3LC0wLjQ5NzA2IC0xLjM3MTcsLTEuMTE0NSB2IC0yLjg1NDI1IC0yLjg1NDIyIGMgMCwtMC42MTc0NCAwLjYxMTc4LC0xLjExNDUgMS4zNzE3LC0xLjExNDUgeiIgLz4KICAgICAgICA8dGV4dAogICAgICAgICAgIHhtbDpzcGFjZT0icHJlc2VydmUiCiAgICAgICAgICAgc3R5bGU9ImZvbnQtd2VpZ2h0OmJvbGQ7Zm9udC1zaXplOjUuMjkxNjdweDtmb250LWZhbWlseTonTWF2ZW4gUHJvJzstaW5rc2NhcGUtZm9udC1zcGVjaWZpY2F0aW9uOidNYXZlbiBQcm8sIEJvbGQnO3RleHQtYWxpZ246Y2VudGVyO3RleHQtb3JpZW50YXRpb246dXByaWdodDt0ZXh0LWFuY2hvcjptaWRkbGU7ZmlsbDojZmZmZmZmO2ZpbGwtb3BhY2l0eToxO3N0cm9rZTpub25lO3N0cm9rZS13aWR0aDowLjIyNzk1MTtzdHJva2UtbGluZWNhcDpyb3VuZDtzdHJva2UtbGluZWpvaW46bWl0ZXI7c3Ryb2tlLW1pdGVybGltaXQ6MC42O3N0cm9rZS1kYXNoYXJyYXk6bm9uZTtzdHJva2UtZGFzaG9mZnNldDoyLjAwMDAxO3N0cm9rZS1vcGFjaXR5OjE7cGFpbnQtb3JkZXI6ZmlsbCBtYXJrZXJzIHN0cm9rZTtzdG9wLWNvbG9yOiMwMDAwMDAiCiAgICAgICAgICAgeD0iMTQwLjMzODk2IgogICAgICAgICAgIHk9IjEwNy4yMTE4IgogICAgICAgICAgIGlkPSJ0ZXh0MTg1NjktNi00MS0zLTIiPjx0c3BhbgogICAgICAgICAgICAgaWQ9InRzcGFuMTg1NjctNDItNS0xLTYiCiAgICAgICAgICAgICBzdHlsZT0iZmlsbDojZmZmZmZmO2ZpbGwtb3BhY2l0eToxO3N0cm9rZTpub25lO3N0cm9rZS13aWR0aDowLjIyNzk1MSIKICAgICAgICAgICAgIHg9IjE0MC4zMzg5NiIKICAgICAgICAgICAgIHk9IjEwNy4yMTE4Ij5mYXN0cTwvdHNwYW4+PC90ZXh0PgogICAgICA8L2c+CiAgICAgIDxnCiAgICAgICAgIGlkPSJnMTg0ODgtNTQtOC0wLTMtNiIKICAgICAgICAgdHJhbnNmb3JtPSJ0cmFuc2xhdGUoNTUuNTYyNTA0LDUuMjkxNjYyNCkiPgogICAgICAgIDxwYXRoCiAgICAgICAgICAgaWQ9InBhdGg2Mjc2LTQtNC02LTktMDYtMSIKICAgICAgICAgICBzdHlsZT0iZmlsbDojZmZmZmZmO3N0cm9rZS13aWR0aDowLjIzMDcwMiIKICAgICAgICAgICBkPSJtIDEzMi4yOTE2Niw5My45MjcwNzIgdiAyMS4xNjY2NjggaCAxNS44NzUwMSBWIDk5LjIxODc0OCBsIC01LjI5MTY4LC01LjI5MTY3NiB6IiAvPgogICAgICAgIDxwYXRoCiAgICAgICAgICAgaWQ9InBhdGg1ODYyLTEtMS0zLTgtMCIKICAgICAgICAgICBkPSJtIDE0OS40ODk1OCw5Ny44OTU4MzIgYyAwLC0wLjI2NDU3NiAtMC4yNjQ1OCwtMC41MjkxNjQgLTAuNTI5MTcsLTAuNzkzNzUyIGwgLTQuNDk3OTEsLTMuOTY4NzQ4IGMgLTAuMjY0NTgsLTAuMjY0NTg4IC0wLjUyOTE3LC0wLjUyOTE2NCAtMC44Mjc4OCwtMC41MjkxNjQgaCAtMy40MDU0NSAtNy45Mzc1MSBjIC0wLjc5Mzc1LDAgLTEuMzIyOTIsMC41MjkxNjQgLTEuMzIyOTIsMS4zMjI5MTYgMCw3LjA1NTU1NiAwLDE0LjExMTEwNiAwLDIxLjE2NjY2NiAwLDAuNzkzNzUgMC41MjkxNywxLjMyMjkyIDEuMzIyOTIsMS4zMjI5MiBoIDcuOTM3NTEgNy45Mzc1IGMgMC43OTM3NCwwIDEuMzIyOTEsLTAuNTI5MTcgMS4zMjI5MSwtMS4zMjI5MiB6IG0gLTEuMzIyOTEsMTcuMTk3OTE4IEggMTMyLjI5MTY2IFYgOTMuOTI3MDg0IGggMTAuNTgzMzMgdiA0Ljc2MjUgYyAwLDAuMzE3NTA4IDAuMjAzNTMsMC41MjkxNjQgMC41MjkxNywwLjUyOTE2NCBoIDQuNzYyNTEgeiIKICAgICAgICAgICBzdHlsZT0ic3Ryb2tlLXdpZHRoOjAuMjMxNjciIC8+CiAgICAgICAgPHBhdGgKICAgICAgICAgICBpZD0icmVjdDE4MzQ3LTItNS0xLTAtNiIKICAgICAgICAgICBzdHlsZT0iZmlsbC1ydWxlOmV2ZW5vZGQ7c3Ryb2tlLXdpZHRoOjAuMTIyMDI3O3BhaW50LW9yZGVyOmZpbGwgbWFya2VycyBzdHJva2UiCiAgICAgICAgICAgZD0ibSAxMzEuMDE3NTIsMTAxLjg2NDYgYyA2LjE0MTA5LDAgMTIuMjgyMTcsMCAxOC40MjMyNiwwIDAuNzU5OTMsMCAxLjM3MTcxLDAuNDk3MDYgMS4zNzE3MSwxLjExNDUgdiAyLjg1NDIyIDIuODU0MjUgYyAwLDAuNjE3NDQgLTAuNjExNzgsMS4xMTQ1IC0xLjM3MTcxLDEuMTE0NSAtNi4xNDEwOSwwIC0xMi4yODIxNywwIC0xOC40MjMyNiwwIC0wLjc1OTkyLDAgLTEuMzcxNywtMC40OTcwNiAtMS4zNzE3LC0xLjExNDUgdiAtMi44NTQyNSAtMi44NTQyMiBjIDAsLTAuNjE3NDQgMC42MTE3OCwtMS4xMTQ1IDEuMzcxNywtMS4xMTQ1IHoiIC8+CiAgICAgICAgPHRleHQKICAgICAgICAgICB4bWw6c3BhY2U9InByZXNlcnZlIgogICAgICAgICAgIHN0eWxlPSJmb250LXdlaWdodDpib2xkO2ZvbnQtc2l6ZTo1LjI5MTY3cHg7Zm9udC1mYW1pbHk6J01hdmVuIFBybyc7LWlua3NjYXBlLWZvbnQtc3BlY2lmaWNhdGlvbjonTWF2ZW4gUHJvLCBCb2xkJzt0ZXh0LWFsaWduOmNlbnRlcjt0ZXh0LW9yaWVudGF0aW9uOnVwcmlnaHQ7dGV4dC1hbmNob3I6bWlkZGxlO2ZpbGw6I2ZmZmZmZjtmaWxsLW9wYWNpdHk6MTtzdHJva2U6bm9uZTtzdHJva2Utd2lkdGg6MC4yMjc5NTE7c3Ryb2tlLWxpbmVjYXA6cm91bmQ7c3Ryb2tlLWxpbmVqb2luOm1pdGVyO3N0cm9rZS1taXRlcmxpbWl0OjAuNjtzdHJva2UtZGFzaGFycmF5Om5vbmU7c3Ryb2tlLWRhc2hvZmZzZXQ6Mi4wMDAwMTtzdHJva2Utb3BhY2l0eToxO3BhaW50LW9yZGVyOmZpbGwgbWFya2VycyBzdHJva2U7c3RvcC1jb2xvcjojMDAwMDAwIgogICAgICAgICAgIHg9IjE0MC4zMzg5NiIKICAgICAgICAgICB5PSIxMDcuMjExOCIKICAgICAgICAgICBpZD0idGV4dDE4NTY5LTYtNC03LTItNyI+PHRzcGFuCiAgICAgICAgICAgICBpZD0idHNwYW4xODU2Ny00Mi0xLTUtNzEtMCIKICAgICAgICAgICAgIHN0eWxlPSJmaWxsOiNmZmZmZmY7ZmlsbC1vcGFjaXR5OjE7c3Ryb2tlOm5vbmU7c3Ryb2tlLXdpZHRoOjAuMjI3OTUxIgogICAgICAgICAgICAgeD0iMTQwLjMzODk2IgogICAgICAgICAgICAgeT0iMTA3LjIxMTgiPmZhc3RxPC90c3Bhbj48L3RleHQ+CiAgICAgIDwvZz4KICAgICAgPGcKICAgICAgICAgaWQ9ImcxODQ4OC01NC04LTAtOC02LTQiCiAgICAgICAgIHRyYW5zZm9ybT0idHJhbnNsYXRlKDUyLjkxNjY3NSw3LjkzNzUxNjIpIj4KICAgICAgICA8cGF0aAogICAgICAgICAgIGlkPSJwYXRoNjI3Ni00LTQtNi05LTAtMi0zIgogICAgICAgICAgIHN0eWxlPSJmaWxsOiNmZmZmZmY7c3Ryb2tlLXdpZHRoOjAuMjMwNzAyIgogICAgICAgICAgIGQ9Im0gMTMyLjI5MTY2LDkzLjkyNzA3MiB2IDIxLjE2NjY2OCBoIDE1Ljg3NTAxIFYgOTkuMjE4NzQ4IGwgLTUuMjkxNjgsLTUuMjkxNjc2IHoiIC8+CiAgICAgICAgPHBhdGgKICAgICAgICAgICBpZD0icGF0aDU4NjItMS0xLTMtOS04LTAiCiAgICAgICAgICAgZD0ibSAxNDkuNDg5NTgsOTcuODk1ODMyIGMgMCwtMC4yNjQ1NzYgLTAuMjY0NTgsLTAuNTI5MTY0IC0wLjUyOTE3LC0wLjc5Mzc1MiBsIC00LjQ5NzkxLC0zLjk2ODc0OCBjIC0wLjI2NDU4LC0wLjI2NDU4OCAtMC41MjkxNywtMC41MjkxNjQgLTAuODI3ODgsLTAuNTI5MTY0IGggLTMuNDA1NDUgLTcuOTM3NTEgYyAtMC43OTM3NSwwIC0xLjMyMjkyLDAuNTI5MTY0IC0xLjMyMjkyLDEuMzIyOTE2IHYgNy45Mzc0NzYgMTMuMjI5MTkgYyAwLDAuNzkzNzUgMC41MjkxNywxLjMyMjkyIDEuMzIyOTIsMS4zMjI5MiBsIDEwLjU4MzMzLC0zZS01IDUuMjkxNjgsM2UtNSBjIDAuNzkzNzQsMCAxLjMyMjkxLC0wLjUyOTE3IDEuMzIyOTEsLTEuMzIyOTIgeiBtIC0xLjMyMjkxLDE3LjE5NzkxOCBIIDEzMi4yOTE2NiBWIDkzLjkyNzA4NCBoIDEwLjU4MzMzIHYgNC43NjI1IGMgMCwwLjMxNzUwOCAwLjIwMzUzLDAuNTI5MTY0IDAuNTI5MTcsMC41MjkxNjQgaCA0Ljc2MjUxIHoiCiAgICAgICAgICAgc3R5bGU9InN0cm9rZS13aWR0aDowLjIzMTY3IiAvPgogICAgICAgIDxwYXRoCiAgICAgICAgICAgaWQ9InJlY3QxODM0Ny0yLTUtMS02LTItMCIKICAgICAgICAgICBzdHlsZT0iZmlsbC1ydWxlOmV2ZW5vZGQ7c3Ryb2tlLXdpZHRoOjAuMTIyMDI3O3BhaW50LW9yZGVyOmZpbGwgbWFya2VycyBzdHJva2UiCiAgICAgICAgICAgZD0ibSAxMzEuMDE3NTIsMTAxLjg2NDYgYyA2LjE0MTA5LDAgMTIuMjgyMTcsMCAxOC40MjMyNiwwIDAuNzU5OTMsMCAxLjM3MTcxLDAuNDk3MDYgMS4zNzE3MSwxLjExNDUgdiAyLjg1NDIyIDIuODU0MjUgYyAwLDAuNjE3NDQgLTAuNjExNzgsMS4xMTQ1IC0xLjM3MTcxLDEuMTE0NSAtNi4xNDEwOSwwIC0xMi4yODIxNywwIC0xOC40MjMyNiwwIC0wLjc1OTkyLDAgLTEuMzcxNywtMC40OTcwNiAtMS4zNzE3LC0xLjExNDUgdiAtMi44NTQyNSAtMi44NTQyMiBjIDAsLTAuNjE3NDQgMC42MTE3OCwtMS4xMTQ1IDEuMzcxNywtMS4xMTQ1IHoiIC8+CiAgICAgIDwvZz4KICAgIDwvZz4KICA8L2c+Cjwvc3ZnPgo=;" vertex="1" parent="I4KKubXRf7cSkb2UcYBp-57">
          <mxGeometry x="27" y="29.999999999999886" width="100" height="110" as="geometry" />
        </mxCell>
        <mxCell id="I4KKubXRf7cSkb2UcYBp-60" value="&lt;div&gt;&lt;font style=&quot;font-size: 20px;&quot; color=&quot;#ffffff&quot; data-font-src=&quot;https://fonts.googleapis.com/css?family=Maven+Pro&quot; face=&quot;Maven Pro&quot;&gt;&lt;b&gt;.txt&lt;/b&gt;&lt;/font&gt;&lt;/div&gt;" style="text;html=1;strokeColor=none;fillColor=none;align=center;verticalAlign=middle;whiteSpace=wrap;rounded=0;" vertex="1" parent="I4KKubXRf7cSkb2UcYBp-57">
          <mxGeometry x="37" y="84.99999999999989" width="60" height="30" as="geometry" />
        </mxCell>
        <mxCell id="I4KKubXRf7cSkb2UcYBp-61" value="&lt;div&gt;&lt;font style=&quot;font-size: 18px;&quot;&gt;&lt;b&gt;Estimated rates&lt;/b&gt;&lt;/font&gt;&lt;/div&gt;" style="text;html=1;align=center;verticalAlign=middle;whiteSpace=wrap;rounded=0;" vertex="1" parent="1">
          <mxGeometry x="1381" y="350" width="60" height="30" as="geometry" />
        </mxCell>
        <mxCell id="I4KKubXRf7cSkb2UcYBp-65" value="" style="endArrow=none;html=1;rounded=0;strokeWidth=10;strokeColor=#24b064;" edge="1" parent="1">
          <mxGeometry width="50" height="50" relative="1" as="geometry">
            <mxPoint x="1552" y="270" as="sourcePoint" />
            <mxPoint x="1617" y="270" as="targetPoint" />
          </mxGeometry>
        </mxCell>
        <mxCell id="I4KKubXRf7cSkb2UcYBp-67" value="" style="shape=image;verticalLabelPosition=bottom;verticalAlign=top;imageAspect=0;aspect=fixed;image=data:image/svg+xml,PHN2ZyB4bWxucz0iaHR0cDovL3d3dy53My5vcmcvMjAwMC9zdmciIGlkPSJzdmc3MzYyIiB2ZXJzaW9uPSIxLjEiIHZpZXdCb3g9IjAgMCA3LjkzNzQ5NjcgNy45Mzc0OTYyIiBoZWlnaHQ9IjcuOTM3NDk2Mm1tIiB3aWR0aD0iNy45Mzc0OTY3bW0iPiYjeGE7ICAmI3hhOyAgICAmI3hhOyAgJiN4YTsgIDxkZWZzIGlkPSJkZWZzNzM1OSIvPiYjeGE7ICA8ZyB0cmFuc2Zvcm09InRyYW5zbGF0ZSgtMy45ODk0MzAzLC0zMy4wNzI5MjEpIiBpZD0ibGF5ZXI1Ij4mI3hhOyAgICA8ZyBpZD0ibGF5ZXI2Ij4mI3hhOyAgICAgIDxjaXJjbGUgcj0iMi42NDU4MzMzIiBjeT0iMzcuMDQxNjY4IiBjeD0iNy45NTgxNzg1IiBpZD0icGF0aDM0NDciIHN0eWxlPSJmaWxsOiNmZmZmZmY7c3Ryb2tlOiMwMDAwMDA7c3Ryb2tlLXdpZHRoOjIuNjQ1ODM7c3Ryb2tlLWxpbmVjYXA6cm91bmQ7c3Ryb2tlLW1pdGVybGltaXQ6NDtzdHJva2UtZGFzaGFycmF5Om5vbmU7cGFpbnQtb3JkZXI6c3Ryb2tlIG1hcmtlcnMgZmlsbDtzdG9wLWNvbG9yOiMwMDAwMDAiLz4mI3hhOyAgICA8L2c+JiN4YTsgIDwvZz4mI3hhOzwvc3ZnPg==" vertex="1" parent="1">
          <mxGeometry x="1527" y="255" width="30" height="30" as="geometry" />
        </mxCell>
        <mxCell id="I4KKubXRf7cSkb2UcYBp-68" value="" style="group" vertex="1" connectable="0" parent="1">
          <mxGeometry x="1610" y="220" width="80" height="90" as="geometry" />
        </mxCell>
        <mxCell id="I4KKubXRf7cSkb2UcYBp-69" value="" style="shape=image;aspect=fixed;image=data:image/svg+xml,PD94bWwgdmVyc2lvbj0iMS4wIiBlbmNvZGluZz0iVVRGLTgiIHN0YW5kYWxvbmU9Im5vIj8+CjwhLS0gQ3JlYXRlZCB3aXRoIElua3NjYXBlIChodHRwOi8vd3d3Lmlua3NjYXBlLm9yZy8pIC0tPgoKPHN2ZwogICB3aWR0aD0iMjEuMTY2NjdtbSIKICAgaGVpZ2h0PSIyMy44MTI1MDJtbSIKICAgdmlld0JveD0iMCAwIDIxLjE2NjY3IDIzLjgxMjUwMiIKICAgdmVyc2lvbj0iMS4xIgogICBpZD0ic3ZnNzM2MiIKICAgeG1sbnM9Imh0dHA6Ly93d3cudzMub3JnLzIwMDAvc3ZnIgogICB4bWxuczpzdmc9Imh0dHA6Ly93d3cudzMub3JnLzIwMDAvc3ZnIj4KICA8ZGVmcwogICAgIGlkPSJkZWZzNzM1OSIgLz4KICA8ZwogICAgIGlkPSJsYXllcjEiCiAgICAgc3R5bGU9ImRpc3BsYXk6aW5saW5lIgogICAgIHRyYW5zZm9ybT0idHJhbnNsYXRlKDM3LjA0MTY3MywtMTQwLjIyOTE3KSI+CiAgICA8ZwogICAgICAgaWQ9ImcxODQ4OC0zLTIiCiAgICAgICB0cmFuc2Zvcm09InRyYW5zbGF0ZSgtMTY2LjY4NzQ5LDQ3LjYyNDk5NykiCiAgICAgICBzdHlsZT0iZGlzcGxheTppbmxpbmUiPgogICAgICA8cGF0aAogICAgICAgICBpZD0icGF0aDYyNzYtNC0wLTYiCiAgICAgICAgIHN0eWxlPSJmaWxsOiNmZmZmZmY7c3Ryb2tlLXdpZHRoOjAuMjMwNzAyIgogICAgICAgICBkPSJtIDEzMi4yOTE2Niw5My45MjcwNzIgdiAyMS4xNjY2NjggaCAxNS44NzUwMSBWIDk5LjIxODc0OCBsIC01LjI5MTY4LC01LjI5MTY3NiB6IiAvPgogICAgICA8cGF0aAogICAgICAgICBpZD0icGF0aDU4NjItMy03IgogICAgICAgICBkPSJtIDE0OS40ODk1OCw5Ny44OTU4MzIgYyAwLC0wLjI2NDU3NiAtMC4yNjQ1OCwtMC41MjkxNjQgLTAuNTI5MTcsLTAuNzkzNzUyIGwgLTQuNDk3OTEsLTMuOTY4NzQ4IGMgLTAuMjY0NTgsLTAuMjY0NTg4IC0wLjUyOTE3LC0wLjUyOTE2NCAtMC44Mjc4OCwtMC41MjkxNjQgaCAtMy40MDU0NSAtNy45Mzc1MSBjIC0wLjc5Mzc1LDAgLTEuMzIyOTIsMC41MjkxNjQgLTEuMzIyOTIsMS4zMjI5MTYgMCw3LjA1NTU1NiAwLDE0LjExMTEwNiAwLDIxLjE2NjY2NiAwLDAuNzkzNzUgMC41MjkxNywxLjMyMjkyIDEuMzIyOTIsMS4zMjI5MiBoIDcuOTM3NTEgNy45Mzc1IGMgMC43OTM3NCwwIDEuMzIyOTEsLTAuNTI5MTcgMS4zMjI5MSwtMS4zMjI5MiB6IG0gLTEuMzIyOTEsMTcuMTk3OTE4IEggMTMyLjI5MTY2IFYgOTMuOTI3MDg0IGggMTAuNTgzMzMgdiA0Ljc2MjUgYyAwLDAuMzE3NTA4IDAuMjAzNTMsMC41MjkxNjQgMC41MjkxNywwLjUyOTE2NCBoIDQuNzYyNTEgeiIKICAgICAgICAgc3R5bGU9InN0cm9rZS13aWR0aDowLjIzMTY3IiAvPgogICAgICA8cGF0aAogICAgICAgICBpZD0icmVjdDE4MzQ3LTYtMSIKICAgICAgICAgc3R5bGU9ImZpbGwtcnVsZTpldmVub2RkO3N0cm9rZS13aWR0aDowLjEyMjAyNztwYWludC1vcmRlcjpmaWxsIG1hcmtlcnMgc3Ryb2tlIgogICAgICAgICBkPSJtIDEzMS4wMTc1MiwxMDEuODY0NiBjIDYuMTQxMDksMCAxMi4yODIxNywwIDE4LjQyMzI2LDAgMC43NTk5MywwIDEuMzcxNzEsMC40OTcwNiAxLjM3MTcxLDEuMTE0NSB2IDIuODU0MjIgMi44NTQyNSBjIDAsMC42MTc0NCAtMC42MTE3OCwxLjExNDUgLTEuMzcxNzEsMS4xMTQ1IC02LjE0MTA5LDAgLTEyLjI4MjE3LDAgLTE4LjQyMzI2LDAgLTAuNzU5OTIsMCAtMS4zNzE3LC0wLjQ5NzA2IC0xLjM3MTcsLTEuMTE0NSB2IC0yLjg1NDI1IC0yLjg1NDIyIGMgMCwtMC42MTc0NCAwLjYxMTc4LC0xLjExNDUgMS4zNzE3LC0xLjExNDUgeiIgLz4KICAgIDwvZz4KICA8L2c+Cjwvc3ZnPgo=;" vertex="1" parent="I4KKubXRf7cSkb2UcYBp-68">
          <mxGeometry width="80" height="90" as="geometry" />
        </mxCell>
        <mxCell id="I4KKubXRf7cSkb2UcYBp-70" value="&lt;font style=&quot;font-size: 20px;&quot; color=&quot;#ffffff&quot; data-font-src=&quot;https://fonts.googleapis.com/css?family=Maven+Pro&quot; face=&quot;Maven Pro&quot;&gt;&lt;b&gt;.csv&lt;/b&gt;&lt;/font&gt;" style="text;html=1;strokeColor=none;fillColor=none;align=center;verticalAlign=middle;whiteSpace=wrap;rounded=0;" vertex="1" parent="I4KKubXRf7cSkb2UcYBp-68">
          <mxGeometry x="10" y="35" width="60" height="30" as="geometry" />
        </mxCell>
        <mxCell id="I4KKubXRf7cSkb2UcYBp-71" value="&lt;div&gt;&lt;font style=&quot;font-size: 18px;&quot;&gt;&lt;b&gt;Aggregate results&lt;/b&gt;&lt;/font&gt;&lt;/div&gt;" style="text;html=1;align=center;verticalAlign=middle;whiteSpace=wrap;rounded=0;" vertex="1" parent="1">
          <mxGeometry x="1512" y="290" width="60" height="40" as="geometry" />
        </mxCell>
      </root>
    </mxGraphModel>
  </diagram>
</mxfile>
